solid FIXED POD closed
facet normal -5.621667701507995e-17 6.26659218343918e-16 1.0
outer loop
vertex 1010.0 -1.8047785488306544e-13 -165.0
vertex 17.999999999998973 17.999999999998288 -165.00000000000006
vertex 3.8454976989825155e-14 -4.5119463720766377e-13 -165.0
endloop
endfacet
facet normal -5.621667701507995e-17 6.26659218343918e-16 1.0
outer loop
vertex 17.999999999998973 17.999999999998288 -165.00000000000006
vertex 1010.0 -1.8047785488306544e-13 -165.0
vertex 992.0 17.999999999999957 -164.99999999999997
endloop
endfacet
facet normal 0.7071067811865491 0.7071067811865459 0.0
outer loop
vertex 992.0 17.999999999999957 -164.99999999999997
vertex 1010.0 -1.8047785488306544e-13 299.9999999999976
vertex 1010.0 -1.8047785488306544e-13 -165.0
endloop
endfacet
facet normal 0.7071067811865491 0.7071067811865459 0.0
outer loop
vertex 1010.0 -1.8047785488306544e-13 299.9999999999976
vertex 992.0 17.999999999999957 -164.99999999999997
vertex 992.0 17.999999999999957 299.9999999999976
endloop
endfacet
facet normal 0.7071067811865437 -0.7071067811865515 -2.8108521696689594e-18
outer loop
vertex 17.999999999998973 17.999999999998288 299.9999999999976
vertex 3.8454976989825155e-14 -4.5119463720766377e-13 -165.0
vertex 17.999999999998973 17.999999999998288 -165.00000000000006
endloop
endfacet
facet normal 0.7071067811865437 -0.7071067811865515 -2.8108521696689594e-18
outer loop
vertex 3.8454976989825155e-14 -4.5119463720766377e-13 -165.0
vertex 17.999999999998973 17.999999999998288 299.9999999999976
vertex 3.665956427312267e-14 -4.568345701727594e-13 299.9999999999976
endloop
endfacet
facet normal 1.7110884919772132e-15 -1.0 1.0481476535101658e-32
outer loop
vertex 992.0 17.999999999999957 -164.99999999999997
vertex 17.999999999998973 17.999999999998288 299.9999999999976
vertex 17.999999999998973 17.999999999998288 -165.00000000000006
endloop
endfacet
facet normal 1.7110884919772132e-15 -1.0 1.0481476535101658e-32
outer loop
vertex 17.999999999998973 17.999999999998288 299.9999999999976
vertex 992.0 17.999999999999957 -164.99999999999997
vertex 992.0 17.999999999999957 299.9999999999976
endloop
endfacet
facet normal 0.0 0.0 1.0
outer loop
vertex 1010.0 -1.8047785488306544e-13 299.9999999999976
vertex 17.999999999998973 17.999999999998288 299.9999999999976
vertex 3.665956427312267e-14 -4.568345701727594e-13 299.9999999999976
endloop
endfacet
facet normal 0.0 0.0 1.0
outer loop
vertex 17.999999999998973 17.999999999998288 299.9999999999976
vertex 1010.0 -1.8047785488306544e-13 299.9999999999976
vertex 992.0 17.999999999999957 299.9999999999976
endloop
endfacet
facet normal 2.708284641654912e-16 -1.0 -6.064444048489956e-18
outer loop
vertex 1010.0 -1.8047785488306544e-13 -165.0
vertex 3.665956427312267e-14 -4.568345701727594e-13 299.9999999999976
vertex 3.8454976989825155e-14 -4.5119463720766377e-13 -165.0
endloop
endfacet
facet normal 2.708284641654912e-16 -1.0 -6.064444048489956e-18
outer loop
vertex 3.665956427312267e-14 -4.568345701727594e-13 299.9999999999976
vertex 1010.0 -1.8047785488306544e-13 -165.0
vertex 1010.0 -1.8047785488306544e-13 299.9999999999976
endloop
endfacet
facet normal 5.767168267973975e-16 0.7071067811865452 0.7071067811865498
outer loop
vertex 1009.9999999999993 -1.3241344839770462e-12 600.0000000000001
vertex 17.999999999998973 17.9999999999996 582.0000000000001
vertex -9.023892744153272e-13 -4.551074114517054e-13 600.0000000000001
endloop
endfacet
facet normal 5.767168267973975e-16 0.7071067811865452 0.7071067811865498
outer loop
vertex 17.999999999998973 17.9999999999996 582.0000000000001
vertex 1009.9999999999993 -1.3241344839770462e-12 600.0000000000001
vertex 991.9999999999993 17.999999999998774 582.0000000000002
endloop
endfacet
facet normal 2.8934595370452525e-30 4.393986989800114e-15 -1.0
outer loop
vertex 17.999999999998973 17.999999999998284 299.9999999999976
vertex 1009.9999999999991 -2.6188912966345033e-12 299.9999999999976
vertex -9.023892744153272e-13 -1.7498642241091638e-12 299.9999999999976
endloop
endfacet
facet normal 2.8934595370452525e-30 4.393986989800114e-15 -1.0
outer loop
vertex 1009.9999999999991 -2.6188912966345033e-12 299.9999999999976
vertex 17.999999999998973 17.999999999998284 299.9999999999976
vertex 991.9999999999993 17.999999999997453 299.9999999999976
endloop
endfacet
facet normal -0.7071067811865506 0.7071067811865445 6.606279073902079e-16
outer loop
vertex -9.023892744153272e-13 -1.7498642241091638e-12 299.9999999999976
vertex 17.999999999998973 17.9999999999996 582.0000000000001
vertex 17.999999999998973 17.999999999998284 299.9999999999976
endloop
endfacet
facet normal -0.7071067811865506 0.7071067811865445 6.606279073902079e-16
outer loop
vertex 17.999999999998973 17.9999999999996 582.0000000000001
vertex -9.023892744153272e-13 -1.7498642241091638e-12 299.9999999999976
vertex -9.023892744153272e-13 -4.551074114517054e-13 600.0000000000001
endloop
endfacet
facet normal -8.604228440844965e-16 -1.0 -9.436750582121064e-16
outer loop
vertex 1009.9999999999993 -1.3241344839770462e-12 600.0000000000001
vertex 803.838834759182 -9.313129372129642e-08 551.3388348636141
vertex 1009.9999999999991 -2.6188912966345033e-12 299.9999999999976
endloop
endfacet
facet normal -8.604228440844965e-16 -1.0 -9.436750582121064e-16
outer loop
vertex 803.838834759182 -9.313129372129642e-08 551.3388348636141
vertex 1009.9999999999993 -1.3241344839770462e-12 600.0000000000001
vertex 801.2499999587069 -9.313183580816537e-08 553.3253176249164
endloop
endfacet
facet normal -8.604228440844965e-16 -1.0 -9.436750582121064e-16
outer loop
vertex 801.2499999587069 -9.313183580816537e-08 553.3253176249164
vertex 1009.9999999999993 -1.3241344839770462e-12 600.0000000000001
vertex 798.2352379919885 -9.313147406943015e-08 554.5740728728056
endloop
endfacet
facet normal -8.604228440844965e-16 -1.0 -9.436750582121064e-16
outer loop
vertex 798.2352379919885 -9.313147406943015e-08 554.5740728728056
vertex 1009.9999999999993 -1.3241344839770462e-12 600.0000000000001
vertex 794.9999999068672 -9.313201333700148e-08 555.0000000000006
endloop
endfacet
facet normal -8.604228440844965e-16 -1.0 -9.436750582121064e-16
outer loop
vertex 794.9999999068672 -9.313201333700148e-08 555.0000000000006
vertex 1009.9999999999993 -1.3241344839770462e-12 600.0000000000001
vertex -9.023892744153272e-13 -4.551074114517054e-13 600.0000000000001
endloop
endfacet
facet normal -8.604228440844965e-16 -1.0 -9.436750582121064e-16
outer loop
vertex 1009.9999999999991 -2.6188912966345033e-12 299.9999999999976
vertex 803.838834759182 -9.313129372129642e-08 551.3388348636141
vertex 805.8253175783489 -9.313111119832909e-08 548.7500001075405
endloop
endfacet
facet normal -8.604228440844965e-16 -1.0 -9.436750582121064e-16
outer loop
vertex 1009.9999999999991 -2.6188912966345033e-12 299.9999999999976
vertex 805.8253175783489 -9.313111119832909e-08 548.7500001075405
vertex 807.0740728936236 -9.313110790077952e-08 545.7352381687341
endloop
endfacet
facet normal -8.604228440844965e-16 -1.0 -9.436750582121064e-16
outer loop
vertex 1009.9999999999991 -2.6188912966345033e-12 299.9999999999976
vertex 807.0740728936236 -9.313110790077952e-08 545.7352381687341
vertex 807.5000000931307 -9.313128405337029e-08 542.5000000931329
endloop
endfacet
facet normal -8.604228440844965e-16 -1.0 -9.436750582121064e-16
outer loop
vertex 794.9999999068672 -9.313201333700148e-08 555.0000000000006
vertex -9.023892744153272e-13 -4.551074114517054e-13 600.0000000000001
vertex 720.0000000931321 -9.313230976099809e-08 555.0000000000001
endloop
endfacet
facet normal -8.604228440844965e-16 -1.0 -9.436750582121064e-16
outer loop
vertex 720.0000000931321 -9.313230976099809e-08 555.0000000000001
vertex -9.023892744153272e-13 -4.551074114517054e-13 600.0000000000001
vertex 716.7647621942748 -9.31319454039363e-08 554.5740728728049
endloop
endfacet
facet normal -8.604228440844965e-16 -1.0 -9.436750582121064e-16
outer loop
vertex 716.7647621942748 -9.31319454039363e-08 554.5740728728049
vertex -9.023892744153272e-13 -4.551074114517054e-13 600.0000000000001
vertex 713.7500002275564 -9.31324824325863e-08 553.3253176249158
endloop
endfacet
facet normal -8.604228440844965e-16 -1.0 -9.436750582121064e-16
outer loop
vertex 713.7500002275564 -9.31324824325863e-08 553.3253176249158
vertex -9.023892744153272e-13 -4.551074114517054e-13 600.0000000000001
vertex 711.1611654270813 -9.313247732429677e-08 551.3388348636137
endloop
endfacet
facet normal -8.604228440844965e-16 -1.0 -9.436750582121064e-16
outer loop
vertex 711.1611654270813 -9.313247732429677e-08 551.3388348636137
vertex -9.023892744153272e-13 -4.551074114517054e-13 600.0000000000001
vertex 709.1746826079143 -9.313247186075393e-08 548.7500001075399
endloop
endfacet
facet normal -8.604228440844965e-16 -1.0 -9.436750582121064e-16
outer loop
vertex 709.1746826079143 -9.313247186075393e-08 548.7500001075399
vertex -9.023892744153272e-13 -4.551074114517054e-13 600.0000000000001
vertex 707.9259272926398 -9.313156402501473e-08 545.7352381687335
endloop
endfacet
facet normal -8.604228440844965e-16 -1.0 -9.436750582121064e-16
outer loop
vertex 707.9259272926398 -9.313156402501473e-08 545.7352381687335
vertex -9.023892744153272e-13 -4.551074114517054e-13 600.0000000000001
vertex 707.5000000931315 -9.313191992250541e-08 542.5000000931324
endloop
endfacet
facet normal -8.604228440844965e-16 -1.0 -9.436750582121064e-16
outer loop
vertex 707.5000000931315 -9.313191992250541e-08 542.5000000931324
vertex -9.023892744153272e-13 -4.551074114517054e-13 600.0000000000001
vertex 264.5223936249084 -9.31313339934503e-08 554.5740728728061
endloop
endfacet
facet normal -8.604228440844965e-16 -1.0 -9.436750582121064e-16
outer loop
vertex 707.5000000931315 -9.313191992250541e-08 542.5000000931324
vertex 264.5223936249084 -9.31313339934503e-08 554.5740728728061
vertex 267.53715559162686 -9.313169573218553e-08 553.325317624917
endloop
endfacet
facet normal -8.604228440844965e-16 -1.0 -9.436750582121064e-16
outer loop
vertex 707.5000000931315 -9.313191992250541e-08 542.5000000931324
vertex 267.53715559162686 -9.313169573218553e-08 553.325317624917
vertex 270.1259903921019 -9.313115364531658e-08 551.3388348636148
endloop
endfacet
facet normal -8.604228440844965e-16 -1.0 -9.436750582121064e-16
outer loop
vertex 707.5000000931315 -9.313191992250541e-08 542.5000000931324
vertex 270.1259903921019 -9.313115364531658e-08 551.3388348636148
vertex 272.1124732112688 -9.313097112234923e-08 548.7500001075412
endloop
endfacet
facet normal -8.604228440844965e-16 -1.0 -9.436750582121064e-16
outer loop
vertex 707.5000000931315 -9.313191992250541e-08 542.5000000931324
vertex 272.1124732112688 -9.313097112234923e-08 548.7500001075412
vertex 273.36122852654347 -9.313096782479966e-08 545.7352381687348
endloop
endfacet
facet normal -8.604228440844965e-16 -1.0 -9.436750582121064e-16
outer loop
vertex 707.5000000931315 -9.313191992250541e-08 542.5000000931324
vertex 273.36122852654347 -9.313096782479966e-08 545.7352381687348
vertex 273.78715572605057 -9.313114397739044e-08 542.5000000931336
endloop
endfacet
facet normal -8.604228440844965e-16 -1.0 -9.436750582121064e-16
outer loop
vertex 264.5223936249084 -9.31313339934503e-08 554.5740728728061
vertex -9.023892744153272e-13 -4.551074114517054e-13 600.0000000000001
vertex 261.2871555397871 -9.313187326102161e-08 555.0000000000013
endloop
endfacet
facet normal -8.604228440844965e-16 -1.0 -9.436750582121064e-16
outer loop
vertex 261.2871555397871 -9.313187326102161e-08 555.0000000000013
vertex -9.023892744153272e-13 -4.551074114517054e-13 600.0000000000001
vertex 186.28715572605205 -9.313216968501824e-08 555.0000000000008
endloop
endfacet
facet normal -8.604228440844965e-16 -1.0 -9.436750582121064e-16
outer loop
vertex 186.28715572605205 -9.313216968501824e-08 555.0000000000008
vertex -9.023892744153272e-13 -4.551074114517054e-13 600.0000000000001
vertex 183.05191782719476 -9.313180532795644e-08 554.5740728728056
endloop
endfacet
facet normal -8.604228440844965e-16 -1.0 -9.436750582121064e-16
outer loop
vertex 183.05191782719476 -9.313180532795644e-08 554.5740728728056
vertex -9.023892744153272e-13 -4.551074114517054e-13 600.0000000000001
vertex 180.03715586047628 -9.313234235660642e-08 553.3253176249165
endloop
endfacet
facet normal -8.604228440844965e-16 -1.0 -9.436750582121064e-16
outer loop
vertex 180.03715586047628 -9.313234235660642e-08 553.3253176249165
vertex -9.023892744153272e-13 -4.551074114517054e-13 600.0000000000001
vertex 177.4483210600012 -9.313233724831691e-08 551.3388348636144
endloop
endfacet
facet normal -8.604228440844965e-16 -1.0 -9.436750582121064e-16
outer loop
vertex 177.4483210600012 -9.313233724831691e-08 551.3388348636144
vertex -9.023892744153272e-13 -4.551074114517054e-13 600.0000000000001
vertex 175.46183824083428 -9.313233178477407e-08 548.7500001075405
endloop
endfacet
facet normal -8.604228440844965e-16 -1.0 -9.436750582121064e-16
outer loop
vertex 175.46183824083428 -9.313233178477407e-08 548.7500001075405
vertex -9.023892744153272e-13 -4.551074114517054e-13 600.0000000000001
vertex 174.21308292555983 -9.313142394903489e-08 545.7352381687342
endloop
endfacet
facet normal -8.604228440844965e-16 -1.0 -9.436750582121064e-16
outer loop
vertex 174.21308292555983 -9.313142394903489e-08 545.7352381687342
vertex -9.023892744153272e-13 -4.551074114517054e-13 600.0000000000001
vertex 173.78715572605148 -9.313177984652556e-08 542.500000093133
endloop
endfacet
facet normal -8.604228440844965e-16 -1.0 -9.436750582121064e-16
outer loop
vertex 1009.9999999999991 -2.6188912966345033e-12 299.9999999999976
vertex 798.2352381719063 -9.313161952764911e-08 530.4259271754047
vertex -9.023892744153272e-13 -1.7498642241091638e-12 299.9999999999976
endloop
endfacet
facet normal -8.604228440844965e-16 -1.0 -9.436750582121064e-16
outer loop
vertex 798.2352381719063 -9.313161952764911e-08 530.4259271754047
vertex 1009.9999999999991 -2.6188912966345033e-12 299.9999999999976
vertex 801.2500001200166 -9.313180441041872e-08 531.6746824682172
endloop
endfacet
facet normal -8.604228440844965e-16 -1.0 -9.436750582121064e-16
outer loop
vertex 801.2500001200166 -9.313180441041872e-08 531.6746824682172
vertex 1009.9999999999991 -2.6188912966345033e-12 299.9999999999976
vertex 803.8388348908909 -9.313162904085339e-08 533.6611652680959
endloop
endfacet
facet normal -8.604228440844965e-16 -1.0 -9.436750582121064e-16
outer loop
vertex 803.8388348908909 -9.313162904085339e-08 533.6611652680959
vertex 1009.9999999999991 -2.6188912966345033e-12 299.9999999999976
vertex 805.8253176714812 -9.313127354868649e-08 536.2500000537707
endloop
endfacet
facet normal -8.604228440844965e-16 -1.0 -9.436750582121064e-16
outer loop
vertex 805.8253176714812 -9.313127354868649e-08 536.2500000537707
vertex 1009.9999999999991 -2.6188912966345033e-12 299.9999999999976
vertex 807.074072941832 -9.313182042871586e-08 539.2647620111849
endloop
endfacet
facet normal -8.604228440844965e-16 -1.0 -9.436750582121064e-16
outer loop
vertex 807.074072941832 -9.313182042871586e-08 539.2647620111849
vertex 1009.9999999999991 -2.6188912966345033e-12 299.9999999999976
vertex 807.5000000931307 -9.313128405337029e-08 542.5000000931329
endloop
endfacet
facet normal -8.604228440844965e-16 -1.0 -9.436750582121064e-16
outer loop
vertex -9.023892744153272e-13 -1.7498642241091638e-12 299.9999999999976
vertex 798.2352381719063 -9.313161952764911e-08 530.4259271754047
vertex 795.0000000931317 -9.3131435648442e-08 530.0000000000006
endloop
endfacet
facet normal -8.604228440844965e-16 -1.0 -9.436750582121064e-16
outer loop
vertex -9.023892744153272e-13 -1.7498642241091638e-12 299.9999999999976
vertex 795.0000000931317 -9.3131435648442e-08 530.0000000000006
vertex 720.0000000931321 -9.313227350600311e-08 530.0000000000002
endloop
endfacet
facet normal -8.604228440844965e-16 -1.0 -9.436750582121064e-16
outer loop
vertex -9.023892744153272e-13 -1.7498642241091638e-12 299.9999999999976
vertex 720.0000000931321 -9.313227350600311e-08 530.0000000000002
vertex 716.7647620143572 -9.313227134000984e-08 530.4259271754042
endloop
endfacet
facet normal -8.604228440844965e-16 -1.0 -9.436750582121064e-16
outer loop
vertex -9.023892744153272e-13 -1.7498642241091638e-12 299.9999999999976
vertex 716.7647620143572 -9.313227134000984e-08 530.4259271754042
vertex 713.7500000662468 -9.313190960127473e-08 531.6746824682167
endloop
endfacet
facet normal -8.604228440844965e-16 -1.0 -9.436750582121064e-16
outer loop
vertex -9.023892744153272e-13 -1.7498642241091638e-12 299.9999999999976
vertex 713.7500000662468 -9.313190960127473e-08 531.6746824682167
vertex 711.1611652953732 -9.313191025457908e-08 533.6611652680954
endloop
endfacet
facet normal -8.604228440844965e-16 -1.0 -9.436750582121064e-16
outer loop
vertex -9.023892744153272e-13 -1.7498642241091638e-12 299.9999999999976
vertex 711.1611652953732 -9.313191025457908e-08 533.6611652680954
vertex 709.174682514782 -9.313209277754651e-08 536.2500000537701
endloop
endfacet
facet normal -8.604228440844965e-16 -1.0 -9.436750582121064e-16
outer loop
vertex -9.023892744153272e-13 -1.7498642241091638e-12 299.9999999999976
vertex 709.174682514782 -9.313209277754651e-08 536.2500000537701
vertex 707.9259272444316 -9.313227655295101e-08 539.2647620111843
endloop
endfacet
facet normal -8.604228440844965e-16 -1.0 -9.436750582121064e-16
outer loop
vertex -9.023892744153272e-13 -1.7498642241091638e-12 299.9999999999976
vertex 707.9259272444316 -9.313227655295101e-08 539.2647620111843
vertex 707.5000000931315 -9.313191992250541e-08 542.5000000931324
endloop
endfacet
facet normal -8.604228440844965e-16 -1.0 -9.436750582121064e-16
outer loop
vertex -9.023892744153272e-13 -1.7498642241091638e-12 299.9999999999976
vertex 707.5000000931315 -9.313191992250541e-08 542.5000000931324
vertex 270.12599052381086 -9.313148896487352e-08 533.6611652680965
endloop
endfacet
facet normal -8.604228440844965e-16 -1.0 -9.436750582121064e-16
outer loop
vertex 270.12599052381086 -9.313148896487352e-08 533.6611652680965
vertex 707.5000000931315 -9.313191992250541e-08 542.5000000931324
vertex 272.1124733044012 -9.313113347270662e-08 536.2500000537714
endloop
endfacet
facet normal -8.604228440844965e-16 -1.0 -9.436750582121064e-16
outer loop
vertex 272.1124733044012 -9.313113347270662e-08 536.2500000537714
vertex 707.5000000931315 -9.313191992250541e-08 542.5000000931324
vertex 273.361228574752 -9.3131680352736e-08 539.2647620111854
endloop
endfacet
facet normal -8.604228440844965e-16 -1.0 -9.436750582121064e-16
outer loop
vertex 273.361228574752 -9.3131680352736e-08 539.2647620111854
vertex 707.5000000931315 -9.313191992250541e-08 542.5000000931324
vertex 273.78715572605057 -9.313114397739044e-08 542.5000000931336
endloop
endfacet
facet normal -8.604228440844965e-16 -1.0 -9.436750582121064e-16
outer loop
vertex -9.023892744153272e-13 -1.7498642241091638e-12 299.9999999999976
vertex 270.12599052381086 -9.313148896487352e-08 533.6611652680965
vertex 267.5371557529365 -9.313166433443888e-08 531.6746824682178
endloop
endfacet
facet normal -8.604228440844965e-16 -1.0 -9.436750582121064e-16
outer loop
vertex -9.023892744153272e-13 -1.7498642241091638e-12 299.9999999999976
vertex 267.5371557529365 -9.313166433443888e-08 531.6746824682178
vertex 264.5223938048262 -9.313147945166926e-08 530.4259271754054
endloop
endfacet
facet normal -8.604228440844965e-16 -1.0 -9.436750582121064e-16
outer loop
vertex -9.023892744153272e-13 -1.7498642241091638e-12 299.9999999999976
vertex 264.5223938048262 -9.313147945166926e-08 530.4259271754054
vertex 261.2871557260516 -9.313129557246212e-08 530.0000000000013
endloop
endfacet
facet normal -8.604228440844965e-16 -1.0 -9.436750582121064e-16
outer loop
vertex -9.023892744153272e-13 -1.7498642241091638e-12 299.9999999999976
vertex 261.2871557260516 -9.313129557246212e-08 530.0000000000013
vertex 186.28715572605205 -9.313213343002323e-08 530.0000000000008
endloop
endfacet
facet normal -8.604228440844965e-16 -1.0 -9.436750582121064e-16
outer loop
vertex -9.023892744153272e-13 -1.7498642241091638e-12 299.9999999999976
vertex 186.28715572605205 -9.313213343002323e-08 530.0000000000008
vertex 183.0519176472771 -9.313213126402998e-08 530.4259271754048
endloop
endfacet
facet normal -8.604228440844965e-16 -1.0 -9.436750582121064e-16
outer loop
vertex -9.023892744153272e-13 -1.7498642241091638e-12 299.9999999999976
vertex 183.0519176472771 -9.313213126402998e-08 530.4259271754048
vertex 180.0371556991668 -9.313176952529485e-08 531.6746824682173
endloop
endfacet
facet normal -8.604228440844965e-16 -1.0 -9.436750582121064e-16
outer loop
vertex -9.023892744153272e-13 -1.7498642241091638e-12 299.9999999999976
vertex 180.0371556991668 -9.313176952529485e-08 531.6746824682173
vertex 177.44832092829316 -9.313177017859923e-08 533.661165268096
endloop
endfacet
facet normal -8.604228440844965e-16 -1.0 -9.436750582121064e-16
outer loop
vertex -9.023892744153272e-13 -1.7498642241091638e-12 299.9999999999976
vertex 177.44832092829316 -9.313177017859923e-08 533.661165268096
vertex 175.46183814770214 -9.313195270156666e-08 536.2500000537707
endloop
endfacet
facet normal -8.604228440844965e-16 -1.0 -9.436750582121064e-16
outer loop
vertex -9.023892744153272e-13 -1.7498642241091638e-12 299.9999999999976
vertex 175.46183814770214 -9.313195270156666e-08 536.2500000537707
vertex 174.21308287735167 -9.313213647697115e-08 539.2647620111849
endloop
endfacet
facet normal -8.604228440844965e-16 -1.0 -9.436750582121064e-16
outer loop
vertex -9.023892744153272e-13 -1.7498642241091638e-12 299.9999999999976
vertex 174.21308287735167 -9.313213647697115e-08 539.2647620111849
vertex 173.78715572605148 -9.313177984652556e-08 542.500000093133
endloop
endfacet
facet normal -8.604228440844965e-16 -1.0 -9.436750582121064e-16
outer loop
vertex -9.023892744153272e-13 -1.7498642241091638e-12 299.9999999999976
vertex 173.78715572605148 -9.313177984652556e-08 542.500000093133
vertex -9.023892744153272e-13 -4.551074114517054e-13 600.0000000000001
endloop
endfacet
facet normal 0.7071067811865486 0.7071067811865465 5.922600989256451e-16
outer loop
vertex 991.9999999999993 17.999999999998774 582.0000000000002
vertex 1009.9999999999991 -2.6188912966345033e-12 299.9999999999976
vertex 991.9999999999993 17.999999999997453 299.9999999999976
endloop
endfacet
facet normal 0.7071067811865486 0.7071067811865465 5.922600989256451e-16
outer loop
vertex 1009.9999999999991 -2.6188912966345033e-12 299.9999999999976
vertex 991.9999999999993 17.999999999998774 582.0000000000002
vertex 1009.9999999999993 -1.3241344839770462e-12 600.0000000000001
endloop
endfacet
facet normal 8.604228440844965e-16 1.0 9.209359001828989e-16
outer loop
vertex 17.999999999998973 17.999999999998284 299.9999999999976
vertex 991.9999999999993 17.999999999998774 582.0000000000002
vertex 991.9999999999993 17.999999999997453 299.9999999999976
endloop
endfacet
facet normal 8.604228440844965e-16 1.0 9.209359001828989e-16
outer loop
vertex 991.9999999999993 17.999999999998774 582.0000000000002
vertex 17.999999999998973 17.999999999998284 299.9999999999976
vertex 798.2352381719064 17.99999990686772 530.4259271754047
endloop
endfacet
facet normal 8.604228440844965e-16 1.0 9.209359001828989e-16
outer loop
vertex 991.9999999999993 17.999999999998774 582.0000000000002
vertex 798.2352381719064 17.99999990686772 530.4259271754047
vertex 801.2500001200171 17.999999906867707 531.6746824682172
endloop
endfacet
facet normal 8.604228440844965e-16 1.0 9.209359001828989e-16
outer loop
vertex 991.9999999999993 17.999999999998774 582.0000000000002
vertex 801.2500001200171 17.999999906867707 531.6746824682172
vertex 803.8388348908906 17.99999990686788 533.661165268096
endloop
endfacet
facet normal 8.604228440844965e-16 1.0 9.209359001828989e-16
outer loop
vertex 991.9999999999993 17.999999999998774 582.0000000000002
vertex 803.8388348908906 17.99999990686788 533.661165268096
vertex 805.825317671481 17.999999906867707 536.2500000537706
endloop
endfacet
facet normal 8.604228440844965e-16 1.0 9.209359001828989e-16
outer loop
vertex 991.9999999999993 17.999999999998774 582.0000000000002
vertex 805.825317671481 17.999999906867707 536.2500000537706
vertex 807.074072941832 17.999999906867334 539.2647620111849
endloop
endfacet
facet normal 8.604228440844965e-16 1.0 9.209359001828989e-16
outer loop
vertex 991.9999999999993 17.999999999998774 582.0000000000002
vertex 807.074072941832 17.999999906867334 539.2647620111849
vertex 807.500000093131 17.999999906867874 542.5000000931329
endloop
endfacet
facet normal 8.604228440844965e-16 1.0 9.209359001828989e-16
outer loop
vertex 798.2352381719064 17.99999990686772 530.4259271754047
vertex 17.999999999998973 17.999999999998284 299.9999999999976
vertex 795.0000000931313 17.999999906867725 530.0000000000006
endloop
endfacet
facet normal 8.604228440844965e-16 1.0 9.209359001828989e-16
outer loop
vertex 795.0000000931313 17.999999906867725 530.0000000000006
vertex 17.999999999998973 17.999999999998284 299.9999999999976
vertex 720.000000093132 17.999999906867068 530.0000000000002
endloop
endfacet
facet normal 8.604228440844965e-16 1.0 9.209359001828989e-16
outer loop
vertex 720.000000093132 17.999999906867068 530.0000000000002
vertex 17.999999999998973 17.999999999998284 299.9999999999976
vertex 716.7647620143568 17.99999990686743 530.4259271754042
endloop
endfacet
facet normal 8.604228440844965e-16 1.0 9.209359001828989e-16
outer loop
vertex 716.7647620143568 17.99999990686743 530.4259271754042
vertex 17.999999999998973 17.999999999998284 299.9999999999976
vertex 713.7500000662463 17.999999906867245 531.6746824682167
endloop
endfacet
facet normal 8.604228440844965e-16 1.0 9.209359001828989e-16
outer loop
vertex 713.7500000662463 17.999999906867245 531.6746824682167
vertex 17.999999999998973 17.999999999998284 299.9999999999976
vertex 711.1611652953729 17.999999906867608 533.6611652680955
endloop
endfacet
facet normal 8.604228440844965e-16 1.0 9.209359001828989e-16
outer loop
vertex 711.1611652953729 17.999999906867608 533.6611652680955
vertex 17.999999999998973 17.999999999998284 299.9999999999976
vertex 709.1746825147817 17.999999906867064 536.2500000537701
endloop
endfacet
facet normal 8.604228440844965e-16 1.0 9.209359001828989e-16
outer loop
vertex 709.1746825147817 17.999999906867064 536.2500000537701
vertex 17.999999999998973 17.999999999998284 299.9999999999976
vertex 707.9259272444316 17.99999990686724 539.2647620111844
endloop
endfacet
facet normal 8.604228440844965e-16 1.0 9.209359001828989e-16
outer loop
vertex 707.9259272444316 17.99999990686724 539.2647620111844
vertex 17.999999999998973 17.999999999998284 299.9999999999976
vertex 707.5000000931306 17.999999906867416 542.5000000931324
endloop
endfacet
facet normal 8.604228440844965e-16 1.0 9.209359001828989e-16
outer loop
vertex 707.5000000931306 17.999999906867416 542.5000000931324
vertex 17.999999999998973 17.999999999998284 299.9999999999976
vertex 270.1259905238105 17.999999906868023 533.6611652680966
endloop
endfacet
facet normal 8.604228440844965e-16 1.0 9.209359001828989e-16
outer loop
vertex 707.5000000931306 17.999999906867416 542.5000000931324
vertex 270.1259905238105 17.999999906868023 533.6611652680966
vertex 272.112473304401 17.999999906867842 536.2500000537711
endloop
endfacet
facet normal 8.604228440844965e-16 1.0 9.209359001828989e-16
outer loop
vertex 707.5000000931306 17.999999906867416 542.5000000931324
vertex 272.112473304401 17.999999906867842 536.2500000537711
vertex 273.361228574752 17.99999990686747 539.2647620111854
endloop
endfacet
facet normal 8.604228440844965e-16 1.0 9.209359001828989e-16
outer loop
vertex 707.5000000931306 17.999999906867416 542.5000000931324
vertex 273.361228574752 17.99999990686747 539.2647620111854
vertex 273.7871557260509 17.99999990686802 542.5000000931336
endloop
endfacet
facet normal 8.604228440844965e-16 1.0 9.209359001828989e-16
outer loop
vertex 270.1259905238105 17.999999906868023 533.6611652680966
vertex 17.999999999998973 17.999999999998284 299.9999999999976
vertex 267.53715575293705 17.999999906867853 531.6746824682178
endloop
endfacet
facet normal 8.604228440844965e-16 1.0 9.209359001828989e-16
outer loop
vertex 267.53715575293705 17.999999906867853 531.6746824682178
vertex 17.999999999998973 17.999999999998284 299.9999999999976
vertex 264.5223938048264 17.999999906867863 530.4259271754053
endloop
endfacet
facet normal 8.604228440844965e-16 1.0 9.209359001828989e-16
outer loop
vertex 264.5223938048264 17.999999906867863 530.4259271754053
vertex 17.999999999998973 17.999999999998284 299.9999999999976
vertex 261.28715572605125 17.999999906867867 530.0000000000013
endloop
endfacet
facet normal 8.604228440844965e-16 1.0 9.209359001828989e-16
outer loop
vertex 261.28715572605125 17.999999906867867 530.0000000000013
vertex 17.999999999998973 17.999999999998284 299.9999999999976
vertex 186.28715572605188 17.99999990686721 530.0000000000008
endloop
endfacet
facet normal 8.604228440844965e-16 1.0 9.209359001828989e-16
outer loop
vertex 186.28715572605188 17.99999990686721 530.0000000000008
vertex 17.999999999998973 17.999999999998284 299.9999999999976
vertex 183.05191764727672 17.999999906867572 530.4259271754048
endloop
endfacet
facet normal 8.604228440844965e-16 1.0 9.209359001828989e-16
outer loop
vertex 183.05191764727672 17.999999906867572 530.4259271754048
vertex 17.999999999998973 17.999999999998284 299.9999999999976
vertex 180.03715569916625 17.999999906867387 531.6746824682174
endloop
endfacet
facet normal 8.604228440844965e-16 1.0 9.209359001828989e-16
outer loop
vertex 180.03715569916625 17.999999906867387 531.6746824682174
vertex 17.999999999998973 17.999999999998284 299.9999999999976
vertex 177.4483209282928 17.99999990686775 533.661165268096
endloop
endfacet
facet normal 8.604228440844965e-16 1.0 9.209359001828989e-16
outer loop
vertex 177.4483209282928 17.99999990686775 533.661165268096
vertex 17.999999999998973 17.999999999998284 299.9999999999976
vertex 175.46183814770177 17.99999990686721 536.2500000537707
endloop
endfacet
facet normal 8.604228440844965e-16 1.0 9.209359001828989e-16
outer loop
vertex 175.46183814770177 17.99999990686721 536.2500000537707
vertex 17.999999999998973 17.999999999998284 299.9999999999976
vertex 174.21308287735167 17.99999990686738 539.264762011185
endloop
endfacet
facet normal 8.604228440844965e-16 1.0 9.209359001828989e-16
outer loop
vertex 174.21308287735167 17.99999990686738 539.264762011185
vertex 17.999999999998973 17.999999999998284 299.9999999999976
vertex 173.78715572605057 17.999999906867558 542.500000093133
endloop
endfacet
facet normal 8.604228440844965e-16 1.0 9.209359001828989e-16
outer loop
vertex 991.9999999999993 17.999999999998774 582.0000000000002
vertex 794.999999906867 17.999999906867323 555.0000000000007
vertex 17.999999999998973 17.9999999999996 582.0000000000001
endloop
endfacet
facet normal 8.604228440844965e-16 1.0 9.209359001828989e-16
outer loop
vertex 794.999999906867 17.999999906867323 555.0000000000007
vertex 991.9999999999993 17.999999999998774 582.0000000000002
vertex 798.2352379919886 17.99999990686804 554.5740728728055
endloop
endfacet
facet normal 8.604228440844965e-16 1.0 9.209359001828989e-16
outer loop
vertex 798.2352379919886 17.99999990686804 554.5740728728055
vertex 991.9999999999993 17.999999999998774 582.0000000000002
vertex 801.2499999587069 17.9999999068675 553.3253176249164
endloop
endfacet
facet normal 8.604228440844965e-16 1.0 9.209359001828989e-16
outer loop
vertex 801.2499999587069 17.9999999068675 553.3253176249164
vertex 991.9999999999993 17.999999999998774 582.0000000000002
vertex 803.8388347591822 17.9999999068675 551.3388348636141
endloop
endfacet
facet normal 8.604228440844965e-16 1.0 9.209359001828989e-16
outer loop
vertex 803.8388347591822 17.9999999068675 551.3388348636141
vertex 991.9999999999993 17.999999999998774 582.0000000000002
vertex 805.8253175783489 17.999999906867863 548.7500001075405
endloop
endfacet
facet normal 8.604228440844965e-16 1.0 9.209359001828989e-16
outer loop
vertex 805.8253175783489 17.999999906867863 548.7500001075405
vertex 991.9999999999993 17.999999999998774 582.0000000000002
vertex 807.0740728936233 17.999999906867686 545.735238168734
endloop
endfacet
facet normal 8.604228440844965e-16 1.0 9.209359001828989e-16
outer loop
vertex 807.0740728936233 17.999999906867686 545.735238168734
vertex 991.9999999999993 17.999999999998774 582.0000000000002
vertex 807.500000093131 17.999999906867874 542.5000000931329
endloop
endfacet
facet normal 8.604228440844965e-16 1.0 9.209359001828989e-16
outer loop
vertex 17.999999999998973 17.9999999999996 582.0000000000001
vertex 794.999999906867 17.999999906867323 555.0000000000007
vertex 720.000000093132 17.999999906867025 555.0000000000002
endloop
endfacet
facet normal 8.604228440844965e-16 1.0 9.209359001828989e-16
outer loop
vertex 17.999999999998973 17.9999999999996 582.0000000000001
vertex 720.000000093132 17.999999906867025 555.0000000000002
vertex 716.7647621942747 17.99999990686739 554.574072872805
endloop
endfacet
facet normal 8.604228440844965e-16 1.0 9.209359001828989e-16
outer loop
vertex 17.999999999998973 17.9999999999996 582.0000000000001
vertex 716.7647621942747 17.99999990686739 554.574072872805
vertex 713.7500002275563 17.99999990686704 553.3253176249158
endloop
endfacet
facet normal 8.604228440844965e-16 1.0 9.209359001828989e-16
outer loop
vertex 17.999999999998973 17.9999999999996 582.0000000000001
vertex 713.7500002275563 17.99999990686704 553.3253176249158
vertex 711.1611654270818 17.999999906867043 551.3388348636137
endloop
endfacet
facet normal 8.604228440844965e-16 1.0 9.209359001828989e-16
outer loop
vertex 17.999999999998973 17.9999999999996 582.0000000000001
vertex 711.1611654270818 17.999999906867043 551.3388348636137
vertex 709.1746826079143 17.999999906867764 548.75000010754
endloop
endfacet
facet normal 8.604228440844965e-16 1.0 9.209359001828989e-16
outer loop
vertex 17.999999999998973 17.9999999999996 582.0000000000001
vertex 709.1746826079143 17.999999906867764 548.75000010754
vertex 707.9259272926404 17.999999906867235 545.7352381687336
endloop
endfacet
facet normal 8.604228440844965e-16 1.0 9.209359001828989e-16
outer loop
vertex 17.999999999998973 17.9999999999996 582.0000000000001
vertex 707.9259272926404 17.999999906867235 545.7352381687336
vertex 707.5000000931306 17.999999906867416 542.5000000931324
endloop
endfacet
facet normal 8.604228440844965e-16 1.0 9.209359001828989e-16
outer loop
vertex 17.999999999998973 17.9999999999996 582.0000000000001
vertex 707.5000000931306 17.999999906867416 542.5000000931324
vertex 261.2871555397869 17.999999906867462 555.0000000000013
endloop
endfacet
facet normal 8.604228440844965e-16 1.0 9.209359001828989e-16
outer loop
vertex 261.2871555397869 17.999999906867462 555.0000000000013
vertex 707.5000000931306 17.999999906867416 542.5000000931324
vertex 264.52239362490855 17.999999906868183 554.574072872806
endloop
endfacet
facet normal 8.604228440844965e-16 1.0 9.209359001828989e-16
outer loop
vertex 264.52239362490855 17.999999906868183 554.574072872806
vertex 707.5000000931306 17.999999906867416 542.5000000931324
vertex 267.53715559162686 17.999999906867647 553.325317624917
endloop
endfacet
facet normal 8.604228440844965e-16 1.0 9.209359001828989e-16
outer loop
vertex 267.53715559162686 17.999999906867647 553.325317624917
vertex 707.5000000931306 17.999999906867416 542.5000000931324
vertex 270.1259903921021 17.99999990686764 551.3388348636148
endloop
endfacet
facet normal 8.604228440844965e-16 1.0 9.209359001828989e-16
outer loop
vertex 270.1259903921021 17.99999990686764 551.3388348636148
vertex 707.5000000931306 17.999999906867416 542.5000000931324
vertex 272.1124732112688 17.999999906868005 548.7500001075412
endloop
endfacet
facet normal 8.604228440844965e-16 1.0 9.209359001828989e-16
outer loop
vertex 272.1124732112688 17.999999906868005 548.7500001075412
vertex 707.5000000931306 17.999999906867416 542.5000000931324
vertex 273.3612285265433 17.999999906867828 545.7352381687347
endloop
endfacet
facet normal 8.604228440844965e-16 1.0 9.209359001828989e-16
outer loop
vertex 273.3612285265433 17.999999906867828 545.7352381687347
vertex 707.5000000931306 17.999999906867416 542.5000000931324
vertex 273.7871557260509 17.99999990686802 542.5000000931336
endloop
endfacet
facet normal 8.604228440844965e-16 1.0 9.209359001828989e-16
outer loop
vertex 17.999999999998973 17.9999999999996 582.0000000000001
vertex 261.2871555397869 17.999999906867462 555.0000000000013
vertex 186.28715572605188 17.999999906867167 555.0000000000008
endloop
endfacet
facet normal 8.604228440844965e-16 1.0 9.209359001828989e-16
outer loop
vertex 17.999999999998973 17.9999999999996 582.0000000000001
vertex 186.28715572605188 17.999999906867167 555.0000000000008
vertex 183.05191782719456 17.999999906867533 554.5740728728056
endloop
endfacet
facet normal 8.604228440844965e-16 1.0 9.209359001828989e-16
outer loop
vertex 17.999999999998973 17.9999999999996 582.0000000000001
vertex 183.05191782719456 17.999999906867533 554.5740728728056
vertex 180.0371558604761 17.99999990686718 553.3253176249165
endloop
endfacet
facet normal 8.604228440844965e-16 1.0 9.209359001828989e-16
outer loop
vertex 17.999999999998973 17.9999999999996 582.0000000000001
vertex 180.0371558604761 17.99999990686718 553.3253176249165
vertex 177.44832106000158 17.999999906867178 551.3388348636144
endloop
endfacet
facet normal 8.604228440844965e-16 1.0 9.209359001828989e-16
outer loop
vertex 17.999999999998973 17.9999999999996 582.0000000000001
vertex 177.44832106000158 17.999999906867178 551.3388348636144
vertex 175.46183824083428 17.999999906867906 548.7500001075406
endloop
endfacet
facet normal 8.604228440844965e-16 1.0 9.209359001828989e-16
outer loop
vertex 17.999999999998973 17.9999999999996 582.0000000000001
vertex 175.46183824083428 17.999999906867906 548.7500001075406
vertex 174.21308292556037 17.99999990686737 545.7352381687343
endloop
endfacet
facet normal 8.604228440844965e-16 1.0 9.209359001828989e-16
outer loop
vertex 17.999999999998973 17.9999999999996 582.0000000000001
vertex 174.21308292556037 17.99999990686737 545.7352381687343
vertex 173.78715572605057 17.999999906867558 542.500000093133
endloop
endfacet
facet normal 8.604228440844965e-16 1.0 9.209359001828989e-16
outer loop
vertex 17.999999999998973 17.9999999999996 582.0000000000001
vertex 173.78715572605057 17.999999906867558 542.500000093133
vertex 17.999999999998973 17.999999999998284 299.9999999999976
endloop
endfacet
facet normal -0.8660254062679684 -6.615495029366263e-15 0.4999999956984006
outer loop
vertex 272.1124733044012 -9.313113347270662e-08 536.2500000537714
vertex 270.1259905238105 17.999999906868023 533.6611652680966
vertex 270.12599052381086 -9.313148896487352e-08 533.6611652680965
endloop
endfacet
facet normal -0.7071067838207477 -4.708925894203427e-15 0.7071067785523474
outer loop
vertex 270.1259905238105 17.999999906868023 533.6611652680966
vertex 272.1124733044012 -9.313113347270662e-08 536.2500000537714
vertex 272.112473304401 17.999999906867842 536.2500000537711
endloop
endfacet
facet normal 0.9659258240392987 -8.631047832632678e-16 -0.25881905349877554
outer loop
vertex 174.21308292556037 17.99999990686737 545.7352381687343
vertex 173.78715572605148 -9.313177984652556e-08 542.500000093133
vertex 173.78715572605057 17.999999906867558 542.500000093133
endloop
endfacet
facet normal 1.0 1.7546298078570182e-14 -7.450515973901527e-09
outer loop
vertex 173.78715572605148 -9.313177984652556e-08 542.500000093133
vertex 174.21308292556037 17.99999990686737 545.7352381687343
vertex 174.21308292555983 -9.313142394903489e-08 545.7352381687342
endloop
endfacet
facet normal -0.7071067732840242 3.5421018345192123e-15 -0.707106789089071
outer loop
vertex 270.1259903921019 -9.313115364531658e-08 551.3388348636148
vertex 272.1124732112688 17.999999906868005 548.7500001075412
vertex 272.1124732112688 -9.313097112234923e-08 548.7500001075412
endloop
endfacet
facet normal -0.8660253988173853 -8.16359402723139e-16 -0.5000000086031888
outer loop
vertex 272.1124732112688 17.999999906868005 548.7500001075412
vertex 270.1259903921019 -9.313115364531658e-08 551.3388348636148
vertex 270.1259903921021 17.99999990686764 551.3388348636148
endloop
endfacet
facet normal 0.13052619283559388 1.9639369879893e-15 0.9914448612927729
outer loop
vertex 186.28715572605188 17.99999990686721 530.0000000000008
vertex 183.0519176472771 -9.313213126402998e-08 530.4259271754048
vertex 186.28715572605205 -9.313213343002323e-08 530.0000000000008
endloop
endfacet
facet normal 0.2588190463019468 4.660612352311024e-15 0.9659258259676832
outer loop
vertex 183.0519176472771 -9.313213126402998e-08 530.4259271754048
vertex 186.28715572605188 17.99999990686721 530.0000000000008
vertex 183.05191764727672 17.999999906867572 530.4259271754048
endloop
endfacet
facet normal -0.9659258240393565 -4.780162510138049e-16 -0.2588190534985598
outer loop
vertex 273.36122852654347 -9.313096782479966e-08 545.7352381687348
vertex 273.7871557260509 17.99999990686802 542.5000000931336
vertex 273.78715572605057 -9.313114397739044e-08 542.5000000931336
endloop
endfacet
facet normal -1.0 7.355241587366621e-15 -7.450560039340009e-09
outer loop
vertex 273.7871557260509 17.99999990686802 542.5000000931336
vertex 273.36122852654347 -9.313096782479966e-08 545.7352381687348
vertex 273.3612285265433 17.999999906867828 545.7352381687347
endloop
endfacet
facet normal -0.4999999892459963 1.3385743274347882e-15 -0.8660254099932656
outer loop
vertex 267.53715559162686 17.999999906867647 553.325317624917
vertex 270.1259903921019 -9.313115364531658e-08 551.3388348636148
vertex 267.53715559162686 -9.313169573218553e-08 553.325317624917
endloop
endfacet
facet normal -0.7071067732840242 3.5421018345192123e-15 -0.707106789089071
outer loop
vertex 270.1259903921019 -9.313115364531658e-08 551.3388348636148
vertex 267.53715559162686 17.999999906867647 553.325317624917
vertex 270.1259903921021 17.99999990686764 551.3388348636148
endloop
endfacet
facet normal 0.5000000021508287 9.361320252240776e-15 0.8660254025426573
outer loop
vertex 180.03715569916625 17.999999906867387 531.6746824682174
vertex 177.44832092829316 -9.313177017859923e-08 533.661165268096
vertex 180.0371556991668 -9.313176952529485e-08 531.6746824682173
endloop
endfacet
facet normal 0.7071067838207143 1.2945398334771601e-14 0.7071067785523807
outer loop
vertex 177.44832092829316 -9.313177017859923e-08 533.661165268096
vertex 180.03715569916625 17.999999906867387 531.6746824682174
vertex 177.4483209282928 17.99999990686775 533.661165268096
endloop
endfacet
facet normal -4.812742796881779e-15 -7.257520328033309e-29 1.0
outer loop
vertex 261.2871557260516 -9.313129557246212e-08 530.0000000000013
vertex 186.28715572605188 17.99999990686721 530.0000000000008
vertex 186.28715572605205 -9.313213343002323e-08 530.0000000000008
endloop
endfacet
facet normal -4.812742796881779e-15 -7.257520328033309e-29 1.0
outer loop
vertex 186.28715572605188 17.99999990686721 530.0000000000008
vertex 261.2871557260516 -9.313129557246212e-08 530.0000000000013
vertex 261.28715572605125 17.999999906867867 530.0000000000013
endloop
endfacet
facet normal -0.5000000021507996 5.578677855886145e-15 0.8660254025426741
outer loop
vertex 267.53715575293705 17.999999906867853 531.6746824682178
vertex 264.5223938048262 -9.313147945166926e-08 530.4259271754054
vertex 267.5371557529365 -9.313166433443888e-08 531.6746824682178
endloop
endfacet
facet normal -0.2588190463019749 5.962685137385975e-15 0.9659258259676756
outer loop
vertex 264.5223938048262 -9.313147945166926e-08 530.4259271754054
vertex 267.53715575293705 17.999999906867853 531.6746824682178
vertex 264.5223938048264 17.999999906867863 530.4259271754053
endloop
endfacet
facet normal -0.13052617806190592 1.2243922650845649e-18 -0.9914448632377656
outer loop
vertex 261.2871555397869 17.999999906867462 555.0000000000013
vertex 264.5223936249084 -9.31313339934503e-08 554.5740728728061
vertex 261.2871555397871 -9.313187326102161e-08 555.0000000000013
endloop
endfacet
facet normal -0.2588190319085353 -1.99622045226104e-16 -0.9659258298243859
outer loop
vertex 264.5223936249084 -9.31313339934503e-08 554.5740728728061
vertex 261.2871555397869 17.999999906867462 555.0000000000013
vertex 264.52239362490855 17.999999906868183 554.574072872806
endloop
endfacet
facet normal 0.7071067732840336 -4.782093275199951e-15 -0.7071067890890614
outer loop
vertex 177.4483210600012 -9.313233724831691e-08 551.3388348636144
vertex 180.0371558604761 17.99999990686718 553.3253176249165
vertex 180.03715586047628 -9.313234235660642e-08 553.3253176249165
endloop
endfacet
facet normal 0.49999998924601413 1.5636457860189638e-15 -0.8660254099932554
outer loop
vertex 180.0371558604761 17.99999990686718 553.3253176249165
vertex 177.4483210600012 -9.313233724831691e-08 551.3388348636144
vertex 177.44832106000158 17.999999906867178 551.3388348636144
endloop
endfacet
facet normal -0.2588190463019716 5.962685137385871e-15 0.9659258259676764
outer loop
vertex 264.5223938048264 17.999999906867863 530.4259271754053
vertex 261.2871557260516 -9.313129557246212e-08 530.0000000000013
vertex 264.5223938048262 -9.313147945166926e-08 530.4259271754054
endloop
endfacet
facet normal -0.13052619283564185 1.830648767606479e-15 0.9914448612927665
outer loop
vertex 261.2871557260516 -9.313129557246212e-08 530.0000000000013
vertex 264.5223938048264 17.999999906867863 530.4259271754053
vertex 261.28715572605125 17.999999906867867 530.0000000000013
endloop
endfacet
facet normal 0.2588190355068951 6.269888069166277e-15 -0.9659258288602085
outer loop
vertex 183.05191782719476 -9.313180532795644e-08 554.5740728728056
vertex 186.28715572605188 17.999999906867167 555.0000000000008
vertex 186.28715572605205 -9.313216968501824e-08 555.0000000000008
endloop
endfacet
facet normal 0.13052618544875833 6.277595667487926e-15 -0.9914448622652682
outer loop
vertex 186.28715572605188 17.999999906867167 555.0000000000008
vertex 183.05191782719476 -9.313180532795644e-08 554.5740728728056
vertex 183.05191782719456 17.999999906867533 554.5740728728056
endloop
endfacet
facet normal 6.0159285110429185e-15 5.013273746752065e-15 -1.0
outer loop
vertex 186.28715572605188 17.999999906867167 555.0000000000008
vertex 261.2871555397871 -9.313187326102161e-08 555.0000000000013
vertex 186.28715572605205 -9.313216968501824e-08 555.0000000000008
endloop
endfacet
facet normal 6.0159285110429185e-15 5.013273746752065e-15 -1.0
outer loop
vertex 261.2871555397871 -9.313187326102161e-08 555.0000000000013
vertex 186.28715572605188 17.999999906867167 555.0000000000008
vertex 261.2871555397869 17.999999906867462 555.0000000000013
endloop
endfacet
facet normal -0.9659258240393565 -4.780162510138049e-16 -0.2588190534985598
outer loop
vertex 273.36122852654347 -9.313096782479966e-08 545.7352381687348
vertex 272.1124732112688 17.999999906868005 548.7500001075412
vertex 273.3612285265433 17.999999906867828 545.7352381687347
endloop
endfacet
facet normal -0.8660253988173853 -8.16359402723139e-16 -0.5000000086031888
outer loop
vertex 272.1124732112688 17.999999906868005 548.7500001075412
vertex 273.36122852654347 -9.313096782479966e-08 545.7352381687348
vertex 272.1124732112688 -9.313097112234923e-08 548.7500001075412
endloop
endfacet
facet normal -1.0 7.355241587366905e-15 -7.450546066718868e-09
outer loop
vertex 273.78715572605057 -9.313114397739044e-08 542.5000000931336
vertex 273.361228574752 17.99999990686747 539.2647620111854
vertex 273.361228574752 -9.3131680352736e-08 539.2647620111854
endloop
endfacet
facet normal -0.9659258278960592 3.646256717790727e-15 0.25881903910514936
outer loop
vertex 273.361228574752 17.99999990686747 539.2647620111854
vertex 273.78715572605057 -9.313114397739044e-08 542.5000000931336
vertex 273.7871557260509 17.99999990686802 542.5000000931336
endloop
endfacet
facet normal 0.9659258278960089 1.655628879921174e-14 0.2588190391053368
outer loop
vertex 174.21308287735167 17.99999990686738 539.264762011185
vertex 173.78715572605148 -9.313177984652556e-08 542.500000093133
vertex 174.21308287735167 -9.313213647697115e-08 539.2647620111849
endloop
endfacet
facet normal 1.0 1.7546298078570182e-14 -7.450515973901527e-09
outer loop
vertex 173.78715572605148 -9.313177984652556e-08 542.500000093133
vertex 174.21308287735167 17.99999990686738 539.264762011185
vertex 173.78715572605057 17.999999906867558 542.500000093133
endloop
endfacet
facet normal 0.9659258240392987 -8.631047832632678e-16 -0.25881905349877554
outer loop
vertex 174.21308292556037 17.99999990686737 545.7352381687343
vertex 175.46183824083428 -9.313233178477407e-08 548.7500001075405
vertex 174.21308292555983 -9.313142394903489e-08 545.7352381687342
endloop
endfacet
facet normal 0.8660253988173899 -9.282687634131637e-15 -0.5000000086031807
outer loop
vertex 175.46183824083428 -9.313233178477407e-08 548.7500001075405
vertex 174.21308292556037 17.99999990686737 545.7352381687343
vertex 175.46183824083428 17.999999906867906 548.7500001075406
endloop
endfacet
facet normal -0.2588190319085353 -1.99622045226104e-16 -0.9659258298243859
outer loop
vertex 264.5223936249084 -9.31313339934503e-08 554.5740728728061
vertex 267.53715559162686 17.999999906867647 553.325317624917
vertex 267.53715559162686 -9.313169573218553e-08 553.325317624917
endloop
endfacet
facet normal -0.4999999892459963 1.3385743274347882e-15 -0.8660254099932656
outer loop
vertex 267.53715559162686 17.999999906867647 553.325317624917
vertex 264.5223936249084 -9.31313339934503e-08 554.5740728728061
vertex 264.52239362490855 17.999999906868183 554.574072872806
endloop
endfacet
facet normal 0.8660253988173965 -9.282687634131918e-15 -0.5000000086031693
outer loop
vertex 175.46183824083428 17.999999906867906 548.7500001075406
vertex 177.4483210600012 -9.313233724831691e-08 551.3388348636144
vertex 175.46183824083428 -9.313233178477407e-08 548.7500001075405
endloop
endfacet
facet normal 0.7071067732840336 -4.782093275199951e-15 -0.7071067890890614
outer loop
vertex 177.4483210600012 -9.313233724831691e-08 551.3388348636144
vertex 175.46183824083428 17.999999906867906 548.7500001075406
vertex 177.44832106000158 17.999999906867178 551.3388348636144
endloop
endfacet
facet normal -0.8660254062679684 -6.615495029366263e-15 0.4999999956984006
outer loop
vertex 272.1124733044012 -9.313113347270662e-08 536.2500000537714
vertex 273.361228574752 17.99999990686747 539.2647620111854
vertex 272.112473304401 17.999999906867842 536.2500000537711
endloop
endfacet
facet normal -0.9659258278960592 3.646256717790727e-15 0.25881903910514936
outer loop
vertex 273.361228574752 17.99999990686747 539.2647620111854
vertex 272.1124733044012 -9.313113347270662e-08 536.2500000537714
vertex 273.361228574752 -9.3131680352736e-08 539.2647620111854
endloop
endfacet
facet normal 0.49999998924601413 1.5636457860189638e-15 -0.8660254099932554
outer loop
vertex 180.0371558604761 17.99999990686718 553.3253176249165
vertex 183.05191782719476 -9.313180532795644e-08 554.5740728728056
vertex 180.03715586047628 -9.313234235660642e-08 553.3253176249165
endloop
endfacet
facet normal 0.2588190355068951 6.269888069166277e-15 -0.9659258288602085
outer loop
vertex 183.05191782719476 -9.313180532795644e-08 554.5740728728056
vertex 180.0371558604761 17.99999990686718 553.3253176249165
vertex 183.05191782719456 17.999999906867533 554.5740728728056
endloop
endfacet
facet normal 0.7071067838207132 1.2945398334771583e-14 0.7071067785523818
outer loop
vertex 177.4483209282928 17.99999990686775 533.661165268096
vertex 175.46183814770214 -9.313195270156666e-08 536.2500000537707
vertex 177.44832092829316 -9.313177017859923e-08 533.661165268096
endloop
endfacet
facet normal 0.8660254062679761 1.144208875909638e-14 0.499999995698387
outer loop
vertex 175.46183814770214 -9.313195270156666e-08 536.2500000537707
vertex 177.4483209282928 17.99999990686775 533.661165268096
vertex 175.46183814770177 17.99999990686721 536.2500000537707
endloop
endfacet
facet normal 0.9659258278960089 1.655628879921174e-14 0.2588190391053368
outer loop
vertex 174.21308287735167 17.99999990686738 539.264762011185
vertex 175.46183814770214 -9.313195270156666e-08 536.2500000537707
vertex 175.46183814770177 17.99999990686721 536.2500000537707
endloop
endfacet
facet normal 0.8660254062679761 1.144208875909638e-14 0.499999995698387
outer loop
vertex 175.46183814770214 -9.313195270156666e-08 536.2500000537707
vertex 174.21308287735167 17.99999990686738 539.264762011185
vertex 174.21308287735167 -9.313213647697115e-08 539.2647620111849
endloop
endfacet
facet normal 0.2588190463019565 4.6606123523112285e-15 0.9659258259676805
outer loop
vertex 183.05191764727672 17.999999906867572 530.4259271754048
vertex 180.0371556991668 -9.313176952529485e-08 531.6746824682173
vertex 183.0519176472771 -9.313213126402998e-08 530.4259271754048
endloop
endfacet
facet normal 0.5000000021508186 9.361320252240596e-15 0.8660254025426628
outer loop
vertex 180.0371556991668 -9.313176952529485e-08 531.6746824682173
vertex 183.05191764727672 17.999999906867572 530.4259271754048
vertex 180.03715569916625 17.999999906867387 531.6746824682174
endloop
endfacet
facet normal -0.7071067838207439 -4.7089258942032e-15 0.7071067785523513
outer loop
vertex 270.12599052381086 -9.313148896487352e-08 533.6611652680965
vertex 267.53715575293705 17.999999906867853 531.6746824682178
vertex 267.5371557529365 -9.313166433443888e-08 531.6746824682178
endloop
endfacet
facet normal -0.5000000021507996 5.578677855886145e-15 0.8660254025426741
outer loop
vertex 267.53715575293705 17.999999906867853 531.6746824682178
vertex 270.12599052381086 -9.313148896487352e-08 533.6611652680965
vertex 270.1259905238105 17.999999906868023 533.6611652680966
endloop
endfacet
facet normal -1.0 7.354924703844457e-15 -7.450546066718868e-09
outer loop
vertex 807.5000000931307 -9.313128405337029e-08 542.5000000931329
vertex 807.074072941832 17.999999906867334 539.2647620111849
vertex 807.074072941832 -9.313182042871586e-08 539.2647620111849
endloop
endfacet
facet normal -0.9659258278960592 3.647935075975126e-15 0.2588190391051494
outer loop
vertex 807.074072941832 17.999999906867334 539.2647620111849
vertex 807.5000000931307 -9.313128405337029e-08 542.5000000931329
vertex 807.500000093131 17.999999906867874 542.5000000931329
endloop
endfacet
facet normal 0.9659258240392986 -8.609201180038206e-16 -0.2588190534987755
outer loop
vertex 707.9259272926404 17.999999906867235 545.7352381687336
vertex 707.5000000931315 -9.313191992250541e-08 542.5000000931324
vertex 707.5000000931306 17.999999906867416 542.5000000931324
endloop
endfacet
facet normal 1.0 1.7546321057930784e-14 -7.450515964990417e-09
outer loop
vertex 707.5000000931315 -9.313191992250541e-08 542.5000000931324
vertex 707.9259272926404 17.999999906867235 545.7352381687336
vertex 707.9259272926398 -9.313156402501473e-08 545.7352381687335
endloop
endfacet
facet normal -0.5000000021507995 5.574905373435613e-15 0.866025402542674
outer loop
vertex 801.2500001200171 17.999999906867707 531.6746824682172
vertex 798.2352381719063 -9.313161952764911e-08 530.4259271754047
vertex 801.2500001200166 -9.313180441041872e-08 531.6746824682172
endloop
endfacet
facet normal -0.2588190463019749 5.95986291526852e-15 0.9659258259676756
outer loop
vertex 798.2352381719063 -9.313161952764911e-08 530.4259271754047
vertex 801.2500001200171 17.999999906867707 531.6746824682172
vertex 798.2352381719064 17.99999990686772 530.4259271754047
endloop
endfacet
facet normal -0.4999999892459963 1.3403282871581486e-15 -0.8660254099932657
outer loop
vertex 801.2499999587069 17.9999999068675 553.3253176249164
vertex 803.838834759182 -9.313129372129642e-08 551.3388348636141
vertex 801.2499999587069 -9.313183580816537e-08 553.3253176249164
endloop
endfacet
facet normal -0.7071067732840242 3.5470826558106997e-15 -0.707106789089071
outer loop
vertex 803.838834759182 -9.313129372129642e-08 551.3388348636141
vertex 801.2499999587069 17.9999999068675 553.3253176249164
vertex 803.8388347591822 17.9999999068675 551.3388348636141
endloop
endfacet
facet normal 0.965925827896009 1.6558450485236328e-14 0.25881903910533677
outer loop
vertex 707.9259272444316 17.99999990686724 539.2647620111844
vertex 709.174682514782 -9.313209277754651e-08 536.2500000537701
vertex 709.1746825147817 17.999999906867064 536.2500000537701
endloop
endfacet
facet normal 0.8660254062679681 1.0440984821314225e-14 0.4999999956984012
outer loop
vertex 709.174682514782 -9.313209277754651e-08 536.2500000537701
vertex 707.9259272444316 17.99999990686724 539.2647620111844
vertex 707.9259272444316 -9.313227655295101e-08 539.2647620111843
endloop
endfacet
facet normal 0.5000000021508286 6.855246227222176e-15 0.8660254025426574
outer loop
vertex 713.7500000662463 17.999999906867245 531.6746824682167
vertex 711.1611652953732 -9.313191025457908e-08 533.6611652680954
vertex 713.7500000662468 -9.313190960127473e-08 531.6746824682167
endloop
endfacet
facet normal 0.707106783820703 1.0402415918860526e-14 0.7071067785523921
outer loop
vertex 711.1611652953732 -9.313191025457908e-08 533.6611652680954
vertex 713.7500000662463 17.999999906867245 531.6746824682167
vertex 711.1611652953729 17.999999906867608 533.6611652680955
endloop
endfacet
facet normal 6.015928511042922e-15 5.013273746752049e-15 -1.0
outer loop
vertex 720.000000093132 17.999999906867025 555.0000000000002
vertex 794.9999999068672 -9.313201333700148e-08 555.0000000000006
vertex 720.0000000931321 -9.313230976099809e-08 555.0000000000001
endloop
endfacet
facet normal 6.015928511042922e-15 5.013273746752049e-15 -1.0
outer loop
vertex 794.9999999068672 -9.313201333700148e-08 555.0000000000006
vertex 720.000000093132 17.999999906867025 555.0000000000002
vertex 794.999999906867 17.999999906867323 555.0000000000007
endloop
endfacet
facet normal 0.707106773284022 -7.32083374182646e-15 -0.7071067890890729
outer loop
vertex 711.1611654270813 -9.313247732429677e-08 551.3388348636137
vertex 713.7500002275563 17.99999990686704 553.3253176249158
vertex 713.7500002275564 -9.31324824325863e-08 553.3253176249158
endloop
endfacet
facet normal 0.49999998924601374 -9.41916640735403e-16 -0.8660254099932554
outer loop
vertex 713.7500002275563 17.99999990686704 553.3253176249158
vertex 711.1611654270813 -9.313247732429677e-08 551.3388348636137
vertex 711.1611654270818 17.999999906867043 551.3388348636137
endloop
endfacet
facet normal 0.965925827896009 1.6558450485236328e-14 0.25881903910533677
outer loop
vertex 707.9259272444316 17.99999990686724 539.2647620111844
vertex 707.5000000931315 -9.313191992250541e-08 542.5000000931324
vertex 707.9259272444316 -9.313227655295101e-08 539.2647620111843
endloop
endfacet
facet normal 1.0 1.7546321057930784e-14 -7.450515964990417e-09
outer loop
vertex 707.5000000931315 -9.313191992250541e-08 542.5000000931324
vertex 707.9259272444316 17.99999990686724 539.2647620111844
vertex 707.5000000931306 17.999999906867416 542.5000000931324
endloop
endfacet
facet normal -4.812742796881782e-15 -6.015064402310215e-29 1.0
outer loop
vertex 795.0000000931317 -9.3131435648442e-08 530.0000000000006
vertex 720.000000093132 17.999999906867068 530.0000000000002
vertex 720.0000000931321 -9.313227350600311e-08 530.0000000000002
endloop
endfacet
facet normal -4.812742796881782e-15 -6.015064402310215e-29 1.0
outer loop
vertex 720.000000093132 17.999999906867068 530.0000000000002
vertex 795.0000000931317 -9.3131435648442e-08 530.0000000000006
vertex 795.0000000931313 17.999999906867725 530.0000000000006
endloop
endfacet
facet normal 0.8660253988173883 -1.0281670606451855e-14 -0.5000000086031835
outer loop
vertex 709.1746826079143 17.999999906867764 548.75000010754
vertex 711.1611654270813 -9.313247732429677e-08 551.3388348636137
vertex 709.1746826079143 -9.313247186075393e-08 548.7500001075399
endloop
endfacet
facet normal 0.707106773284022 -7.32083374182646e-15 -0.7071067890890729
outer loop
vertex 711.1611654270813 -9.313247732429677e-08 551.3388348636137
vertex 709.1746826079143 17.999999906867764 548.75000010754
vertex 711.1611654270818 17.999999906867043 551.3388348636137
endloop
endfacet
facet normal 0.25881904630195607 3.3636679398136206e-15 0.9659258259676806
outer loop
vertex 716.7647620143568 17.99999990686743 530.4259271754042
vertex 713.7500000662468 -9.313190960127473e-08 531.6746824682167
vertex 716.7647620143572 -9.313227134000984e-08 530.4259271754042
endloop
endfacet
facet normal 0.500000002150819 6.855246227222057e-15 0.8660254025426628
outer loop
vertex 713.7500000662468 -9.313190960127473e-08 531.6746824682167
vertex 716.7647620143568 17.99999990686743 530.4259271754042
vertex 713.7500000662463 17.999999906867245 531.6746824682167
endloop
endfacet
facet normal -0.8660254062679683 -6.611860441521396e-15 0.4999999956984004
outer loop
vertex 805.8253176714812 -9.313127354868649e-08 536.2500000537707
vertex 807.074072941832 17.999999906867334 539.2647620111849
vertex 805.825317671481 17.999999906867707 536.2500000537706
endloop
endfacet
facet normal -0.9659258278960592 3.647935075975126e-15 0.2588190391051494
outer loop
vertex 807.074072941832 17.999999906867334 539.2647620111849
vertex 805.8253176714812 -9.313127354868649e-08 536.2500000537707
vertex 807.074072941832 -9.313182042871586e-08 539.2647620111849
endloop
endfacet
facet normal -0.2588190463019716 5.9598629152684155e-15 0.9659258259676766
outer loop
vertex 798.2352381719064 17.99999990686772 530.4259271754047
vertex 795.0000000931317 -9.3131435648442e-08 530.0000000000006
vertex 798.2352381719063 -9.313161952764911e-08 530.4259271754047
endloop
endfacet
facet normal -0.13052619283564182 1.829792595147173e-15 0.9914448612927665
outer loop
vertex 795.0000000931317 -9.3131435648442e-08 530.0000000000006
vertex 798.2352381719064 17.99999990686772 530.4259271754047
vertex 795.0000000931313 17.999999906867725 530.0000000000006
endloop
endfacet
facet normal 0.2588190355068954 4.971789050034473e-15 -0.9659258288602084
outer loop
vertex 716.7647621942748 -9.31319454039363e-08 554.5740728728049
vertex 720.000000093132 17.999999906867025 555.0000000000002
vertex 720.0000000931321 -9.313230976099809e-08 555.0000000000001
endloop
endfacet
facet normal 0.1305261854487583 5.622979521616179e-15 -0.9914448622652682
outer loop
vertex 720.000000093132 17.999999906867025 555.0000000000002
vertex 716.7647621942748 -9.31319454039363e-08 554.5740728728049
vertex 716.7647621942747 17.99999990686739 554.574072872805
endloop
endfacet
facet normal 0.49999998924601374 -9.41916640735403e-16 -0.8660254099932554
outer loop
vertex 713.7500002275563 17.99999990686704 553.3253176249158
vertex 716.7647621942748 -9.31319454039363e-08 554.5740728728049
vertex 713.7500002275564 -9.31324824325863e-08 553.3253176249158
endloop
endfacet
facet normal 0.2588190355068954 4.971789050034473e-15 -0.9659258288602084
outer loop
vertex 716.7647621942748 -9.31319454039363e-08 554.5740728728049
vertex 713.7500002275563 17.99999990686704 553.3253176249158
vertex 716.7647621942747 17.99999990686739 554.574072872805
endloop
endfacet
facet normal -0.9659258240393565 -4.781259396364798e-16 -0.25881905349855977
outer loop
vertex 807.0740728936236 -9.313110790077952e-08 545.7352381687341
vertex 805.8253175783489 17.999999906867863 548.7500001075405
vertex 807.0740728936233 17.999999906867686 545.735238168734
endloop
endfacet
facet normal -0.8660253988173853 -8.125802754189611e-16 -0.5000000086031888
outer loop
vertex 805.8253175783489 17.999999906867863 548.7500001075405
vertex 807.0740728936236 -9.313110790077952e-08 545.7352381687341
vertex 805.8253175783489 -9.313111119832909e-08 548.7500001075405
endloop
endfacet
facet normal -0.13052617806190592 1.2243922650845649e-18 -0.9914448632377656
outer loop
vertex 794.999999906867 17.999999906867323 555.0000000000007
vertex 798.2352379919885 -9.313147406943015e-08 554.5740728728056
vertex 794.9999999068672 -9.313201333700148e-08 555.0000000000006
endloop
endfacet
facet normal -0.2588190319085353 -1.9934591231465548e-16 -0.9659258298243859
outer loop
vertex 798.2352379919885 -9.313147406943015e-08 554.5740728728056
vertex 794.999999906867 17.999999906867323 555.0000000000007
vertex 798.2352379919886 17.99999990686804 554.5740728728055
endloop
endfacet
facet normal -0.7071067732840242 3.5470826558106997e-15 -0.707106789089071
outer loop
vertex 803.838834759182 -9.313129372129642e-08 551.3388348636141
vertex 805.8253175783489 17.999999906867863 548.7500001075405
vertex 805.8253175783489 -9.313111119832909e-08 548.7500001075405
endloop
endfacet
facet normal -0.8660253988173853 -8.125802754189611e-16 -0.5000000086031888
outer loop
vertex 805.8253175783489 17.999999906867863 548.7500001075405
vertex 803.838834759182 -9.313129372129642e-08 551.3388348636141
vertex 803.8388347591822 17.9999999068675 551.3388348636141
endloop
endfacet
facet normal -0.2588190319085353 -1.9934591231465548e-16 -0.9659258298243859
outer loop
vertex 798.2352379919885 -9.313147406943015e-08 554.5740728728056
vertex 801.2499999587069 17.9999999068675 553.3253176249164
vertex 801.2499999587069 -9.313183580816537e-08 553.3253176249164
endloop
endfacet
facet normal -0.4999999892459963 1.3403282871581486e-15 -0.8660254099932657
outer loop
vertex 801.2499999587069 17.9999999068675 553.3253176249164
vertex 798.2352379919885 -9.313147406943015e-08 554.5740728728056
vertex 798.2352379919886 17.99999990686804 554.5740728728055
endloop
endfacet
facet normal -0.8660254062679683 -6.611860441521396e-15 0.4999999956984004
outer loop
vertex 805.8253176714812 -9.313127354868649e-08 536.2500000537707
vertex 803.8388348908906 17.99999990686788 533.661165268096
vertex 803.8388348908909 -9.313162904085339e-08 533.6611652680959
endloop
endfacet
facet normal -0.7071067838207477 -4.708282767120111e-15 0.7071067785523474
outer loop
vertex 803.8388348908906 17.99999990686788 533.661165268096
vertex 805.8253176714812 -9.313127354868649e-08 536.2500000537707
vertex 805.825317671481 17.999999906867707 536.2500000537706
endloop
endfacet
facet normal 0.7071067838207014 1.0402415918860486e-14 0.7071067785523938
outer loop
vertex 711.1611652953729 17.999999906867608 533.6611652680955
vertex 709.174682514782 -9.313209277754651e-08 536.2500000537701
vertex 711.1611652953732 -9.313191025457908e-08 533.6611652680954
endloop
endfacet
facet normal 0.8660254062679681 1.0440984821314225e-14 0.4999999956984012
outer loop
vertex 709.174682514782 -9.313209277754651e-08 536.2500000537701
vertex 711.1611652953729 17.999999906867608 533.6611652680955
vertex 709.1746825147817 17.999999906867064 536.2500000537701
endloop
endfacet
facet normal -0.9659258240393565 -4.781259396364798e-16 -0.25881905349855977
outer loop
vertex 807.0740728936236 -9.313110790077952e-08 545.7352381687341
vertex 807.500000093131 17.999999906867874 542.5000000931329
vertex 807.5000000931307 -9.313128405337029e-08 542.5000000931329
endloop
endfacet
facet normal -1.0 7.354924703844173e-15 -7.450560003695558e-09
outer loop
vertex 807.500000093131 17.999999906867874 542.5000000931329
vertex 807.0740728936236 -9.313110790077952e-08 545.7352381687341
vertex 807.0740728936233 17.999999906867686 545.735238168734
endloop
endfacet
facet normal 0.9659258240392986 -8.609201180038206e-16 -0.2588190534987755
outer loop
vertex 707.9259272926404 17.999999906867235 545.7352381687336
vertex 709.1746826079143 -9.313247186075393e-08 548.7500001075399
vertex 707.9259272926398 -9.313156402501473e-08 545.7352381687335
endloop
endfacet
facet normal 0.8660253988173818 -1.0281670606451676e-14 -0.500000008603195
outer loop
vertex 709.1746826079143 -9.313247186075393e-08 548.7500001075399
vertex 707.9259272926404 17.999999906867235 545.7352381687336
vertex 709.1746826079143 17.999999906867764 548.75000010754
endloop
endfacet
facet normal -0.7071067838207439 -4.70828276711988e-15 0.7071067785523513
outer loop
vertex 803.8388348908909 -9.313162904085339e-08 533.6611652680959
vertex 801.2500001200171 17.999999906867707 531.6746824682172
vertex 801.2500001200166 -9.313180441041872e-08 531.6746824682172
endloop
endfacet
facet normal -0.5000000021507995 5.574905373435613e-15 0.866025402542674
outer loop
vertex 801.2500001200171 17.999999906867707 531.6746824682172
vertex 803.8388348908909 -9.313162904085339e-08 533.6611652680959
vertex 803.8388348908906 17.99999990686788 533.661165268096
endloop
endfacet
facet normal 0.13052619283559388 1.3084190671749402e-15 0.9914448612927729
outer loop
vertex 720.000000093132 17.999999906867068 530.0000000000002
vertex 716.7647620143572 -9.313227134000984e-08 530.4259271754042
vertex 720.0000000931321 -9.313227350600311e-08 530.0000000000002
endloop
endfacet
facet normal 0.2588190463019472 3.363667939813478e-15 0.965925825967683
outer loop
vertex 716.7647620143572 -9.313227134000984e-08 530.4259271754042
vertex 720.000000093132 17.999999906867068 530.0000000000002
vertex 716.7647620143568 17.99999990686743 530.4259271754042
endloop
endfacet
facet normal 0.7071067811865471 -6.630046164982285e-16 0.707106781186548
outer loop
vertex 17.99999999999912 17.999999999999588 582.0000000000001
vertex 2.3822022785763613e-13 499.99999999999983 600.0000000000001
vertex -9.798221058039927e-13 -4.51194637207663e-13 600.0000000000001
endloop
endfacet
facet normal 0.7071067811865471 -6.630046164982285e-16 0.707106781186548
outer loop
vertex 2.3822022785763613e-13 499.99999999999983 600.0000000000001
vertex 17.99999999999912 17.999999999999588 582.0000000000001
vertex 17.99999999999958 481.99999999999983 582.0
endloop
endfacet
facet normal -1.0 9.58523193933179e-16 -1.4071338780938047e-15
outer loop
vertex 2.3822022785763613e-13 499.99999999999983 600.0000000000001
vertex 3.934181412018954e-14 -4.5119463720766377e-13 -165.0
vertex -9.798221058039927e-13 -4.51194637207663e-13 600.0000000000001
endloop
endfacet
facet normal -1.0 9.58523193933179e-16 -1.4071338780938047e-15
outer loop
vertex 3.934181412018954e-14 -4.5119463720766377e-13 -165.0
vertex 2.3822022785763613e-13 499.99999999999983 600.0000000000001
vertex 5.354727282495566e-13 499.99999999999983 -165.0
endloop
endfacet
facet normal 0.7071067811865445 -0.7071067811865507 1.2077897636388823e-15
outer loop
vertex 17.999999999999932 17.999999999999137 -164.99999999999983
vertex -9.798221058039927e-13 -4.51194637207663e-13 600.0000000000001
vertex 3.934181412018954e-14 -4.5119463720766377e-13 -165.0
endloop
endfacet
facet normal 0.7071067811865445 -0.7071067811865507 1.2077897636388823e-15
outer loop
vertex -9.798221058039927e-13 -4.51194637207663e-13 600.0000000000001
vertex 17.999999999999932 17.999999999999137 -164.99999999999983
vertex 17.99999999999912 17.999999999999588 582.0000000000001
endloop
endfacet
facet normal 0.707106781186554 0.7071067811865411 7.052643172925449e-16
outer loop
vertex 5.354727282495566e-13 499.99999999999983 -165.0
vertex 17.99999999999958 481.99999999999983 582.0
vertex 18.000000000000394 481.9999999999994 -164.99999999999983
endloop
endfacet
facet normal 0.707106781186554 0.7071067811865411 7.052643172925449e-16
outer loop
vertex 17.99999999999958 481.99999999999983 582.0
vertex 5.354727282495566e-13 499.99999999999983 -165.0
vertex 2.3822022785763613e-13 499.99999999999983 600.0000000000001
endloop
endfacet
facet normal 5.52934604421159e-15 -4.932962887536208e-30 -1.0
outer loop
vertex 18.000000000000394 481.9999999999994 -164.99999999999983
vertex 3.934181412018954e-14 -4.5119463720766377e-13 -165.0
vertex 5.354727282495566e-13 499.99999999999983 -165.0
endloop
endfacet
facet normal 5.52934604421159e-15 -4.932962887536208e-30 -1.0
outer loop
vertex 3.934181412018954e-14 -4.5119463720766377e-13 -165.0
vertex 18.000000000000394 481.9999999999994 -164.99999999999983
vertex 17.999999999999932 17.999999999999137 -164.99999999999983
endloop
endfacet
facet normal 1.0 -1.1693440904242749e-15 1.2942692641622575e-15
outer loop
vertex 18.000000000000394 481.9999999999994 -164.99999999999983
vertex 17.99999999999912 17.999999999999588 582.0000000000001
vertex 17.999999999999932 17.999999999999137 -164.99999999999983
endloop
endfacet
facet normal 1.0 -1.1693440904242749e-15 1.2942692641622575e-15
outer loop
vertex 17.99999999999912 17.999999999999588 582.0000000000001
vertex 18.000000000000394 481.9999999999994 -164.99999999999983
vertex 17.99999999999958 481.99999999999983 582.0
endloop
endfacet
facet normal -6.112414467494416e-16 0.7071067811865466 -0.7071067811865485
outer loop
vertex 991.9999999999997 481.99999999999983 582.0000000000002
vertex -9.023892744153272e-14 500.00000000000006 600.0000000000013
vertex 1009.9999999999997 499.99999999999983 599.9999999999999
endloop
endfacet
facet normal -6.112414467494416e-16 0.7071067811865466 -0.7071067811865485
outer loop
vertex -9.023892744153272e-14 500.00000000000006 600.0000000000013
vertex 991.9999999999997 481.99999999999983 582.0000000000002
vertex 17.999999999999698 482.0 582.0000000000011
endloop
endfacet
facet normal -1.0191254639187473e-15 -5.8170760935890546e-33 -1.0
outer loop
vertex 17.999999999999698 17.999999999999996 582.0000000000011
vertex 991.9999999999997 481.99999999999983 582.0000000000002
vertex 991.9999999999997 17.999999999999815 582.0000000000002
endloop
endfacet
facet normal -1.0191254639187473e-15 -5.8170760935890546e-33 -1.0
outer loop
vertex 991.9999999999997 481.99999999999983 582.0000000000002
vertex 17.999999999999698 17.999999999999996 582.0000000000011
vertex 17.999999999999698 482.0 582.0000000000011
endloop
endfacet
facet normal 1.161491145287055e-15 -3.7345220363857654e-33 1.0
outer loop
vertex -9.023892744153272e-14 500.00000000000006 600.0000000000013
vertex 1009.9999999999997 -1.8047785488306544e-13 599.9999999999999
vertex 1009.9999999999997 499.99999999999983 599.9999999999999
endloop
endfacet
facet normal 1.161491145287055e-15 -3.7345220363857654e-33 1.0
outer loop
vertex 1009.9999999999997 -1.8047785488306544e-13 599.9999999999999
vertex -9.023892744153272e-14 500.00000000000006 600.0000000000013
vertex -9.023892744153272e-14 0.0 600.0000000000013
endloop
endfacet
facet normal -0.7071067811865512 1.0973138016949394e-31 -0.7071067811865439
outer loop
vertex -9.023892744153272e-14 500.00000000000006 600.0000000000013
vertex 17.999999999999698 17.999999999999996 582.0000000000011
vertex -9.023892744153272e-14 0.0 600.0000000000013
endloop
endfacet
facet normal -0.7071067811865512 1.0973138016949394e-31 -0.7071067811865439
outer loop
vertex 17.999999999999698 17.999999999999996 582.0000000000011
vertex -9.023892744153272e-14 500.00000000000006 600.0000000000013
vertex 17.999999999999698 482.0 582.0000000000011
endloop
endfacet
facet normal 0.7071067811865439 -2.1176231260779378e-32 -0.7071067811865511
outer loop
vertex 991.9999999999997 17.999999999999815 582.0000000000002
vertex 1009.9999999999997 499.99999999999983 599.9999999999999
vertex 1009.9999999999997 -1.8047785488306544e-13 599.9999999999999
endloop
endfacet
facet normal 0.7071067811865439 -2.1176231260779378e-32 -0.7071067811865511
outer loop
vertex 1009.9999999999997 499.99999999999983 599.9999999999999
vertex 991.9999999999997 17.999999999999815 582.0000000000002
vertex 991.9999999999997 481.99999999999983 582.0000000000002
endloop
endfacet
facet normal -9.026616112602852e-16 -0.707106781186547 -0.707106781186548
outer loop
vertex -9.023892744153272e-14 0.0 600.0000000000013
vertex 991.9999999999997 17.999999999999815 582.0000000000002
vertex 1009.9999999999997 -1.8047785488306544e-13 599.9999999999999
endloop
endfacet
facet normal -9.026616112602852e-16 -0.707106781186547 -0.707106781186548
outer loop
vertex 991.9999999999997 17.999999999999815 582.0000000000002
vertex -9.023892744153272e-14 0.0 600.0000000000013
vertex 17.999999999999698 17.999999999999996 582.0000000000011
endloop
endfacet
facet normal 3.169400094256388e-17 -0.7071067811865466 0.7071067811865485
outer loop
vertex 17.999999999999876 481.9999999999998 582.0000000000001
vertex 1010.0 499.99999999999983 600.0000000000001
vertex -1.8047785488306544e-13 499.99999999999983 600.0000000000001
endloop
endfacet
facet normal 3.169400094256388e-17 -0.7071067811865466 0.7071067811865485
outer loop
vertex 1010.0 499.99999999999983 600.0000000000001
vertex 17.999999999999876 481.9999999999998 582.0000000000001
vertex 992.0000000000001 481.9999999999998 582.0
endloop
endfacet
facet normal -2.412727848017225e-34 -2.506636873375901e-15 -1.0
outer loop
vertex 992.0000000000001 482.00000000000045 -165.0
vertex 0.0 500.0000000000005 -164.99999999999997
vertex 1010.0 500.0000000000005 -164.99999999999997
endloop
endfacet
facet normal -2.412727848017225e-34 -2.506636873375901e-15 -1.0
outer loop
vertex 0.0 500.0000000000005 -164.99999999999997
vertex 992.0000000000001 482.00000000000045 -165.0
vertex 17.999999999999876 482.00000000000045 -165.0
endloop
endfacet
facet normal 0.7071067811865511 -0.7071067811865439 -6.739301584065669e-16
outer loop
vertex 1010.0 500.0000000000005 -164.99999999999997
vertex 992.0000000000001 481.9999999999998 582.0
vertex 992.0000000000001 482.00000000000045 -165.0
endloop
endfacet
facet normal 0.7071067811865511 -0.7071067811865439 -6.739301584065669e-16
outer loop
vertex 992.0000000000001 481.9999999999998 582.0
vertex 1010.0 500.0000000000005 -164.99999999999997
vertex 1010.0 499.99999999999983 600.0000000000001
endloop
endfacet
facet normal -2.1244885740136632e-45 1.0 9.436750582121068e-16
outer loop
vertex 1010.0 499.99999999999983 600.0000000000001
vertex 0.0 500.0000000000005 -164.99999999999997
vertex -1.8047785488306544e-13 499.99999999999983 600.0000000000001
endloop
endfacet
facet normal -2.1244885740136632e-45 1.0 9.436750582121068e-16
outer loop
vertex 0.0 500.0000000000005 -164.99999999999997
vertex 1010.0 499.99999999999983 600.0000000000001
vertex 1010.0 500.0000000000005 -164.99999999999997
endloop
endfacet
facet normal -0.707106781186548 -0.707106781186547 -7.422979668711345e-16
outer loop
vertex 17.999999999999876 481.9999999999998 582.0000000000001
vertex 0.0 500.0000000000005 -164.99999999999997
vertex 17.999999999999876 482.00000000000045 -165.0
endloop
endfacet
facet normal -0.707106781186548 -0.707106781186547 -7.422979668711345e-16
outer loop
vertex 0.0 500.0000000000005 -164.99999999999997
vertex 17.999999999999876 481.9999999999998 582.0000000000001
vertex -1.8047785488306544e-13 499.99999999999983 600.0000000000001
endloop
endfacet
facet normal 2.1043082871284184e-45 -1.0 -9.664142162413143e-16
outer loop
vertex 992.0000000000001 482.00000000000045 -165.0
vertex 17.999999999999876 481.9999999999998 582.0000000000001
vertex 17.999999999999876 482.00000000000045 -165.0
endloop
endfacet
facet normal 2.1043082871284184e-45 -1.0 -9.664142162413143e-16
outer loop
vertex 17.999999999999876 481.9999999999998 582.0000000000001
vertex 992.0000000000001 482.00000000000045 -165.0
vertex 992.0000000000001 481.9999999999998 582.0
endloop
endfacet
facet normal -0.7071067811865483 2.361357292935775e-16 0.7071067811865468
outer loop
vertex 992.0 482.0 582.0000000000001
vertex 1009.999999999999 -1.8047785488306544e-13 600.0000000000001
vertex 1010.0 500.00000000000006 600.0000000000001
endloop
endfacet
facet normal -0.7071067811865483 2.361357292935775e-16 0.7071067811865468
outer loop
vertex 1009.999999999999 -1.8047785488306544e-13 600.0000000000001
vertex 992.0 482.0 582.0000000000001
vertex 991.9999999999998 17.999999999999787 582.0
endloop
endfacet
facet normal 1.0 -3.5483942429325017e-16 3.622568560538959e-16
outer loop
vertex 1009.999999999999 -1.8047785488306544e-13 600.0000000000001
vertex 1010.0000000000002 500.00000000000006 -165.0
vertex 1010.0 500.00000000000006 600.0000000000001
endloop
endfacet
facet normal 1.0 -3.5483942429325017e-16 3.622568560538959e-16
outer loop
vertex 1010.0000000000002 500.00000000000006 -165.0
vertex 1009.999999999999 -1.8047785488306544e-13 600.0000000000001
vertex 1010.0 -1.8047785488306544e-13 -165.0
endloop
endfacet
facet normal -0.7071067811865449 0.7071067811865502 -4.335842304559599e-17
outer loop
vertex 992.0000000000003 482.00000000000045 -164.99999999999983
vertex 1010.0 500.00000000000006 600.0000000000001
vertex 1010.0000000000002 500.00000000000006 -165.0
endloop
endfacet
facet normal -0.7071067811865449 0.7071067811865502 -4.335842304559599e-17
outer loop
vertex 1010.0 500.00000000000006 600.0000000000001
vertex 992.0000000000003 482.00000000000045 -164.99999999999983
vertex 992.0 482.0 582.0000000000001
endloop
endfacet
facet normal -0.7071067811865536 -0.7071067811865416 -5.458838693919486e-16
outer loop
vertex 1010.0 -1.8047785488306544e-13 -165.0
vertex 991.9999999999998 17.999999999999787 582.0
vertex 992.0000000000001 18.000000000000238 -164.99999999999983
endloop
endfacet
facet normal -0.7071067811865536 -0.7071067811865416 -5.458838693919486e-16
outer loop
vertex 991.9999999999998 17.999999999999787 582.0
vertex 1010.0 -1.8047785488306544e-13 -165.0
vertex 1009.999999999999 -1.8047785488306544e-13 600.0000000000001
endloop
endfacet
facet normal -3.7599553100638896e-15 1.405389194631031e-30 -1.0
outer loop
vertex 992.0000000000001 18.000000000000238 -164.99999999999983
vertex 1010.0000000000002 500.00000000000006 -165.0
vertex 1010.0 -1.8047785488306544e-13 -165.0
endloop
endfacet
facet normal -3.7599553100638896e-15 1.405389194631031e-30 -1.0
outer loop
vertex 1010.0000000000002 500.00000000000006 -165.0
vertex 992.0000000000001 18.000000000000238 -164.99999999999983
vertex 992.0000000000003 482.00000000000045 -164.99999999999983
endloop
endfacet
facet normal -1.0 5.656603207843458e-16 -4.751214699854433e-16
outer loop
vertex 992.0000000000001 18.000000000000238 -164.99999999999983
vertex 992.0 482.0 582.0000000000001
vertex 992.0000000000003 482.00000000000045 -164.99999999999983
endloop
endfacet
facet normal -1.0 5.656603207843458e-16 -4.751214699854433e-16
outer loop
vertex 992.0 482.0 582.0000000000001
vertex 992.0000000000001 18.000000000000238 -164.99999999999983
vertex 991.9999999999998 17.999999999999787 582.0
endloop
endfacet
endsolid FIXED POD closed
