solid FIXED POD opened
facet normal -0.7071067811865483 2.361357292935775e-16 0.7071067811865468
outer loop
vertex 992.0 482.0 582.0000000000001
vertex 1009.999999999999 -1.8047785488306544e-13 600.0000000000001
vertex 1010.0 500.00000000000006 600.0000000000001
endloop
endfacet
facet normal -0.7071067811865483 2.361357292935775e-16 0.7071067811865468
outer loop
vertex 1009.999999999999 -1.8047785488306544e-13 600.0000000000001
vertex 992.0 482.0 582.0000000000001
vertex 991.9999999999998 17.999999999999787 582.0
endloop
endfacet
facet normal 1.0 -3.5483942429325017e-16 3.622568560538959e-16
outer loop
vertex 1009.999999999999 -1.8047785488306544e-13 600.0000000000001
vertex 1010.0000000000002 500.00000000000006 -165.0
vertex 1010.0 500.00000000000006 600.0000000000001
endloop
endfacet
facet normal 1.0 -3.5483942429325017e-16 3.622568560538959e-16
outer loop
vertex 1010.0000000000002 500.00000000000006 -165.0
vertex 1009.999999999999 -1.8047785488306544e-13 600.0000000000001
vertex 1010.0 -1.8047785488306544e-13 -165.0
endloop
endfacet
facet normal -0.7071067811865449 0.7071067811865502 -4.335842304559599e-17
outer loop
vertex 992.0000000000003 482.00000000000045 -164.99999999999983
vertex 1010.0 500.00000000000006 600.0000000000001
vertex 1010.0000000000002 500.00000000000006 -165.0
endloop
endfacet
facet normal -0.7071067811865449 0.7071067811865502 -4.335842304559599e-17
outer loop
vertex 1010.0 500.00000000000006 600.0000000000001
vertex 992.0000000000003 482.00000000000045 -164.99999999999983
vertex 992.0 482.0 582.0000000000001
endloop
endfacet
facet normal -0.7071067811865536 -0.7071067811865416 -5.458838693919486e-16
outer loop
vertex 1010.0 -1.8047785488306544e-13 -165.0
vertex 991.9999999999998 17.999999999999787 582.0
vertex 992.0000000000001 18.000000000000238 -164.99999999999983
endloop
endfacet
facet normal -0.7071067811865536 -0.7071067811865416 -5.458838693919486e-16
outer loop
vertex 991.9999999999998 17.999999999999787 582.0
vertex 1010.0 -1.8047785488306544e-13 -165.0
vertex 1009.999999999999 -1.8047785488306544e-13 600.0000000000001
endloop
endfacet
facet normal -3.7599553100638896e-15 1.405389194631031e-30 -1.0
outer loop
vertex 992.0000000000001 18.000000000000238 -164.99999999999983
vertex 1010.0000000000002 500.00000000000006 -165.0
vertex 1010.0 -1.8047785488306544e-13 -165.0
endloop
endfacet
facet normal -3.7599553100638896e-15 1.405389194631031e-30 -1.0
outer loop
vertex 1010.0000000000002 500.00000000000006 -165.0
vertex 992.0000000000001 18.000000000000238 -164.99999999999983
vertex 992.0000000000003 482.00000000000045 -164.99999999999983
endloop
endfacet
facet normal -1.0 5.656603207843458e-16 -4.751214699854433e-16
outer loop
vertex 992.0000000000001 18.000000000000238 -164.99999999999983
vertex 992.0 482.0 582.0000000000001
vertex 992.0000000000003 482.00000000000045 -164.99999999999983
endloop
endfacet
facet normal -1.0 5.656603207843458e-16 -4.751214699854433e-16
outer loop
vertex 992.0 482.0 582.0000000000001
vertex 992.0000000000001 18.000000000000238 -164.99999999999983
vertex 991.9999999999998 17.999999999999787 582.0
endloop
endfacet
facet normal 3.169400094256388e-17 -0.7071067811865466 0.7071067811865485
outer loop
vertex 17.999999999999876 481.9999999999998 582.0000000000001
vertex 1010.0 499.99999999999983 600.0000000000001
vertex -1.8047785488306544e-13 499.99999999999983 600.0000000000001
endloop
endfacet
facet normal 3.169400094256388e-17 -0.7071067811865466 0.7071067811865485
outer loop
vertex 1010.0 499.99999999999983 600.0000000000001
vertex 17.999999999999876 481.9999999999998 582.0000000000001
vertex 992.0000000000001 481.9999999999998 582.0
endloop
endfacet
facet normal -2.412727848017225e-34 -2.506636873375901e-15 -1.0
outer loop
vertex 992.0000000000001 482.00000000000045 -165.0
vertex 0.0 500.0000000000005 -164.99999999999997
vertex 1010.0 500.0000000000005 -164.99999999999997
endloop
endfacet
facet normal -2.412727848017225e-34 -2.506636873375901e-15 -1.0
outer loop
vertex 0.0 500.0000000000005 -164.99999999999997
vertex 992.0000000000001 482.00000000000045 -165.0
vertex 17.999999999999876 482.00000000000045 -165.0
endloop
endfacet
facet normal 0.7071067811865511 -0.7071067811865439 -6.739301584065669e-16
outer loop
vertex 1010.0 500.0000000000005 -164.99999999999997
vertex 992.0000000000001 481.9999999999998 582.0
vertex 992.0000000000001 482.00000000000045 -165.0
endloop
endfacet
facet normal 0.7071067811865511 -0.7071067811865439 -6.739301584065669e-16
outer loop
vertex 992.0000000000001 481.9999999999998 582.0
vertex 1010.0 500.0000000000005 -164.99999999999997
vertex 1010.0 499.99999999999983 600.0000000000001
endloop
endfacet
facet normal -2.1244885740136632e-45 1.0 9.436750582121068e-16
outer loop
vertex 1010.0 499.99999999999983 600.0000000000001
vertex 0.0 500.0000000000005 -164.99999999999997
vertex -1.8047785488306544e-13 499.99999999999983 600.0000000000001
endloop
endfacet
facet normal -2.1244885740136632e-45 1.0 9.436750582121068e-16
outer loop
vertex 0.0 500.0000000000005 -164.99999999999997
vertex 1010.0 499.99999999999983 600.0000000000001
vertex 1010.0 500.0000000000005 -164.99999999999997
endloop
endfacet
facet normal -0.707106781186548 -0.707106781186547 -7.422979668711345e-16
outer loop
vertex 17.999999999999876 481.9999999999998 582.0000000000001
vertex 0.0 500.0000000000005 -164.99999999999997
vertex 17.999999999999876 482.00000000000045 -165.0
endloop
endfacet
facet normal -0.707106781186548 -0.707106781186547 -7.422979668711345e-16
outer loop
vertex 0.0 500.0000000000005 -164.99999999999997
vertex 17.999999999999876 481.9999999999998 582.0000000000001
vertex -1.8047785488306544e-13 499.99999999999983 600.0000000000001
endloop
endfacet
facet normal 2.1043082871284184e-45 -1.0 -9.664142162413143e-16
outer loop
vertex 992.0000000000001 482.00000000000045 -165.0
vertex 17.999999999999876 481.9999999999998 582.0000000000001
vertex 17.999999999999876 482.00000000000045 -165.0
endloop
endfacet
facet normal 2.1043082871284184e-45 -1.0 -9.664142162413143e-16
outer loop
vertex 17.999999999999876 481.9999999999998 582.0000000000001
vertex 992.0000000000001 482.00000000000045 -165.0
vertex 992.0000000000001 481.9999999999998 582.0
endloop
endfacet
facet normal -6.112414467494416e-16 0.7071067811865466 -0.7071067811865485
outer loop
vertex 991.9999999999997 481.99999999999983 582.0000000000002
vertex -9.023892744153272e-14 500.00000000000006 600.0000000000013
vertex 1009.9999999999997 499.99999999999983 599.9999999999999
endloop
endfacet
facet normal -6.112414467494416e-16 0.7071067811865466 -0.7071067811865485
outer loop
vertex -9.023892744153272e-14 500.00000000000006 600.0000000000013
vertex 991.9999999999997 481.99999999999983 582.0000000000002
vertex 17.999999999999698 482.0 582.0000000000011
endloop
endfacet
facet normal -1.0191254639187473e-15 -5.8170760935890546e-33 -1.0
outer loop
vertex 17.999999999999698 17.999999999999996 582.0000000000011
vertex 991.9999999999997 481.99999999999983 582.0000000000002
vertex 991.9999999999997 17.999999999999815 582.0000000000002
endloop
endfacet
facet normal -1.0191254639187473e-15 -5.8170760935890546e-33 -1.0
outer loop
vertex 991.9999999999997 481.99999999999983 582.0000000000002
vertex 17.999999999999698 17.999999999999996 582.0000000000011
vertex 17.999999999999698 482.0 582.0000000000011
endloop
endfacet
facet normal 1.161491145287055e-15 -3.7345220363857654e-33 1.0
outer loop
vertex -9.023892744153272e-14 500.00000000000006 600.0000000000013
vertex 1009.9999999999997 -1.8047785488306544e-13 599.9999999999999
vertex 1009.9999999999997 499.99999999999983 599.9999999999999
endloop
endfacet
facet normal 1.161491145287055e-15 -3.7345220363857654e-33 1.0
outer loop
vertex 1009.9999999999997 -1.8047785488306544e-13 599.9999999999999
vertex -9.023892744153272e-14 500.00000000000006 600.0000000000013
vertex -9.023892744153272e-14 0.0 600.0000000000013
endloop
endfacet
facet normal -0.7071067811865512 1.0973138016949394e-31 -0.7071067811865439
outer loop
vertex -9.023892744153272e-14 500.00000000000006 600.0000000000013
vertex 17.999999999999698 17.999999999999996 582.0000000000011
vertex -9.023892744153272e-14 0.0 600.0000000000013
endloop
endfacet
facet normal -0.7071067811865512 1.0973138016949394e-31 -0.7071067811865439
outer loop
vertex 17.999999999999698 17.999999999999996 582.0000000000011
vertex -9.023892744153272e-14 500.00000000000006 600.0000000000013
vertex 17.999999999999698 482.0 582.0000000000011
endloop
endfacet
facet normal 0.7071067811865439 -2.1176231260779378e-32 -0.7071067811865511
outer loop
vertex 991.9999999999997 17.999999999999815 582.0000000000002
vertex 1009.9999999999997 499.99999999999983 599.9999999999999
vertex 1009.9999999999997 -1.8047785488306544e-13 599.9999999999999
endloop
endfacet
facet normal 0.7071067811865439 -2.1176231260779378e-32 -0.7071067811865511
outer loop
vertex 1009.9999999999997 499.99999999999983 599.9999999999999
vertex 991.9999999999997 17.999999999999815 582.0000000000002
vertex 991.9999999999997 481.99999999999983 582.0000000000002
endloop
endfacet
facet normal -9.026616112602852e-16 -0.707106781186547 -0.707106781186548
outer loop
vertex -9.023892744153272e-14 0.0 600.0000000000013
vertex 991.9999999999997 17.999999999999815 582.0000000000002
vertex 1009.9999999999997 -1.8047785488306544e-13 599.9999999999999
endloop
endfacet
facet normal -9.026616112602852e-16 -0.707106781186547 -0.707106781186548
outer loop
vertex 991.9999999999997 17.999999999999815 582.0000000000002
vertex -9.023892744153272e-14 0.0 600.0000000000013
vertex 17.999999999999698 17.999999999999996 582.0000000000011
endloop
endfacet
facet normal 0.7071067811865471 -6.630046164982285e-16 0.707106781186548
outer loop
vertex 17.99999999999912 17.999999999999588 582.0000000000001
vertex 2.3822022785763613e-13 499.99999999999983 600.0000000000001
vertex -9.798221058039927e-13 -4.51194637207663e-13 600.0000000000001
endloop
endfacet
facet normal 0.7071067811865471 -6.630046164982285e-16 0.707106781186548
outer loop
vertex 2.3822022785763613e-13 499.99999999999983 600.0000000000001
vertex 17.99999999999912 17.999999999999588 582.0000000000001
vertex 17.99999999999958 481.99999999999983 582.0
endloop
endfacet
facet normal -1.0 9.58523193933179e-16 -1.4071338780938047e-15
outer loop
vertex 2.3822022785763613e-13 499.99999999999983 600.0000000000001
vertex 3.934181412018954e-14 -4.5119463720766377e-13 -165.0
vertex -9.798221058039927e-13 -4.51194637207663e-13 600.0000000000001
endloop
endfacet
facet normal -1.0 9.58523193933179e-16 -1.4071338780938047e-15
outer loop
vertex 3.934181412018954e-14 -4.5119463720766377e-13 -165.0
vertex 2.3822022785763613e-13 499.99999999999983 600.0000000000001
vertex 5.354727282495566e-13 499.99999999999983 -165.0
endloop
endfacet
facet normal 0.7071067811865445 -0.7071067811865507 1.2077897636388823e-15
outer loop
vertex 17.999999999999932 17.999999999999137 -164.99999999999983
vertex -9.798221058039927e-13 -4.51194637207663e-13 600.0000000000001
vertex 3.934181412018954e-14 -4.5119463720766377e-13 -165.0
endloop
endfacet
facet normal 0.7071067811865445 -0.7071067811865507 1.2077897636388823e-15
outer loop
vertex -9.798221058039927e-13 -4.51194637207663e-13 600.0000000000001
vertex 17.999999999999932 17.999999999999137 -164.99999999999983
vertex 17.99999999999912 17.999999999999588 582.0000000000001
endloop
endfacet
facet normal 0.707106781186554 0.7071067811865411 7.052643172925449e-16
outer loop
vertex 5.354727282495566e-13 499.99999999999983 -165.0
vertex 17.99999999999958 481.99999999999983 582.0
vertex 18.000000000000394 481.9999999999994 -164.99999999999983
endloop
endfacet
facet normal 0.707106781186554 0.7071067811865411 7.052643172925449e-16
outer loop
vertex 17.99999999999958 481.99999999999983 582.0
vertex 5.354727282495566e-13 499.99999999999983 -165.0
vertex 2.3822022785763613e-13 499.99999999999983 600.0000000000001
endloop
endfacet
facet normal 5.52934604421159e-15 -4.932962887536208e-30 -1.0
outer loop
vertex 18.000000000000394 481.9999999999994 -164.99999999999983
vertex 3.934181412018954e-14 -4.5119463720766377e-13 -165.0
vertex 5.354727282495566e-13 499.99999999999983 -165.0
endloop
endfacet
facet normal 5.52934604421159e-15 -4.932962887536208e-30 -1.0
outer loop
vertex 3.934181412018954e-14 -4.5119463720766377e-13 -165.0
vertex 18.000000000000394 481.9999999999994 -164.99999999999983
vertex 17.999999999999932 17.999999999999137 -164.99999999999983
endloop
endfacet
facet normal 1.0 -1.1693440904242749e-15 1.2942692641622575e-15
outer loop
vertex 18.000000000000394 481.9999999999994 -164.99999999999983
vertex 17.99999999999912 17.999999999999588 582.0000000000001
vertex 17.999999999999932 17.999999999999137 -164.99999999999983
endloop
endfacet
facet normal 1.0 -1.1693440904242749e-15 1.2942692641622575e-15
outer loop
vertex 17.99999999999912 17.999999999999588 582.0000000000001
vertex 18.000000000000394 481.9999999999994 -164.99999999999983
vertex 17.99999999999958 481.99999999999983 582.0
endloop
endfacet
facet normal -3.077601687116296e-15 -1.0 -3.608224830031759e-15
outer loop
vertex 991.9999999999991 -212.1320343559693 113.32380976674727
vertex -1.263344984181458e-12 -212.13203435596623 87.86796564403079
vertex 1009.999999999999 -212.1320343559693 87.86796564403168
endloop
endfacet
facet normal -3.077601687116296e-15 -1.0 -3.608224830031759e-15
outer loop
vertex -1.263344984181458e-12 -212.13203435596623 87.86796564403079
vertex 991.9999999999991 -212.1320343559693 113.32380976674727
vertex 17.999999999998614 -212.1320343559664 113.32380976674642
endloop
endfacet
facet normal 1.5136682896941345e-15 0.7071067811865441 0.7071067811865509
outer loop
vertex 17.999999999998973 -12.727922061357255 312.72792206135387
vertex 1009.9999999999991 -2.4364510409213834e-12 299.9999999999969
vertex -9.023892744153272e-13 6.31672492090729e-13 299.99999999999596
endloop
endfacet
facet normal 1.5136682896941345e-15 0.7071067811865441 0.7071067811865509
outer loop
vertex 1009.9999999999991 -2.4364510409213834e-12 299.9999999999969
vertex 17.999999999998973 -12.727922061357255 312.72792206135387
vertex 991.9999999999993 -12.727922061360324 312.7279220613548
endloop
endfacet
facet normal -0.7071067811865531 -0.4999999999999959 0.49999999999999617
outer loop
vertex -9.023892744153272e-13 6.31672492090729e-13 299.99999999999596
vertex 17.999999999998614 -212.1320343559664 113.32380976674642
vertex 17.999999999998973 -12.727922061357255 312.72792206135387
endloop
endfacet
facet normal -0.7071067811865531 -0.4999999999999959 0.49999999999999617
outer loop
vertex 17.999999999998614 -212.1320343559664 113.32380976674642
vertex -9.023892744153272e-13 6.31672492090729e-13 299.99999999999596
vertex -1.263344984181458e-12 -212.13203435596623 87.86796564403079
endloop
endfacet
facet normal 2.793895669829204e-15 0.7071067811865485 -0.7071067811865466
outer loop
vertex 1009.999999999999 -212.1320343559693 87.86796564403168
vertex 803.8388347591817 -177.72339444173878 122.27660542655548
vertex 1009.9999999999991 -2.4364510409213834e-12 299.9999999999969
endloop
endfacet
facet normal 2.793895669829204e-15 0.7071067811865485 -0.7071067811865466
outer loop
vertex 803.8388347591817 -177.72339444173878 122.27660542655548
vertex 1009.999999999999 -212.1320343559693 87.86796564403168
vertex 801.2499999587066 -179.12804987296536 120.87194999532817
endloop
endfacet
facet normal 2.793895669829204e-15 0.7071067811865485 -0.7071067811865466
outer loop
vertex 801.2499999587066 -179.12804987296536 120.87194999532817
vertex 1009.999999999999 -212.1320343559693 87.86796564403168
vertex 798.235237991988 -180.0110531767903 119.98894669150363
endloop
endfacet
facet normal 2.793895669829204e-15 0.7071067811865485 -0.7071067811865466
outer loop
vertex 798.235237991988 -180.0110531767903 119.98894669150363
vertex 1009.999999999999 -212.1320343559693 87.86796564403168
vertex 794.9999999068668 -180.31222913672082 119.68777073157239
endloop
endfacet
facet normal 2.793895669829204e-15 0.7071067811865485 -0.7071067811865466
outer loop
vertex 794.9999999068668 -180.31222913672082 119.68777073157239
vertex 1009.999999999999 -212.1320343559693 87.86796564403168
vertex -1.263344984181458e-12 -212.13203435596623 87.86796564403079
endloop
endfacet
facet normal 2.793895669829204e-15 0.7071067811865485 -0.7071067811865466
outer loop
vertex 1009.9999999999991 -2.4364510409213834e-12 299.9999999999969
vertex 803.8388347591817 -177.72339444173878 122.27660542655548
vertex 805.8253175783486 -175.8928118303478 124.10718803794664
endloop
endfacet
facet normal 2.793895669829204e-15 0.7071067811865485 -0.7071067811865466
outer loop
vertex 1009.9999999999991 -2.4364510409213834e-12 299.9999999999969
vertex 805.8253175783486 -175.8928118303478 124.10718803794664
vertex 807.0740728936232 -173.76105321975467 126.23894664853977
endloop
endfacet
facet normal 2.793895669829204e-15 0.7071067811865485 -0.7071067811865466
outer loop
vertex 1009.9999999999991 -2.4364510409213834e-12 299.9999999999969
vertex 807.0740728936232 -173.76105321975467 126.23894664853977
vertex 807.5000000931303 -171.47339443774413 128.52660543055012
endloop
endfacet
facet normal 2.793895669829204e-15 0.7071067811865485 -0.7071067811865466
outer loop
vertex 794.9999999068668 -180.31222913672082 119.68777073157239
vertex -1.263344984181458e-12 -212.13203435596623 87.86796564403079
vertex 720.0000000931318 -180.31222913672002 119.68777073157234
endloop
endfacet
facet normal 2.793895669829204e-15 0.7071067811865485 -0.7071067811865466
outer loop
vertex 720.0000000931318 -180.31222913672002 119.68777073157234
vertex -1.263344984181458e-12 -212.13203435596623 87.86796564403079
vertex 716.7647621942745 -180.01105317678926 119.98894669150353
endloop
endfacet
facet normal 2.793895669829204e-15 0.7071067811865485 -0.7071067811865466
outer loop
vertex 716.7647621942745 -180.01105317678926 119.98894669150353
vertex -1.263344984181458e-12 -212.13203435596623 87.86796564403079
vertex 713.7500002275559 -179.12804987296428 120.8719499953279
endloop
endfacet
facet normal 2.793895669829204e-15 0.7071067811865485 -0.7071067811865466
outer loop
vertex 713.7500002275559 -179.12804987296428 120.8719499953279
vertex -1.263344984181458e-12 -212.13203435596623 87.86796564403079
vertex 711.161165427081 -177.72339444173733 122.27660542655485
endloop
endfacet
facet normal 2.793895669829204e-15 0.7071067811865485 -0.7071067811865466
outer loop
vertex 711.161165427081 -177.72339444173733 122.27660542655485
vertex -1.263344984181458e-12 -212.13203435596623 87.86796564403079
vertex 709.174682607914 -175.89281183034615 124.10718803794602
endloop
endfacet
facet normal 2.793895669829204e-15 0.7071067811865485 -0.7071067811865466
outer loop
vertex 709.174682607914 -175.89281183034615 124.10718803794602
vertex -1.263344984181458e-12 -212.13203435596623 87.86796564403079
vertex 707.9259272926395 -173.76105321975376 126.23894664853968
endloop
endfacet
facet normal 2.793895669829204e-15 0.7071067811865485 -0.7071067811865466
outer loop
vertex 707.9259272926395 -173.76105321975376 126.23894664853968
vertex -1.263344984181458e-12 -212.13203435596623 87.86796564403079
vertex 707.5000000931311 -171.473394437743 128.5266054305499
endloop
endfacet
facet normal 2.793895669829204e-15 0.7071067811865485 -0.7071067811865466
outer loop
vertex 707.5000000931311 -171.473394437743 128.5266054305499
vertex -1.263344984181458e-12 -212.13203435596623 87.86796564403079
vertex 264.5223936249081 -180.01105317678903 119.98894669150245
endloop
endfacet
facet normal 2.793895669829204e-15 0.7071067811865485 -0.7071067811865466
outer loop
vertex 707.5000000931311 -171.473394437743 128.5266054305499
vertex 264.5223936249081 -180.01105317678903 119.98894669150245
vertex 267.5371555916266 -179.12804987296397 120.87194999532699
endloop
endfacet
facet normal 2.793895669829204e-15 0.7071067811865485 -0.7071067811865466
outer loop
vertex 707.5000000931311 -171.473394437743 128.5266054305499
vertex 267.5371555916266 -179.12804987296397 120.87194999532699
vertex 270.12599039210164 -177.72339444173736 122.27660542655431
endloop
endfacet
facet normal 2.793895669829204e-15 0.7071067811865485 -0.7071067811865466
outer loop
vertex 707.5000000931311 -171.473394437743 128.5266054305499
vertex 270.12599039210164 -177.72339444173736 122.27660542655431
vertex 272.11247321126854 -175.89281183034643 124.10718803794542
endloop
endfacet
facet normal 2.793895669829204e-15 0.7071067811865485 -0.7071067811865466
outer loop
vertex 707.5000000931311 -171.473394437743 128.5266054305499
vertex 272.11247321126854 -175.89281183034643 124.10718803794542
vertex 273.3612285265432 -173.76105321975325 126.23894664853859
endloop
endfacet
facet normal 2.793895669829204e-15 0.7071067811865485 -0.7071067811865466
outer loop
vertex 707.5000000931311 -171.473394437743 128.5266054305499
vertex 273.3612285265432 -173.76105321975325 126.23894664853859
vertex 273.7871557260503 -171.47339443774268 128.52660543054904
endloop
endfacet
facet normal 2.793895669829204e-15 0.7071067811865485 -0.7071067811865466
outer loop
vertex 264.5223936249081 -180.01105317678903 119.98894669150245
vertex -1.263344984181458e-12 -212.13203435596623 87.86796564403079
vertex 261.2871555397868 -180.31222913671942 119.6877707315712
endloop
endfacet
facet normal 2.793895669829204e-15 0.7071067811865485 -0.7071067811865466
outer loop
vertex 261.2871555397868 -180.31222913671942 119.6877707315712
vertex -1.263344984181458e-12 -212.13203435596623 87.86796564403079
vertex 186.2871557260517 -180.31222913671866 119.68777073157108
endloop
endfacet
facet normal 2.793895669829204e-15 0.7071067811865485 -0.7071067811865466
outer loop
vertex 186.2871557260517 -180.31222913671866 119.68777073157108
vertex -1.263344984181458e-12 -212.13203435596623 87.86796564403079
vertex 183.0519178271944 -180.01105317678787 119.98894669150236
endloop
endfacet
facet normal 2.793895669829204e-15 0.7071067811865485 -0.7071067811865466
outer loop
vertex 183.0519178271944 -180.01105317678787 119.98894669150236
vertex -1.263344984181458e-12 -212.13203435596623 87.86796564403079
vertex 180.0371558604759 -179.1280498729629 120.87194999532672
endloop
endfacet
facet normal 2.793895669829204e-15 0.7071067811865485 -0.7071067811865466
outer loop
vertex 180.0371558604759 -179.1280498729629 120.87194999532672
vertex -1.263344984181458e-12 -212.13203435596623 87.86796564403079
vertex 177.44832106000084 -177.72339444173593 122.27660542655367
endloop
endfacet
facet normal 2.793895669829204e-15 0.7071067811865485 -0.7071067811865466
outer loop
vertex 177.44832106000084 -177.72339444173593 122.27660542655367
vertex -1.263344984181458e-12 -212.13203435596623 87.86796564403079
vertex 175.46183824083394 -175.89281183034475 124.10718803794484
endloop
endfacet
facet normal 2.793895669829204e-15 0.7071067811865485 -0.7071067811865466
outer loop
vertex 175.46183824083394 -175.89281183034475 124.10718803794484
vertex -1.263344984181458e-12 -212.13203435596623 87.86796564403079
vertex 174.21308292555946 -173.76105321975237 126.2389466485385
endloop
endfacet
facet normal 2.793895669829204e-15 0.7071067811865485 -0.7071067811865466
outer loop
vertex 174.21308292555946 -173.76105321975237 126.2389466485385
vertex -1.263344984181458e-12 -212.13203435596623 87.86796564403079
vertex 173.7871557260511 -171.47339443774146 128.52660543054876
endloop
endfacet
facet normal 2.793895669829204e-15 0.7071067811865485 -0.7071067811865466
outer loop
vertex 1009.9999999999991 -2.4364510409213834e-12 299.9999999999969
vertex 798.2352381719058 -162.9357356010774 137.06426426721643
vertex -9.023892744153272e-13 6.31672492090729e-13 299.99999999999596
endloop
endfacet
facet normal 2.793895669829204e-15 0.7071067811865485 -0.7071067811865466
outer loop
vertex 798.2352381719058 -162.9357356010774 137.06426426721643
vertex 1009.9999999999991 -2.4364510409213834e-12 299.9999999999969
vertex 801.2500001200162 -163.81873893666761 136.18126093162596
endloop
endfacet
facet normal 2.793895669829204e-15 0.7071067811865485 -0.7071067811865466
outer loop
vertex 801.2500001200162 -163.81873893666761 136.18126093162596
vertex 1009.9999999999991 -2.4364510409213834e-12 299.9999999999969
vertex 803.8388348908907 -165.22339439517236 134.77660547312146
endloop
endfacet
facet normal 2.793895669829204e-15 0.7071067811865485 -0.7071067811865466
outer loop
vertex 803.8388348908907 -165.22339439517236 134.77660547312146
vertex 1009.9999999999991 -2.4364510409213834e-12 299.9999999999969
vertex 805.825317671481 -167.0539770274949 132.94602284079932
endloop
endfacet
facet normal 2.793895669829204e-15 0.7071067811865485 -0.7071067811865466
outer loop
vertex 805.825317671481 -167.0539770274949 132.94602284079932
vertex 1009.9999999999991 -2.4364510409213834e-12 299.9999999999969
vertex 807.0740729418318 -169.1857356512453 130.81426421704822
endloop
endfacet
facet normal 2.793895669829204e-15 0.7071067811865485 -0.7071067811865466
outer loop
vertex 807.0740729418318 -169.1857356512453 130.81426421704822
vertex 1009.9999999999991 -2.4364510409213834e-12 299.9999999999969
vertex 807.5000000931303 -171.47339443774413 128.52660543055012
endloop
endfacet
facet normal 2.793895669829204e-15 0.7071067811865485 -0.7071067811865466
outer loop
vertex -9.023892744153272e-13 6.31672492090729e-13 299.99999999999596
vertex 798.2352381719058 -162.9357356010774 137.06426426721643
vertex 795.0000000931313 -162.63455960705758 137.3654402612364
endloop
endfacet
facet normal 2.793895669829204e-15 0.7071067811865485 -0.7071067811865466
outer loop
vertex -9.023892744153272e-13 6.31672492090729e-13 299.99999999999596
vertex 795.0000000931313 -162.63455960705758 137.3654402612364
vertex 720.0000000931318 -162.63455960705642 137.365440261236
endloop
endfacet
facet normal 2.793895669829204e-15 0.7071067811865485 -0.7071067811865466
outer loop
vertex -9.023892744153272e-13 6.31672492090729e-13 299.99999999999596
vertex 720.0000000931318 -162.63455960705642 137.365440261236
vertex 716.7647620143567 -162.93573560107623 137.06426426721617
endloop
endfacet
facet normal 2.793895669829204e-15 0.7071067811865485 -0.7071067811865466
outer loop
vertex -9.023892744153272e-13 6.31672492090729e-13 299.99999999999596
vertex 716.7647620143567 -162.93573560107623 137.06426426721617
vertex 713.7500000662466 -163.81873893666676 136.18126093162618
endloop
endfacet
facet normal 2.793895669829204e-15 0.7071067811865485 -0.7071067811865466
outer loop
vertex -9.023892744153272e-13 6.31672492090729e-13 299.99999999999596
vertex 713.7500000662466 -163.81873893666676 136.18126093162618
vertex 711.1611652953729 -165.2233943951715 134.77660547312144
endloop
endfacet
facet normal 2.793895669829204e-15 0.7071067811865485 -0.7071067811865466
outer loop
vertex -9.023892744153272e-13 6.31672492090729e-13 299.99999999999596
vertex 711.1611652953729 -165.2233943951715 134.77660547312144
vertex 709.1746825147818 -167.05397702749346 132.9460228407991
endloop
endfacet
facet normal 2.793895669829204e-15 0.7071067811865485 -0.7071067811865466
outer loop
vertex -9.023892744153272e-13 6.31672492090729e-13 299.99999999999596
vertex 709.1746825147818 -167.05397702749346 132.9460228407991
vertex 707.9259272444314 -169.18573565124427 130.81426421704813
endloop
endfacet
facet normal 2.793895669829204e-15 0.7071067811865485 -0.7071067811865466
outer loop
vertex -9.023892744153272e-13 6.31672492090729e-13 299.99999999999596
vertex 707.9259272444314 -169.18573565124427 130.81426421704813
vertex 707.5000000931311 -171.473394437743 128.5266054305499
endloop
endfacet
facet normal 2.793895669829204e-15 0.7071067811865485 -0.7071067811865466
outer loop
vertex -9.023892744153272e-13 6.31672492090729e-13 299.99999999999596
vertex 707.5000000931311 -171.473394437743 128.5266054305499
vertex 270.1259905238106 -165.22339439517097 134.7766054731203
endloop
endfacet
facet normal 2.793895669829204e-15 0.7071067811865485 -0.7071067811865466
outer loop
vertex 270.1259905238106 -165.22339439517097 134.7766054731203
vertex 707.5000000931311 -171.473394437743 128.5266054305499
vertex 272.1124733044009 -167.05397702749346 132.94602284079826
endloop
endfacet
facet normal 2.793895669829204e-15 0.7071067811865485 -0.7071067811865466
outer loop
vertex 272.1124733044009 -167.05397702749346 132.94602284079826
vertex 707.5000000931311 -171.473394437743 128.5266054305499
vertex 273.36122857475175 -169.1857356512439 130.81426421704705
endloop
endfacet
facet normal 2.793895669829204e-15 0.7071067811865485 -0.7071067811865466
outer loop
vertex 273.36122857475175 -169.1857356512439 130.81426421704705
vertex 707.5000000931311 -171.473394437743 128.5266054305499
vertex 273.7871557260503 -171.47339443774268 128.52660543054904
endloop
endfacet
facet normal 2.793895669829204e-15 0.7071067811865485 -0.7071067811865466
outer loop
vertex -9.023892744153272e-13 6.31672492090729e-13 299.99999999999596
vertex 270.1259905238106 -165.22339439517097 134.7766054731203
vertex 267.53715575293626 -163.81873893666622 136.18126093162476
endloop
endfacet
facet normal 2.793895669829204e-15 0.7071067811865485 -0.7071067811865466
outer loop
vertex -9.023892744153272e-13 6.31672492090729e-13 299.99999999999596
vertex 267.53715575293626 -163.81873893666622 136.18126093162476
vertex 264.5223938048259 -162.935735601076 137.06426426721526
endloop
endfacet
facet normal 2.793895669829204e-15 0.7071067811865485 -0.7071067811865466
outer loop
vertex -9.023892744153272e-13 6.31672492090729e-13 299.99999999999596
vertex 264.5223938048259 -162.935735601076 137.06426426721526
vertex 261.2871557260513 -162.63455960705625 137.36544026123525
endloop
endfacet
facet normal 2.793895669829204e-15 0.7071067811865485 -0.7071067811865466
outer loop
vertex -9.023892744153272e-13 6.31672492090729e-13 299.99999999999596
vertex 261.2871557260513 -162.63455960705625 137.36544026123525
vertex 186.28715572605205 -162.63455960705505 137.36544026123477
endloop
endfacet
facet normal 2.793895669829204e-15 0.7071067811865485 -0.7071067811865466
outer loop
vertex -9.023892744153272e-13 6.31672492090729e-13 299.99999999999596
vertex 186.28715572605205 -162.63455960705505 137.36544026123477
vertex 183.05191764727692 -162.93573560107487 137.06426426721495
endloop
endfacet
facet normal 2.793895669829204e-15 0.7071067811865485 -0.7071067811865466
outer loop
vertex -9.023892744153272e-13 6.31672492090729e-13 299.99999999999596
vertex 183.05191764727692 -162.93573560107487 137.06426426721495
vertex 180.03715569916662 -163.81873893666537 136.181260931625
endloop
endfacet
facet normal 2.793895669829204e-15 0.7071067811865485 -0.7071067811865466
outer loop
vertex -9.023892744153272e-13 6.31672492090729e-13 299.99999999999596
vertex 180.03715569916662 -163.81873893666537 136.181260931625
vertex 177.448320928293 -165.22339439516998 134.77660547312027
endloop
endfacet
facet normal 2.793895669829204e-15 0.7071067811865485 -0.7071067811865466
outer loop
vertex -9.023892744153272e-13 6.31672492090729e-13 299.99999999999596
vertex 177.448320928293 -165.22339439516998 134.77660547312027
vertex 175.46183814770194 -167.05397702749218 132.9460228407979
endloop
endfacet
facet normal 2.793895669829204e-15 0.7071067811865485 -0.7071067811865466
outer loop
vertex -9.023892744153272e-13 6.31672492090729e-13 299.99999999999596
vertex 175.46183814770194 -167.05397702749218 132.9460228407979
vertex 174.2130828773513 -169.18573565124288 130.81426421704697
endloop
endfacet
facet normal 2.793895669829204e-15 0.7071067811865485 -0.7071067811865466
outer loop
vertex -9.023892744153272e-13 6.31672492090729e-13 299.99999999999596
vertex 174.2130828773513 -169.18573565124288 130.81426421704697
vertex 173.7871557260511 -171.47339443774146 128.52660543054876
endloop
endfacet
facet normal 2.793895669829204e-15 0.7071067811865485 -0.7071067811865466
outer loop
vertex -9.023892744153272e-13 6.31672492090729e-13 299.99999999999596
vertex 173.7871557260511 -171.47339443774146 128.52660543054876
vertex -1.263344984181458e-12 -212.13203435596623 87.86796564403079
endloop
endfacet
facet normal 0.707106781186546 -0.5000000000000024 0.4999999999999996
outer loop
vertex 991.9999999999991 -212.1320343559693 113.32380976674727
vertex 1009.9999999999991 -2.4364510409213834e-12 299.9999999999969
vertex 991.9999999999993 -12.727922061360324 312.7279220613548
endloop
endfacet
facet normal 0.707106781186546 -0.5000000000000024 0.4999999999999996
outer loop
vertex 1009.9999999999991 -2.4364510409213834e-12 299.9999999999969
vertex 991.9999999999991 -212.1320343559693 113.32380976674727
vertex 1009.999999999999 -212.1320343559693 87.86796564403168
endloop
endfacet
facet normal -2.793895669829204e-15 -0.7071067811865485 0.7071067811865466
outer loop
vertex 991.9999999999993 -12.727922061360324 312.7279220613548
vertex 807.0740729418317 -181.91365771260257 143.54218627840555
vertex 807.5000000931307 -184.20131649910144 141.25452749190737
endloop
endfacet
facet normal -2.793895669829204e-15 -0.7071067811865485 0.7071067811865466
outer loop
vertex 807.0740729418317 -181.91365771260257 143.54218627840555
vertex 991.9999999999993 -12.727922061360324 312.7279220613548
vertex 805.8253176714807 -179.78189908885193 145.67394490215656
endloop
endfacet
facet normal -2.793895669829204e-15 -0.7071067811865485 0.7071067811865466
outer loop
vertex 805.8253176714807 -179.78189908885193 145.67394490215656
vertex 991.9999999999993 -12.727922061360324 312.7279220613548
vertex 803.8388348908902 -177.9513164565299 147.50452753447883
endloop
endfacet
facet normal -2.793895669829204e-15 -0.7071067811865485 0.7071067811865466
outer loop
vertex 803.8388348908902 -177.9513164565299 147.50452753447883
vertex 991.9999999999993 -12.727922061360324 312.7279220613548
vertex 801.2500001200167 -176.54666099802515 148.90918299298343
endloop
endfacet
facet normal -2.793895669829204e-15 -0.7071067811865485 0.7071067811865466
outer loop
vertex 801.2500001200167 -176.54666099802515 148.90918299298343
vertex 991.9999999999993 -12.727922061360324 312.7279220613548
vertex 798.2352381719061 -175.6636576624348 149.7921863285738
endloop
endfacet
facet normal -2.793895669829204e-15 -0.7071067811865485 0.7071067811865466
outer loop
vertex 798.2352381719061 -175.6636576624348 149.7921863285738
vertex 991.9999999999993 -12.727922061360324 312.7279220613548
vertex 17.999999999998973 -12.727922061357255 312.72792206135387
endloop
endfacet
facet normal -2.793895669829204e-15 -0.7071067811865485 0.7071067811865466
outer loop
vertex 798.2352381719061 -175.6636576624348 149.7921863285738
vertex 17.999999999998973 -12.727922061357255 312.72792206135387
vertex 795.0000000931309 -175.3624816684149 150.09336232259363
endloop
endfacet
facet normal -2.793895669829204e-15 -0.7071067811865485 0.7071067811865466
outer loop
vertex 795.0000000931309 -175.3624816684149 150.09336232259363
vertex 17.999999999998973 -12.727922061357255 312.72792206135387
vertex 720.0000000931318 -175.3624816684139 150.09336232259332
endloop
endfacet
facet normal -2.793895669829204e-15 -0.7071067811865485 0.7071067811865466
outer loop
vertex 720.0000000931318 -175.3624816684139 150.09336232259332
vertex 17.999999999998973 -12.727922061357255 312.72792206135387
vertex 716.7647620143566 -175.66365766243388 149.7921863285738
endloop
endfacet
facet normal -2.793895669829204e-15 -0.7071067811865485 0.7071067811865466
outer loop
vertex 716.7647620143566 -175.66365766243388 149.7921863285738
vertex 17.999999999998973 -12.727922061357255 312.72792206135387
vertex 713.7500000662461 -176.5466609980242 148.9091829929833
endloop
endfacet
facet normal -2.793895669829204e-15 -0.7071067811865485 0.7071067811865466
outer loop
vertex 713.7500000662461 -176.5466609980242 148.9091829929833
vertex 17.999999999998973 -12.727922061357255 312.72792206135387
vertex 711.1611652953727 -177.95131645652904 147.5045275344789
endloop
endfacet
facet normal -2.793895669829204e-15 -0.7071067811865485 0.7071067811865466
outer loop
vertex 711.1611652953727 -177.95131645652904 147.5045275344789
vertex 17.999999999998973 -12.727922061357255 312.72792206135387
vertex 709.1746825147815 -179.7818990888508 145.6739449021564
endloop
endfacet
facet normal -2.793895669829204e-15 -0.7071067811865485 0.7071067811865466
outer loop
vertex 709.1746825147815 -179.7818990888508 145.6739449021564
vertex 17.999999999998973 -12.727922061357255 312.72792206135387
vertex 707.9259272444314 -181.9136577126019 143.54218627840555
endloop
endfacet
facet normal -2.793895669829204e-15 -0.7071067811865485 0.7071067811865466
outer loop
vertex 707.9259272444314 -181.9136577126019 143.54218627840555
vertex 17.999999999998973 -12.727922061357255 312.72792206135387
vertex 707.5000000931302 -184.2013164991004 141.25452749190723
endloop
endfacet
facet normal -2.793895669829204e-15 -0.7071067811865485 0.7071067811865466
outer loop
vertex 707.5000000931302 -184.2013164991004 141.25452749190723
vertex 17.999999999998973 -12.727922061357255 312.72792206135387
vertex 270.1259905238101 -177.9513164565286 147.5045275344776
endloop
endfacet
facet normal -2.793895669829204e-15 -0.7071067811865485 0.7071067811865466
outer loop
vertex 707.5000000931302 -184.2013164991004 141.25452749190723
vertex 270.1259905238101 -177.9513164565286 147.5045275344776
vertex 272.1124733044006 -179.78189908885042 145.67394490215543
endloop
endfacet
facet normal -2.793895669829204e-15 -0.7071067811865485 0.7071067811865466
outer loop
vertex 707.5000000931302 -184.2013164991004 141.25452749190723
vertex 272.1124733044006 -179.78189908885042 145.67394490215543
vertex 273.36122857475164 -181.91365771260115 143.54218627840424
endloop
endfacet
facet normal -2.793895669829204e-15 -0.7071067811865485 0.7071067811865466
outer loop
vertex 707.5000000931302 -184.2013164991004 141.25452749190723
vertex 273.36122857475164 -181.91365771260115 143.54218627840424
vertex 273.78715572605057 -184.2013164991 141.2545274919063
endloop
endfacet
facet normal -2.793895669829204e-15 -0.7071067811865485 0.7071067811865466
outer loop
vertex 270.1259905238101 -177.9513164565286 147.5045275344776
vertex 17.999999999998973 -12.727922061357255 312.72792206135387
vertex 267.5371557529367 -176.5466609980237 148.9091829929822
endloop
endfacet
facet normal -2.793895669829204e-15 -0.7071067811865485 0.7071067811865466
outer loop
vertex 267.5371557529367 -176.5466609980237 148.9091829929822
vertex 17.999999999998973 -12.727922061357255 312.72792206135387
vertex 264.52239380482604 -175.66365766243334 149.79218632857257
endloop
endfacet
facet normal -2.793895669829204e-15 -0.7071067811865485 0.7071067811865466
outer loop
vertex 264.52239380482604 -175.66365766243334 149.79218632857257
vertex 17.999999999998973 -12.727922061357255 312.72792206135387
vertex 261.28715572605086 -175.3624816684134 150.09336232259247
endloop
endfacet
facet normal -2.793895669829204e-15 -0.7071067811865485 0.7071067811865466
outer loop
vertex 261.28715572605086 -175.3624816684134 150.09336232259247
vertex 17.999999999998973 -12.727922061357255 312.72792206135387
vertex 186.28715572605188 -175.36248166841244 150.0933623225921
endloop
endfacet
facet normal -2.793895669829204e-15 -0.7071067811865485 0.7071067811865466
outer loop
vertex 186.28715572605188 -175.36248166841244 150.0933623225921
vertex 17.999999999998973 -12.727922061357255 312.72792206135387
vertex 183.05191764727672 -175.66365766243254 149.79218632857257
endloop
endfacet
facet normal -2.793895669829204e-15 -0.7071067811865485 0.7071067811865466
outer loop
vertex 183.05191764727672 -175.66365766243254 149.79218632857257
vertex 17.999999999998973 -12.727922061357255 312.72792206135387
vertex 180.03715569916625 -176.54666099802282 148.90918299298212
endloop
endfacet
facet normal -2.793895669829204e-15 -0.7071067811865485 0.7071067811865466
outer loop
vertex 180.03715569916625 -176.54666099802282 148.90918299298212
vertex 17.999999999998973 -12.727922061357255 312.72792206135387
vertex 177.4483209282928 -177.95131645652768 147.5045275344777
endloop
endfacet
facet normal -2.793895669829204e-15 -0.7071067811865485 0.7071067811865466
outer loop
vertex 177.4483209282928 -177.95131645652768 147.5045275344777
vertex 17.999999999998973 -12.727922061357255 312.72792206135387
vertex 175.46183814770177 -179.78189908884946 145.6739449021551
endloop
endfacet
facet normal -2.793895669829204e-15 -0.7071067811865485 0.7071067811865466
outer loop
vertex 175.46183814770177 -179.78189908884946 145.6739449021551
vertex 17.999999999998973 -12.727922061357255 312.72792206135387
vertex 174.2130828773513 -181.9136577126005 143.5421862784044
endloop
endfacet
facet normal -2.793895669829204e-15 -0.7071067811865485 0.7071067811865466
outer loop
vertex 174.2130828773513 -181.9136577126005 143.5421862784044
vertex 17.999999999998973 -12.727922061357255 312.72792206135387
vertex 173.7871557260502 -184.201316499099 141.25452749190612
endloop
endfacet
facet normal -2.793895669829204e-15 -0.7071067811865485 0.7071067811865466
outer loop
vertex 991.9999999999991 -212.1320343559693 113.32380976674727
vertex 794.9999999068666 -193.04015119807826 132.41569279292963
vertex 17.999999999998614 -212.1320343559664 113.32380976674642
endloop
endfacet
facet normal -2.793895669829204e-15 -0.7071067811865485 0.7071067811865466
outer loop
vertex 794.9999999068666 -193.04015119807826 132.41569279292963
vertex 991.9999999999991 -212.1320343559693 113.32380976674727
vertex 798.2352379919882 -192.73897523814787 132.71686875286116
endloop
endfacet
facet normal -2.793895669829204e-15 -0.7071067811865485 0.7071067811865466
outer loop
vertex 798.2352379919882 -192.73897523814787 132.71686875286116
vertex 991.9999999999991 -212.1320343559693 113.32380976674727
vertex 801.2499999587064 -191.85597193432275 133.5998720566855
endloop
endfacet
facet normal -2.793895669829204e-15 -0.7071067811865485 0.7071067811865466
outer loop
vertex 801.2499999587064 -191.85597193432275 133.5998720566855
vertex 991.9999999999991 -212.1320343559693 113.32380976674727
vertex 803.8388347591817 -190.4513165030958 135.00452748791247
endloop
endfacet
facet normal -2.793895669829204e-15 -0.7071067811865485 0.7071067811865466
outer loop
vertex 803.8388347591817 -190.4513165030958 135.00452748791247
vertex 991.9999999999991 -212.1320343559693 113.32380976674727
vertex 805.8253175783485 -188.62073389170504 136.83511009930376
endloop
endfacet
facet normal -2.793895669829204e-15 -0.7071067811865485 0.7071067811865466
outer loop
vertex 805.8253175783485 -188.62073389170504 136.83511009930376
vertex 991.9999999999991 -212.1320343559693 113.32380976674727
vertex 991.9999999999993 -12.727922061360324 312.7279220613548
endloop
endfacet
facet normal -2.793895669829204e-15 -0.7071067811865485 0.7071067811865466
outer loop
vertex 805.8253175783485 -188.62073389170504 136.83511009930376
vertex 991.9999999999993 -12.727922061360324 312.7279220613548
vertex 807.0740728936229 -186.48897528111175 138.9668687098968
endloop
endfacet
facet normal -2.793895669829204e-15 -0.7071067811865485 0.7071067811865466
outer loop
vertex 807.0740728936229 -186.48897528111175 138.9668687098968
vertex 991.9999999999993 -12.727922061360324 312.7279220613548
vertex 807.5000000931307 -184.20131649910144 141.25452749190737
endloop
endfacet
facet normal -2.793895669829204e-15 -0.7071067811865485 0.7071067811865466
outer loop
vertex 17.999999999998614 -212.1320343559664 113.32380976674642
vertex 794.9999999068666 -193.04015119807826 132.41569279292963
vertex 720.0000000931317 -193.04015119807744 132.4156927929296
endloop
endfacet
facet normal -2.793895669829204e-15 -0.7071067811865485 0.7071067811865466
outer loop
vertex 17.999999999998614 -212.1320343559664 113.32380976674642
vertex 720.0000000931317 -193.04015119807744 132.4156927929296
vertex 716.7647621942743 -192.73897523814674 132.71686875286085
endloop
endfacet
facet normal -2.793895669829204e-15 -0.7071067811865485 0.7071067811865466
outer loop
vertex 17.999999999998614 -212.1320343559664 113.32380976674642
vertex 716.7647621942743 -192.73897523814674 132.71686875286085
vertex 713.7500002275558 -191.85597193432181 133.59987205668537
endloop
endfacet
facet normal -2.793895669829204e-15 -0.7071067811865485 0.7071067811865466
outer loop
vertex 17.999999999998614 -212.1320343559664 113.32380976674642
vertex 713.7500002275558 -191.85597193432181 133.59987205668537
vertex 711.1611654270814 -190.45131650309486 135.00452748791233
endloop
endfacet
facet normal -2.793895669829204e-15 -0.7071067811865485 0.7071067811865466
outer loop
vertex 17.999999999998614 -212.1320343559664 113.32380976674642
vertex 711.1611654270814 -190.45131650309486 135.00452748791233
vertex 709.174682607914 -188.6207338917042 136.835110099304
endloop
endfacet
facet normal -2.793895669829204e-15 -0.7071067811865485 0.7071067811865466
outer loop
vertex 17.999999999998614 -212.1320343559664 113.32380976674642
vertex 709.174682607914 -188.6207338917042 136.835110099304
vertex 707.92592729264 -186.48897528111087 138.96686870989657
endloop
endfacet
facet normal -2.793895669829204e-15 -0.7071067811865485 0.7071067811865466
outer loop
vertex 17.999999999998614 -212.1320343559664 113.32380976674642
vertex 707.92592729264 -186.48897528111087 138.96686870989657
vertex 707.5000000931302 -184.2013164991004 141.25452749190723
endloop
endfacet
facet normal -2.793895669829204e-15 -0.7071067811865485 0.7071067811865466
outer loop
vertex 17.999999999998614 -212.1320343559664 113.32380976674642
vertex 707.5000000931302 -184.2013164991004 141.25452749190723
vertex 261.28715553978657 -193.04015119807687 132.41569279292847
endloop
endfacet
facet normal -2.793895669829204e-15 -0.7071067811865485 0.7071067811865466
outer loop
vertex 261.28715553978657 -193.04015119807687 132.41569279292847
vertex 707.5000000931302 -184.2013164991004 141.25452749190723
vertex 264.5223936249082 -192.73897523814648 132.71686875285997
endloop
endfacet
facet normal -2.793895669829204e-15 -0.7071067811865485 0.7071067811865466
outer loop
vertex 264.5223936249082 -192.73897523814648 132.71686875285997
vertex 707.5000000931302 -184.2013164991004 141.25452749190723
vertex 267.5371555916265 -191.8559719343214 133.59987205668438
endloop
endfacet
facet normal -2.793895669829204e-15 -0.7071067811865485 0.7071067811865466
outer loop
vertex 267.5371555916265 -191.8559719343214 133.59987205668438
vertex 707.5000000931302 -184.2013164991004 141.25452749190723
vertex 270.12599039210176 -190.4513165030945 135.0045274879112
endloop
endfacet
facet normal -2.793895669829204e-15 -0.7071067811865485 0.7071067811865466
outer loop
vertex 270.12599039210176 -190.4513165030945 135.0045274879112
vertex 707.5000000931302 -184.2013164991004 141.25452749190723
vertex 272.1124732112685 -188.6207338917036 136.83511009930254
endloop
endfacet
facet normal -2.793895669829204e-15 -0.7071067811865485 0.7071067811865466
outer loop
vertex 272.1124732112685 -188.6207338917036 136.83511009930254
vertex 707.5000000931302 -184.2013164991004 141.25452749190723
vertex 273.3612285265429 -186.4889752811103 138.96686870989558
endloop
endfacet
facet normal -2.793895669829204e-15 -0.7071067811865485 0.7071067811865466
outer loop
vertex 273.3612285265429 -186.4889752811103 138.96686870989558
vertex 707.5000000931302 -184.2013164991004 141.25452749190723
vertex 273.78715572605057 -184.2013164991 141.2545274919063
endloop
endfacet
facet normal -2.793895669829204e-15 -0.7071067811865485 0.7071067811865466
outer loop
vertex 17.999999999998614 -212.1320343559664 113.32380976674642
vertex 261.28715553978657 -193.04015119807687 132.41569279292847
vertex 186.2871557260515 -193.04015119807613 132.41569279292838
endloop
endfacet
facet normal -2.793895669829204e-15 -0.7071067811865485 0.7071067811865466
outer loop
vertex 17.999999999998614 -212.1320343559664 113.32380976674642
vertex 186.2871557260515 -193.04015119807613 132.41569279292838
vertex 183.05191782719422 -192.73897523814534 132.7168687528597
endloop
endfacet
facet normal -2.793895669829204e-15 -0.7071067811865485 0.7071067811865466
outer loop
vertex 17.999999999998614 -212.1320343559664 113.32380976674642
vertex 183.05191782719422 -192.73897523814534 132.7168687528597
vertex 180.03715586047574 -191.8559719343204 133.5998720566842
endloop
endfacet
facet normal -2.793895669829204e-15 -0.7071067811865485 0.7071067811865466
outer loop
vertex 17.999999999998614 -212.1320343559664 113.32380976674642
vertex 180.03715586047574 -191.8559719343204 133.5998720566842
vertex 177.4483210600012 -190.45131650309344 135.00452748791116
endloop
endfacet
facet normal -2.793895669829204e-15 -0.7071067811865485 0.7071067811865466
outer loop
vertex 17.999999999998614 -212.1320343559664 113.32380976674642
vertex 177.4483210600012 -190.45131650309344 135.00452748791116
vertex 175.46183824083394 -188.62073389170277 136.83511009930282
endloop
endfacet
facet normal -2.793895669829204e-15 -0.7071067811865485 0.7071067811865466
outer loop
vertex 17.999999999998614 -212.1320343559664 113.32380976674642
vertex 175.46183824083394 -188.62073389170277 136.83511009930282
vertex 174.21308292556 -186.48897528110948 138.96686870989544
endloop
endfacet
facet normal -2.793895669829204e-15 -0.7071067811865485 0.7071067811865466
outer loop
vertex 17.999999999998614 -212.1320343559664 113.32380976674642
vertex 174.21308292556 -186.48897528110948 138.96686870989544
vertex 173.7871557260502 -184.201316499099 141.25452749190612
endloop
endfacet
facet normal -2.793895669829204e-15 -0.7071067811865485 0.7071067811865466
outer loop
vertex 17.999999999998614 -212.1320343559664 113.32380976674642
vertex 173.7871557260502 -184.201316499099 141.25452749190612
vertex 17.999999999998973 -12.727922061357255 312.72792206135387
endloop
endfacet
facet normal -0.8660254062679692 -0.35355338755157556 -0.3535533875515897
outer loop
vertex 272.1124733044009 -167.05397702749346 132.94602284079826
vertex 270.1259905238101 -177.9513164565286 147.5045275344776
vertex 270.1259905238106 -165.22339439517097 134.7766054731203
endloop
endfacet
facet normal -0.7071067838207491 -0.499999998137333 -0.49999999813734364
outer loop
vertex 270.1259905238101 -177.9513164565286 147.5045275344776
vertex 272.1124733044009 -167.05397702749346 132.94602284079826
vertex 272.1124733044006 -179.78189908885042 145.67394490215543
endloop
endfacet
facet normal 1.0 5.268301145082286e-09 5.268331137239621e-09
outer loop
vertex 173.7871557260502 -184.201316499099 141.25452749190612
vertex 174.21308292555946 -173.76105321975237 126.2389466485385
vertex 173.7871557260511 -171.47339443774146 128.52660543054876
endloop
endfacet
facet normal 0.9659258240392992 0.18301270782926435 0.1830127078292683
outer loop
vertex 174.21308292555946 -173.76105321975237 126.2389466485385
vertex 173.7871557260502 -184.201316499099 141.25452749190612
vertex 174.21308292556 -186.48897528110948 138.96686870989544
endloop
endfacet
facet normal -0.7071067732840236 0.5000000055879275 0.5000000055879291
outer loop
vertex 270.12599039210164 -177.72339444173736 122.27660542655431
vertex 272.1124732112685 -188.6207338917036 136.83511009930254
vertex 272.11247321126854 -175.89281183034643 124.10718803794542
endloop
endfacet
facet normal -0.8660253988173845 0.3535533966766505 0.3535533966766451
outer loop
vertex 272.1124732112685 -188.6207338917036 136.83511009930254
vertex 270.12599039210164 -177.72339444173736 122.27660542655431
vertex 270.12599039210176 -190.4513165030945 135.0045274879112
endloop
endfacet
facet normal 0.1305261928355924 -0.7010573845926773 -0.7010573845926744
outer loop
vertex 186.28715572605188 -175.36248166841244 150.0933623225921
vertex 183.05191764727692 -162.93573560107487 137.06426426721495
vertex 186.28715572605205 -162.63455960705505 137.36544026123477
endloop
endfacet
facet normal 0.25881904630194613 -0.6830127016649695 -0.6830127016649621
outer loop
vertex 183.05191764727692 -162.93573560107487 137.06426426721495
vertex 186.28715572605188 -175.36248166841244 150.0933623225921
vertex 183.05191764727672 -175.66365766243254 149.79218632857257
endloop
endfacet
facet normal -0.9659258240393562 0.18301270782911902 0.1830127078291135
outer loop
vertex 273.3612285265432 -173.76105321975325 126.23894664853859
vertex 273.78715572605057 -184.2013164991 141.2545274919063
vertex 273.7871557260503 -171.47339443774268 128.52660543054904
endloop
endfacet
facet normal -1.0 5.268339930395594e-09 5.268345164346668e-09
outer loop
vertex 273.78715572605057 -184.2013164991 141.2545274919063
vertex 273.3612285265432 -173.76105321975325 126.23894664853859
vertex 273.3612285265429 -186.4889752811103 138.96686870989558
endloop
endfacet
facet normal -0.49999998924599437 0.612372440086099 0.6123724400860988
outer loop
vertex 267.5371555916265 -191.8559719343214 133.59987205668438
vertex 270.12599039210164 -177.72339444173736 122.27660542655431
vertex 267.5371555916266 -179.12804987296397 120.87194999532699
endloop
endfacet
facet normal -0.7071067732840236 0.5000000055879275 0.5000000055879291
outer loop
vertex 270.12599039210164 -177.72339444173736 122.27660542655431
vertex 267.5371555916265 -191.8559719343214 133.59987205668438
vertex 270.12599039210176 -190.4513165030945 135.0045274879112
endloop
endfacet
facet normal 0.5000000021508184 -0.6123724348177343 -0.612372434817719
outer loop
vertex 180.03715569916662 -163.81873893666537 136.181260931625
vertex 177.4483209282928 -177.95131645652768 147.5045275344777
vertex 177.448320928293 -165.22339439516998 134.77660547312027
endloop
endfacet
facet normal 0.707106783820711 -0.49999999813737606 -0.49999999813735435
outer loop
vertex 177.4483209282928 -177.95131645652768 147.5045275344777
vertex 180.03715569916662 -163.81873893666537 136.181260931625
vertex 180.03715569916625 -176.54666099802282 148.90918299298212
endloop
endfacet
facet normal -6.3264110865759256e-15 -0.7071067811865472 -0.7071067811865478
outer loop
vertex 261.2871557260513 -162.63455960705625 137.36544026123525
vertex 186.28715572605188 -175.36248166841244 150.0933623225921
vertex 186.28715572605205 -162.63455960705505 137.36544026123477
endloop
endfacet
facet normal -6.3264110865759256e-15 -0.7071067811865472 -0.7071067811865478
outer loop
vertex 186.28715572605188 -175.36248166841244 150.0933623225921
vertex 261.2871557260513 -162.63455960705625 137.36544026123525
vertex 261.28715572605086 -175.3624816684134 150.09336232259247
endloop
endfacet
facet normal -0.5000000021508011 -0.6123724348177362 -0.6123724348177313
outer loop
vertex 267.5371557529367 -176.5466609980237 148.9091829929822
vertex 264.5223938048259 -162.935735601076 137.06426426721526
vertex 267.53715575293626 -163.81873893666622 136.18126093162476
endloop
endfacet
facet normal -0.2588190463019762 -0.6830127016649635 -0.6830127016649568
outer loop
vertex 264.5223938048259 -162.935735601076 137.06426426721526
vertex 267.5371557529367 -176.5466609980237 148.9091829929822
vertex 264.52239380482604 -175.66365766243334 149.79218632857257
endloop
endfacet
facet normal -0.13052617806190442 0.7010573859679935 0.7010573859679933
outer loop
vertex 261.28715553978657 -193.04015119807687 132.41569279292847
vertex 264.5223936249081 -180.01105317678903 119.98894669150245
vertex 261.2871555397868 -180.31222913671942 119.6877707315712
endloop
endfacet
facet normal -0.2588190319085338 0.6830127043920673 0.6830127043920661
outer loop
vertex 264.5223936249081 -180.01105317678903 119.98894669150245
vertex 261.28715553978657 -193.04015119807687 132.41569279292847
vertex 264.5223936249082 -192.73897523814648 132.71686875285997
endloop
endfacet
facet normal 0.7071067732840396 0.5000000055879182 0.5000000055879155
outer loop
vertex 177.4483210600012 -190.45131650309344 135.00452748791116
vertex 180.0371558604759 -179.1280498729629 120.87194999532672
vertex 177.44832106000084 -177.72339444173593 122.27660542655367
endloop
endfacet
facet normal 0.4999999892460233 0.6123724400860845 0.6123724400860898
outer loop
vertex 180.0371558604759 -179.1280498729629 120.87194999532672
vertex 177.4483210600012 -190.45131650309344 135.00452748791116
vertex 180.03715586047574 -191.8559719343204 133.5998720566842
endloop
endfacet
facet normal -0.2588190463019733 -0.6830127016649641 -0.6830127016649573
outer loop
vertex 264.52239380482604 -175.66365766243334 149.79218632857257
vertex 261.2871557260513 -162.63455960705625 137.36544026123525
vertex 264.5223938048259 -162.935735601076 137.06426426721526
endloop
endfacet
facet normal -0.13052619283564335 -0.7010573845926718 -0.7010573845926704
outer loop
vertex 261.2871557260513 -162.63455960705625 137.36544026123525
vertex 264.52239380482604 -175.66365766243334 149.79218632857257
vertex 261.28715572605086 -175.3624816684134 150.09336232259247
endloop
endfacet
facet normal 0.25881903550689594 0.6830127037102843 0.6830127037102952
outer loop
vertex 183.0519178271944 -180.01105317678787 119.98894669150236
vertex 186.2871557260515 -193.04015119807613 132.41569279292838
vertex 186.2871557260517 -180.31222913671866 119.68777073157108
endloop
endfacet
facet normal 0.13052618544875982 0.7010573852803285 0.7010573852803387
outer loop
vertex 186.2871557260515 -193.04015119807613 132.41569279292838
vertex 183.0519178271944 -180.01105317678787 119.98894669150236
vertex 183.05191782719422 -192.73897523814534 132.7168687528597
endloop
endfacet
facet normal 7.529596800737049e-15 0.7071067811865437 0.7071067811865513
outer loop
vertex 186.2871557260515 -193.04015119807613 132.41569279292838
vertex 261.2871555397868 -180.31222913671942 119.6877707315712
vertex 186.2871557260517 -180.31222913671866 119.68777073157108
endloop
endfacet
facet normal 7.529596800737049e-15 0.7071067811865437 0.7071067811865513
outer loop
vertex 261.2871555397868 -180.31222913671942 119.6877707315712
vertex 186.2871557260515 -193.04015119807613 132.41569279292838
vertex 261.28715553978657 -193.04015119807687 132.41569279292847
endloop
endfacet
facet normal -0.8660253988173822 0.3535533966766533 0.3535533966766479
outer loop
vertex 272.11247321126854 -175.89281183034643 124.10718803794542
vertex 273.3612285265429 -186.4889752811103 138.96686870989558
vertex 273.3612285265432 -173.76105321975325 126.23894664853859
endloop
endfacet
facet normal -0.9659258240393557 0.18301270782912044 0.18301270782911494
outer loop
vertex 273.3612285265429 -186.4889752811103 138.96686870989558
vertex 272.11247321126854 -175.89281183034643 124.10718803794542
vertex 272.1124732112685 -188.6207338917036 136.83511009930254
endloop
endfacet
facet normal -1.0 5.268330510241174e-09 5.268335744192248e-09
outer loop
vertex 273.7871557260503 -171.47339443774268 128.52660543054904
vertex 273.36122857475164 -181.91365771260115 143.54218627840424
vertex 273.36122857475175 -169.1857356512439 130.81426421704705
endloop
endfacet
facet normal -0.9659258278960596 -0.18301269765143596 -0.18301269765143596
outer loop
vertex 273.36122857475164 -181.91365771260115 143.54218627840424
vertex 273.7871557260503 -171.47339443774268 128.52660543054904
vertex 273.78715572605057 -184.2013164991 141.2545274919063
endloop
endfacet
facet normal 0.9659258278960087 -0.1830126976515846 -0.18301269765155628
outer loop
vertex 174.2130828773513 -181.9136577126005 143.5421862784044
vertex 173.7871557260511 -171.47339443774146 128.52660543054876
vertex 174.2130828773513 -169.18573565124288 130.81426421704697
endloop
endfacet
facet normal 1.0 5.268294005928738e-09 5.268323998086073e-09
outer loop
vertex 173.7871557260511 -171.47339443774146 128.52660543054876
vertex 174.2130828773513 -181.9136577126005 143.5421862784044
vertex 173.7871557260502 -184.201316499099 141.25452749190612
endloop
endfacet
facet normal 0.9659258240392992 0.18301270782926501 0.18301270782926896
outer loop
vertex 174.21308292556 -186.48897528110948 138.96686870989544
vertex 175.46183824083394 -175.89281183034475 124.10718803794484
vertex 174.21308292555946 -173.76105321975237 126.2389466485385
endloop
endfacet
facet normal 0.8660253988173905 0.3535533966766446 0.3535533966766362
outer loop
vertex 175.46183824083394 -175.89281183034475 124.10718803794484
vertex 174.21308292556 -186.48897528110948 138.96686870989544
vertex 175.46183824083394 -188.62073389170277 136.83511009930282
endloop
endfacet
facet normal -0.2588190319085338 0.6830127043920673 0.6830127043920661
outer loop
vertex 264.5223936249081 -180.01105317678903 119.98894669150245
vertex 267.5371555916265 -191.8559719343214 133.59987205668438
vertex 267.5371555916266 -179.12804987296397 120.87194999532699
endloop
endfacet
facet normal -0.49999998924599437 0.612372440086099 0.6123724400860988
outer loop
vertex 267.5371555916265 -191.8559719343214 133.59987205668438
vertex 264.5223936249081 -180.01105317678903 119.98894669150245
vertex 264.5223936249082 -192.73897523814648 132.71686875285997
endloop
endfacet
facet normal 0.7071067732840396 0.5000000055879182 0.5000000055879155
outer loop
vertex 177.4483210600012 -190.45131650309344 135.00452748791116
vertex 175.46183824083394 -175.89281183034475 124.10718803794484
vertex 175.46183824083394 -188.62073389170277 136.83511009930282
endloop
endfacet
facet normal 0.8660253988173905 0.3535533966766446 0.3535533966766362
outer loop
vertex 175.46183824083394 -175.89281183034475 124.10718803794484
vertex 177.4483210600012 -190.45131650309344 135.00452748791116
vertex 177.44832106000084 -177.72339444173593 122.27660542655367
endloop
endfacet
facet normal -0.8660254062679692 -0.35355338755157556 -0.3535533875515897
outer loop
vertex 272.1124733044009 -167.05397702749346 132.94602284079826
vertex 273.36122857475164 -181.91365771260115 143.54218627840424
vertex 272.1124733044006 -179.78189908885042 145.67394490215543
endloop
endfacet
facet normal -0.9659258278960596 -0.18301269765143596 -0.18301269765143596
outer loop
vertex 273.36122857475164 -181.91365771260115 143.54218627840424
vertex 272.1124733044009 -167.05397702749346 132.94602284079826
vertex 273.36122857475175 -169.1857356512439 130.81426421704705
endloop
endfacet
facet normal 0.49999998924601535 0.6123724400860876 0.6123724400860929
outer loop
vertex 180.03715586047574 -191.8559719343204 133.5998720566842
vertex 183.0519178271944 -180.01105317678787 119.98894669150236
vertex 180.0371558604759 -179.1280498729629 120.87194999532672
endloop
endfacet
facet normal 0.25881903550689594 0.6830127037102843 0.6830127037102952
outer loop
vertex 183.0519178271944 -180.01105317678787 119.98894669150236
vertex 180.03715586047574 -191.8559719343204 133.5998720566842
vertex 183.05191782719422 -192.73897523814534 132.7168687528597
endloop
endfacet
facet normal 0.707106783820711 -0.49999999813737606 -0.49999999813735435
outer loop
vertex 177.4483209282928 -177.95131645652768 147.5045275344777
vertex 175.46183814770194 -167.05397702749218 132.9460228407979
vertex 177.448320928293 -165.22339439516998 134.77660547312027
endloop
endfacet
facet normal 0.8660254062679752 -0.3535533875515853 -0.3535533875515648
outer loop
vertex 175.46183814770194 -167.05397702749218 132.9460228407979
vertex 177.4483209282928 -177.95131645652768 147.5045275344777
vertex 175.46183814770177 -179.78189908884946 145.6739449021551
endloop
endfacet
facet normal 0.9659258278960087 -0.1830126976515846 -0.18301269765155628
outer loop
vertex 174.2130828773513 -181.9136577126005 143.5421862784044
vertex 175.46183814770194 -167.05397702749218 132.9460228407979
vertex 175.46183814770177 -179.78189908884946 145.6739449021551
endloop
endfacet
facet normal 0.8660254062679752 -0.3535533875515853 -0.3535533875515648
outer loop
vertex 175.46183814770194 -167.05397702749218 132.9460228407979
vertex 174.2130828773513 -181.9136577126005 143.5421862784044
vertex 174.2130828773513 -169.18573565124288 130.81426421704697
endloop
endfacet
facet normal 0.25881904630195557 -0.6830127016649677 -0.6830127016649603
outer loop
vertex 183.05191764727672 -175.66365766243254 149.79218632857257
vertex 180.03715569916662 -163.81873893666537 136.181260931625
vertex 183.05191764727692 -162.93573560107487 137.06426426721495
endloop
endfacet
facet normal 0.5000000021508184 -0.6123724348177343 -0.612372434817719
outer loop
vertex 180.03715569916662 -163.81873893666537 136.181260931625
vertex 183.05191764727672 -175.66365766243254 149.79218632857257
vertex 180.03715569916625 -176.54666099802282 148.90918299298212
endloop
endfacet
facet normal -0.7071067838207453 -0.4999999981373356 -0.4999999981373462
outer loop
vertex 270.1259905238106 -165.22339439517097 134.7766054731203
vertex 267.5371557529367 -176.5466609980237 148.9091829929822
vertex 267.53715575293626 -163.81873893666622 136.18126093162476
endloop
endfacet
facet normal -0.5000000021508011 -0.6123724348177362 -0.6123724348177313
outer loop
vertex 267.5371557529367 -176.5466609980237 148.9091829929822
vertex 270.1259905238106 -165.22339439517097 134.7766054731203
vertex 270.1259905238101 -177.9513164565286 147.5045275344776
endloop
endfacet
facet normal -0.9659258278960589 -0.18301269765143788 -0.18301269765143788
outer loop
vertex 807.0740729418318 -169.1857356512453 130.81426421704822
vertex 807.5000000931307 -184.20131649910144 141.25452749190737
vertex 807.0740729418317 -181.91365771260257 143.54218627840555
endloop
endfacet
facet normal -1.0 5.268339520823617e-09 5.268344754774691e-09
outer loop
vertex 807.5000000931307 -184.20131649910144 141.25452749190737
vertex 807.0740729418318 -169.1857356512453 130.81426421704822
vertex 807.5000000931303 -171.47339443774413 128.52660543055012
endloop
endfacet
facet normal 0.9659258240392992 0.18301270782926501 0.18301270782926896
outer loop
vertex 707.92592729264 -186.48897528111087 138.96686870989657
vertex 707.5000000931311 -171.473394437743 128.5266054305499
vertex 707.5000000931302 -184.2013164991004 141.25452749190723
endloop
endfacet
facet normal 1.0 5.268294308381791e-09 5.268324300539126e-09
outer loop
vertex 707.5000000931311 -171.473394437743 128.5266054305499
vertex 707.92592729264 -186.48897528111087 138.96686870989657
vertex 707.9259272926395 -173.76105321975376 126.23894664853968
endloop
endfacet
facet normal -0.5000000021508002 -0.6123724348177364 -0.6123724348177315
outer loop
vertex 801.2500001200167 -176.54666099802515 148.90918299298343
vertex 798.2352381719058 -162.9357356010774 137.06426426721643
vertex 801.2500001200162 -163.81873893666761 136.18126093162596
endloop
endfacet
facet normal -0.25881904630197583 -0.6830127016649635 -0.6830127016649568
outer loop
vertex 798.2352381719058 -162.9357356010774 137.06426426721643
vertex 801.2500001200167 -176.54666099802515 148.90918299298343
vertex 798.2352381719061 -175.6636576624348 149.7921863285738
endloop
endfacet
facet normal -0.4999999892459943 0.612372440086099 0.6123724400860988
outer loop
vertex 801.2499999587064 -191.85597193432275 133.5998720566855
vertex 803.8388347591817 -177.72339444173878 122.27660542655548
vertex 801.2499999587066 -179.12804987296536 120.87194999532817
endloop
endfacet
facet normal -0.7071067732840234 0.5000000055879275 0.5000000055879291
outer loop
vertex 803.8388347591817 -177.72339444173878 122.27660542655548
vertex 801.2499999587064 -191.85597193432275 133.5998720566855
vertex 803.8388347591817 -190.4513165030958 135.00452748791247
endloop
endfacet
facet normal 0.9659258278960087 -0.18301269765158504 -0.1830126976515567
outer loop
vertex 707.9259272444314 -181.9136577126019 143.54218627840555
vertex 709.1746825147818 -167.05397702749346 132.9460228407991
vertex 709.1746825147815 -179.7818990888508 145.6739449021564
endloop
endfacet
facet normal 0.8660254062679672 -0.3535533875515945 -0.35355338755157545
outer loop
vertex 709.1746825147818 -167.05397702749346 132.9460228407991
vertex 707.9259272444314 -181.9136577126019 143.54218627840555
vertex 707.9259272444314 -169.18573565124427 130.81426421704813
endloop
endfacet
facet normal 0.5000000021508273 -0.612372434817729 -0.6123724348177172
outer loop
vertex 713.7500000662461 -176.5466609980242 148.9091829929833
vertex 711.1611652953729 -165.2233943951715 134.77660547312144
vertex 713.7500000662466 -163.81873893666676 136.18126093162618
endloop
endfacet
facet normal 0.7071067838207025 -0.4999999981373803 -0.4999999981373622
outer loop
vertex 711.1611652953729 -165.2233943951715 134.77660547312144
vertex 713.7500000662461 -176.5466609980242 148.9091829929833
vertex 711.1611652953727 -177.95131645652904 147.5045275344789
endloop
endfacet
facet normal 7.529596800737052e-15 0.7071067811865437 0.7071067811865513
outer loop
vertex 720.0000000931317 -193.04015119807744 132.4156927929296
vertex 794.9999999068668 -180.31222913672082 119.68777073157239
vertex 720.0000000931318 -180.31222913672002 119.68777073157234
endloop
endfacet
facet normal 7.529596800737052e-15 0.7071067811865437 0.7071067811865513
outer loop
vertex 794.9999999068668 -180.31222913672082 119.68777073157239
vertex 720.0000000931317 -193.04015119807744 132.4156927929296
vertex 794.9999999068666 -193.04015119807826 132.41569279292963
endloop
endfacet
facet normal 0.7071067732840277 0.5000000055879286 0.5000000055879222
outer loop
vertex 711.1611654270814 -190.45131650309486 135.00452748791233
vertex 713.7500002275559 -179.12804987296428 120.8719499953279
vertex 711.161165427081 -177.72339444173733 122.27660542655485
endloop
endfacet
facet normal 0.49999998924602396 0.6123724400860859 0.6123724400860877
outer loop
vertex 713.7500002275559 -179.12804987296428 120.8719499953279
vertex 711.1611654270814 -190.45131650309486 135.00452748791233
vertex 713.7500002275558 -191.85597193432181 133.59987205668537
endloop
endfacet
facet normal 0.9659258278960087 -0.18301269765158504 -0.1830126976515567
outer loop
vertex 707.9259272444314 -181.9136577126019 143.54218627840555
vertex 707.5000000931311 -171.473394437743 128.5266054305499
vertex 707.9259272444314 -169.18573565124427 130.81426421704813
endloop
endfacet
facet normal 1.0 5.268294308381791e-09 5.268324300539126e-09
outer loop
vertex 707.5000000931311 -171.473394437743 128.5266054305499
vertex 707.9259272444314 -181.9136577126019 143.54218627840555
vertex 707.5000000931302 -184.2013164991004 141.25452749190723
endloop
endfacet
facet normal -6.326411086575928e-15 -0.7071067811865472 -0.7071067811865478
outer loop
vertex 795.0000000931313 -162.63455960705758 137.3654402612364
vertex 720.0000000931318 -175.3624816684139 150.09336232259332
vertex 720.0000000931318 -162.63455960705642 137.365440261236
endloop
endfacet
facet normal -6.326411086575928e-15 -0.7071067811865472 -0.7071067811865478
outer loop
vertex 720.0000000931318 -175.3624816684139 150.09336232259332
vertex 795.0000000931313 -162.63455960705758 137.3654402612364
vertex 795.0000000931309 -175.3624816684149 150.09336232259363
endloop
endfacet
facet normal 0.7071067732840277 0.5000000055879286 0.5000000055879222
outer loop
vertex 711.1611654270814 -190.45131650309486 135.00452748791233
vertex 709.174682607914 -175.89281183034615 124.10718803794602
vertex 709.174682607914 -188.6207338917042 136.835110099304
endloop
endfacet
facet normal 0.8660253988173823 0.35355339667665536 0.35355339667664565
outer loop
vertex 709.174682607914 -175.89281183034615 124.10718803794602
vertex 711.1611654270814 -190.45131650309486 135.00452748791233
vertex 711.161165427081 -177.72339444173733 122.27660542655485
endloop
endfacet
facet normal 0.258819046301954 -0.6830127016649672 -0.6830127016649615
outer loop
vertex 716.7647620143566 -175.66365766243388 149.7921863285738
vertex 713.7500000662466 -163.81873893666676 136.18126093162618
vertex 716.7647620143567 -162.93573560107623 137.06426426721617
endloop
endfacet
facet normal 0.5000000021508174 -0.6123724348177328 -0.6123724348177211
outer loop
vertex 713.7500000662466 -163.81873893666676 136.18126093162618
vertex 716.7647620143566 -175.66365766243388 149.7921863285738
vertex 713.7500000662461 -176.5466609980242 148.9091829929833
endloop
endfacet
facet normal -0.8660254062679691 -0.35355338755157545 -0.3535533875515896
outer loop
vertex 805.825317671481 -167.0539770274949 132.94602284079932
vertex 807.0740729418317 -181.91365771260257 143.54218627840555
vertex 805.8253176714807 -179.78189908885193 145.67394490215656
endloop
endfacet
facet normal -0.9659258278960596 -0.18301269765143624 -0.18301269765143624
outer loop
vertex 807.0740729418317 -181.91365771260257 143.54218627840555
vertex 805.825317671481 -167.0539770274949 132.94602284079932
vertex 807.0740729418318 -169.1857356512453 130.81426421704822
endloop
endfacet
facet normal -0.25881904630197367 -0.683012701664964 -0.6830127016649572
outer loop
vertex 798.2352381719061 -175.6636576624348 149.7921863285738
vertex 795.0000000931313 -162.63455960705758 137.3654402612364
vertex 798.2352381719058 -162.9357356010774 137.06426426721643
endloop
endfacet
facet normal -0.13052619283564332 -0.7010573845926718 -0.7010573845926704
outer loop
vertex 795.0000000931313 -162.63455960705758 137.3654402612364
vertex 798.2352381719061 -175.6636576624348 149.7921863285738
vertex 795.0000000931309 -175.3624816684149 150.09336232259363
endloop
endfacet
facet normal 0.25881903550689667 0.6830127037102852 0.683012703710294
outer loop
vertex 716.7647621942745 -180.01105317678926 119.98894669150353
vertex 720.0000000931317 -193.04015119807744 132.4156927929296
vertex 720.0000000931318 -180.31222913672002 119.68777073157234
endloop
endfacet
facet normal 0.1305261854487598 0.701057385280329 0.7010573852803381
outer loop
vertex 720.0000000931317 -193.04015119807744 132.4156927929296
vertex 716.7647621942745 -180.01105317678926 119.98894669150353
vertex 716.7647621942743 -192.73897523814674 132.71686875286085
endloop
endfacet
facet normal 0.4999999892460152 0.6123724400860896 0.6123724400860914
outer loop
vertex 713.7500002275558 -191.85597193432181 133.59987205668537
vertex 716.7647621942745 -180.01105317678926 119.98894669150353
vertex 713.7500002275559 -179.12804987296428 120.8719499953279
endloop
endfacet
facet normal 0.25881903550689667 0.6830127037102852 0.683012703710294
outer loop
vertex 716.7647621942745 -180.01105317678926 119.98894669150353
vertex 713.7500002275558 -191.85597193432181 133.59987205668537
vertex 716.7647621942743 -192.73897523814674 132.71686875286085
endloop
endfacet
facet normal -0.8660253988173825 0.353553396676653 0.3535533966766476
outer loop
vertex 805.8253175783486 -175.8928118303478 124.10718803794664
vertex 807.0740728936229 -186.48897528111175 138.9668687098968
vertex 807.0740728936232 -173.76105321975467 126.23894664853977
endloop
endfacet
facet normal -0.9659258240393555 0.18301270782912096 0.1830127078291154
outer loop
vertex 807.0740728936229 -186.48897528111175 138.9668687098968
vertex 805.8253175783486 -175.8928118303478 124.10718803794664
vertex 805.8253175783485 -188.62073389170504 136.83511009930376
endloop
endfacet
facet normal -0.13052617806190442 0.7010573859679935 0.7010573859679933
outer loop
vertex 794.9999999068666 -193.04015119807826 132.41569279292963
vertex 798.235237991988 -180.0110531767903 119.98894669150363
vertex 794.9999999068668 -180.31222913672082 119.68777073157239
endloop
endfacet
facet normal -0.25881903190853356 0.6830127043920673 0.6830127043920662
outer loop
vertex 798.235237991988 -180.0110531767903 119.98894669150363
vertex 794.9999999068666 -193.04015119807826 132.41569279292963
vertex 798.2352379919882 -192.73897523814787 132.71686875286116
endloop
endfacet
facet normal -0.7071067732840234 0.5000000055879275 0.5000000055879291
outer loop
vertex 803.8388347591817 -177.72339444173878 122.27660542655548
vertex 805.8253175783485 -188.62073389170504 136.83511009930376
vertex 805.8253175783486 -175.8928118303478 124.10718803794664
endloop
endfacet
facet normal -0.8660253988173845 0.3535533966766505 0.3535533966766451
outer loop
vertex 805.8253175783485 -188.62073389170504 136.83511009930376
vertex 803.8388347591817 -177.72339444173878 122.27660542655548
vertex 803.8388347591817 -190.4513165030958 135.00452748791247
endloop
endfacet
facet normal -0.25881903190853356 0.6830127043920673 0.6830127043920662
outer loop
vertex 798.235237991988 -180.0110531767903 119.98894669150363
vertex 801.2499999587064 -191.85597193432275 133.5998720566855
vertex 801.2499999587066 -179.12804987296536 120.87194999532817
endloop
endfacet
facet normal -0.4999999892459943 0.612372440086099 0.6123724400860988
outer loop
vertex 801.2499999587064 -191.85597193432275 133.5998720566855
vertex 798.235237991988 -180.0110531767903 119.98894669150363
vertex 798.2352379919882 -192.73897523814787 132.71686875286116
endloop
endfacet
facet normal -0.8660254062679691 -0.35355338755157545 -0.3535533875515896
outer loop
vertex 805.825317671481 -167.0539770274949 132.94602284079932
vertex 803.8388348908902 -177.9513164565299 147.50452753447883
vertex 803.8388348908907 -165.22339439517236 134.77660547312146
endloop
endfacet
facet normal -0.7071067838207481 -0.4999999981373336 -0.49999999813734425
outer loop
vertex 803.8388348908902 -177.9513164565299 147.50452753447883
vertex 805.825317671481 -167.0539770274949 132.94602284079932
vertex 805.8253176714807 -179.78189908885193 145.67394490215656
endloop
endfacet
facet normal 0.8660254062679636 -0.3535533875515988 -0.3535533875515798
outer loop
vertex 709.1746825147815 -179.7818990888508 145.6739449021564
vertex 711.1611652953729 -165.2233943951715 134.77660547312144
vertex 711.1611652953727 -177.95131645652904 147.5045275344789
endloop
endfacet
facet normal 0.7071067838207025 -0.4999999981373803 -0.4999999981373622
outer loop
vertex 711.1611652953729 -165.2233943951715 134.77660547312144
vertex 709.1746825147815 -179.7818990888508 145.6739449021564
vertex 709.1746825147818 -167.05397702749346 132.9460228407991
endloop
endfacet
facet normal -0.9659258240393561 0.18301270782911896 0.1830127078291134
outer loop
vertex 807.0740728936232 -173.76105321975467 126.23894664853977
vertex 807.5000000931307 -184.20131649910144 141.25452749190737
vertex 807.5000000931303 -171.47339443774413 128.52660543055012
endloop
endfacet
facet normal -1.0 5.268339520823617e-09 5.268344754774691e-09
outer loop
vertex 807.5000000931307 -184.20131649910144 141.25452749190737
vertex 807.0740728936232 -173.76105321975467 126.23894664853977
vertex 807.0740728936229 -186.48897528111175 138.9668687098968
endloop
endfacet
facet normal 0.9659258240392992 0.18301270782926501 0.18301270782926896
outer loop
vertex 707.92592729264 -186.48897528111087 138.96686870989657
vertex 709.174682607914 -175.89281183034615 124.10718803794602
vertex 707.9259272926395 -173.76105321975376 126.23894664853968
endloop
endfacet
facet normal 0.8660253988173823 0.35355339667665536 0.35355339667664565
outer loop
vertex 709.174682607914 -175.89281183034615 124.10718803794602
vertex 707.92592729264 -186.48897528111087 138.96686870989657
vertex 709.174682607914 -188.6207338917042 136.835110099304
endloop
endfacet
facet normal -0.7071067838207462 -0.49999999813733503 -0.49999999813734564
outer loop
vertex 803.8388348908907 -165.22339439517236 134.77660547312146
vertex 801.2500001200167 -176.54666099802515 148.90918299298343
vertex 801.2500001200162 -163.81873893666761 136.18126093162596
endloop
endfacet
facet normal -0.5000000021508002 -0.6123724348177364 -0.6123724348177315
outer loop
vertex 801.2500001200167 -176.54666099802515 148.90918299298343
vertex 803.8388348908907 -165.22339439517236 134.77660547312146
vertex 803.8388348908902 -177.9513164565299 147.50452753447883
endloop
endfacet
facet normal 0.13052619283559236 -0.7010573845926767 -0.7010573845926747
outer loop
vertex 720.0000000931318 -175.3624816684139 150.09336232259332
vertex 716.7647620143567 -162.93573560107623 137.06426426721617
vertex 720.0000000931318 -162.63455960705642 137.365440261236
endloop
endfacet
facet normal 0.25881904630194646 -0.6830127016649685 -0.6830127016649629
outer loop
vertex 716.7647620143567 -162.93573560107623 137.06426426721617
vertex 720.0000000931318 -175.3624816684139 150.09336232259332
vertex 716.7647620143566 -175.66365766243388 149.7921863285738
endloop
endfacet
facet normal -5.621667701507995e-17 6.26659218343918e-16 1.0
outer loop
vertex 1010.0 -1.8047785488306544e-13 -165.0
vertex 17.999999999998973 17.999999999998288 -165.00000000000006
vertex 3.8454976989825155e-14 -4.5119463720766377e-13 -165.0
endloop
endfacet
facet normal -5.621667701507995e-17 6.26659218343918e-16 1.0
outer loop
vertex 17.999999999998973 17.999999999998288 -165.00000000000006
vertex 1010.0 -1.8047785488306544e-13 -165.0
vertex 992.0 17.999999999999957 -164.99999999999997
endloop
endfacet
facet normal 0.7071067811865491 0.7071067811865459 0.0
outer loop
vertex 992.0 17.999999999999957 -164.99999999999997
vertex 1010.0 -1.8047785488306544e-13 299.9999999999976
vertex 1010.0 -1.8047785488306544e-13 -165.0
endloop
endfacet
facet normal 0.7071067811865491 0.7071067811865459 0.0
outer loop
vertex 1010.0 -1.8047785488306544e-13 299.9999999999976
vertex 992.0 17.999999999999957 -164.99999999999997
vertex 992.0 17.999999999999957 299.9999999999976
endloop
endfacet
facet normal 0.7071067811865437 -0.7071067811865515 -2.8108521696689594e-18
outer loop
vertex 17.999999999998973 17.999999999998288 299.9999999999976
vertex 3.8454976989825155e-14 -4.5119463720766377e-13 -165.0
vertex 17.999999999998973 17.999999999998288 -165.00000000000006
endloop
endfacet
facet normal 0.7071067811865437 -0.7071067811865515 -2.8108521696689594e-18
outer loop
vertex 3.8454976989825155e-14 -4.5119463720766377e-13 -165.0
vertex 17.999999999998973 17.999999999998288 299.9999999999976
vertex 3.665956427312267e-14 -4.568345701727594e-13 299.9999999999976
endloop
endfacet
facet normal 1.7110884919772132e-15 -1.0 1.0481476535101658e-32
outer loop
vertex 992.0 17.999999999999957 -164.99999999999997
vertex 17.999999999998973 17.999999999998288 299.9999999999976
vertex 17.999999999998973 17.999999999998288 -165.00000000000006
endloop
endfacet
facet normal 1.7110884919772132e-15 -1.0 1.0481476535101658e-32
outer loop
vertex 17.999999999998973 17.999999999998288 299.9999999999976
vertex 992.0 17.999999999999957 -164.99999999999997
vertex 992.0 17.999999999999957 299.9999999999976
endloop
endfacet
facet normal 0.0 0.0 1.0
outer loop
vertex 1010.0 -1.8047785488306544e-13 299.9999999999976
vertex 17.999999999998973 17.999999999998288 299.9999999999976
vertex 3.665956427312267e-14 -4.568345701727594e-13 299.9999999999976
endloop
endfacet
facet normal 0.0 0.0 1.0
outer loop
vertex 17.999999999998973 17.999999999998288 299.9999999999976
vertex 1010.0 -1.8047785488306544e-13 299.9999999999976
vertex 992.0 17.999999999999957 299.9999999999976
endloop
endfacet
facet normal 2.708284641654912e-16 -1.0 -6.064444048489956e-18
outer loop
vertex 1010.0 -1.8047785488306544e-13 -165.0
vertex 3.665956427312267e-14 -4.568345701727594e-13 299.9999999999976
vertex 3.8454976989825155e-14 -4.5119463720766377e-13 -165.0
endloop
endfacet
facet normal 2.708284641654912e-16 -1.0 -6.064444048489956e-18
outer loop
vertex 3.665956427312267e-14 -4.568345701727594e-13 299.9999999999976
vertex 1010.0 -1.8047785488306544e-13 -165.0
vertex 1010.0 -1.8047785488306544e-13 299.9999999999976
endloop
endfacet
endsolid FIXED POD opened
