<?xml version="1.0" encoding="UTF-8" standalone="no"?>
<svg
   xmlns:dc="http://purl.org/dc/elements/1.1/"
   xmlns:cc="http://creativecommons.org/ns#"
   xmlns:rdf="http://www.w3.org/1999/02/22-rdf-syntax-ns#"
   xmlns:svg="http://www.w3.org/2000/svg"
   xmlns="http://www.w3.org/2000/svg"
   viewBox="0 0 1059.8625 751.59998"
   height="751.59998"
   width="1059.8625"
   xml:space="preserve"
   version="1.1"
   id="svg2"><metadata
     id="metadata8"><rdf:RDF><cc:Work
         rdf:about=""><dc:format>image/svg+xml</dc:format><dc:type
           rdf:resource="http://purl.org/dc/dcmitype/StillImage" /><dc:title></dc:title></cc:Work></rdf:RDF></metadata><defs
     id="defs6"><clipPath
       id="clipPath16"
       clipPathUnits="userSpaceOnUse"><path
         id="path18"
         d="m 282,146.281 283.872,0 0,307.966 -283.872,0 0,-307.966 z" /></clipPath><clipPath
       id="clipPath52"
       clipPathUnits="userSpaceOnUse"><path
         id="path54"
         d="m 282,146.281 283.872,0 0,307.966 -283.872,0 0,-307.966 z" /></clipPath><clipPath
       id="clipPath76"
       clipPathUnits="userSpaceOnUse"><path
         id="path78"
         d="m 282,146.281 283.872,0 0,307.966 -283.872,0 0,-307.966 z" /></clipPath><clipPath
       id="clipPath100"
       clipPathUnits="userSpaceOnUse"><path
         id="path102"
         d="m 282,146.281 283.872,0 0,307.966 -283.872,0 0,-307.966 z" /></clipPath><clipPath
       id="clipPath132"
       clipPathUnits="userSpaceOnUse"><path
         id="path134"
         d="m 282,146.281 283.872,0 0,307.966 -283.872,0 0,-307.966 z" /></clipPath><clipPath
       id="clipPath160"
       clipPathUnits="userSpaceOnUse"><path
         id="path162"
         d="m 282,146.281 283.872,0 0,307.966 -283.872,0 0,-307.966 z" /></clipPath></defs><g
     transform="matrix(1.25,0,0,-1.25,0,751.6)"
     id="g10"><g
       id="g12"><g
         clip-path="url(#clipPath16)"
         id="g14"><g
           transform="translate(536.1328,417.9014)"
           id="g20"><path
             id="path22"
             style="fill:none;stroke:#1a1a18;stroke-width:5.49100018;stroke-linecap:round;stroke-linejoin:round;stroke-miterlimit:3.86400008;stroke-dasharray:none;stroke-opacity:1"
             d="m 0,0 c -2.401,-7.526 -8.039,-12.604 -16.563,-14.092 -9.712,-1.694 -15.681,-8.049 -17.38,-17.381 -1.7,-9.331 -7.667,-15.684 -17.381,-17.38 -9.713,-1.694 -15.682,-8.049 -17.381,-17.38 -1.698,-9.332 -7.666,-15.686 -17.379,-17.381 -9.715,-1.696 -15.683,-8.049 -17.381,-17.381 -1.494,-8.201 -6.303,-14.081 -14.035,-16.541" /></g><g
           transform="translate(519.7607,301.1621)"
           id="g24"><path
             id="path26"
             style="fill:none;stroke:#1a1a18;stroke-width:5.49100018;stroke-linecap:round;stroke-linejoin:round;stroke-miterlimit:3.86400008;stroke-dasharray:none;stroke-opacity:1"
             d="m 0,0 c -2.401,-7.525 -8.04,-12.604 -16.563,-14.091 -9.713,-1.694 -15.682,-8.049 -17.381,-17.381 -1.7,-9.331 -7.666,-15.684 -17.38,-17.38 -9.714,-1.695 -15.682,-8.049 -17.381,-17.38 -1.699,-9.332 -7.667,-15.687 -17.38,-17.381 -9.714,-1.696 -15.682,-8.049 -17.381,-17.381 -1.493,-8.201 -6.301,-14.082 -14.034,-16.541" /></g></g></g><g
       transform="translate(393.6689,285.0801)"
       id="g28"><path
         id="path30"
         style="fill:#1a1a18;fill-opacity:1;fill-rule:nonzero;stroke:none"
         d="M 0,0 -19.834,19.834 0,19.834 0,0 Z" /></g><g
       transform="translate(370.71,285.0801)"
       id="g32"><path
         id="path34"
         style="fill:#1a1a18;fill-opacity:1;fill-rule:nonzero;stroke:none"
         d="M 0,0 -19.834,19.834 0,19.834 0,0 Z" /></g><g
       transform="translate(347.751,285.0801)"
       id="g36"><path
         id="path38"
         style="fill:#1a1a18;fill-opacity:1;fill-rule:nonzero;stroke:none"
         d="M 0,0 -19.834,19.834 0,19.834 0,0 Z" /></g><g
       transform="translate(324.7925,285.0801)"
       id="g40"><path
         id="path42"
         style="fill:#1a1a18;fill-opacity:1;fill-rule:nonzero;stroke:none"
         d="M 0,0 -19.834,19.834 0,19.834 0,0 Z" /></g><g
       transform="translate(282,304.9141)"
       id="g44"><path
         id="path46"
         style="fill:#1a1a18;fill-opacity:1;fill-rule:nonzero;stroke:none"
         d="M 0,0 19.833,-19.834 19.833,0 0,0 Z" /></g><g
       id="g48"><g
         clip-path="url(#clipPath52)"
         id="g50"><g
           transform="translate(534.9043,438.7637)"
           id="g56"><path
             id="path58"
             style="fill:#1a1a18;fill-opacity:1;fill-rule:nonzero;stroke:none"
             d="m 0,0 c 0,8.551 6.932,15.484 15.482,15.484 8.553,0 15.485,-6.933 15.485,-15.484 0,-8.552 -6.932,-15.484 -15.485,-15.484 C 6.932,-15.484 0,-8.552 0,0" /></g><g
           transform="translate(366.9043,161.7637)"
           id="g60"><path
             id="path62"
             style="fill:#1a1a18;fill-opacity:1;fill-rule:nonzero;stroke:none"
             d="m 0,0 c 0,8.551 6.932,15.484 15.483,15.484 8.552,0 15.484,-6.933 15.484,-15.484 0,-8.552 -6.932,-15.484 -15.484,-15.484 C 6.932,-15.484 0,-8.552 0,0" /></g><g
           transform="translate(407.2627,362.8389)"
           id="g64"><path
             id="path66"
             style="fill:#1a1a18;fill-opacity:1;fill-rule:nonzero;stroke:none"
             d="m 0,0 c -1.73,-4.992 -5.882,-8.006 -11.861,-8.006 -8.946,0 -12.506,5.733 -12.506,13.096 l 0,8.798 c 0,6.919 3.56,13.047 12.308,13.047 5.882,0 9.833,-3.212 11.564,-8.007 L -5.98,16.705 c -0.841,2.668 -2.769,4.595 -5.98,4.595 -4.499,0 -6.425,-3.557 -6.425,-7.165 l 0,-9.143 c 0,-3.757 1.976,-7.364 6.524,-7.364 3.309,0 5.386,1.976 6.275,4.694 L 0,0 Z" /></g></g></g><g
       transform="translate(412.6631,389.5273)"
       id="g68"><path
         id="path70"
         style="fill:#1a1a18;fill-opacity:1;fill-rule:nonzero;stroke:none"
         d="m 0,0 18.386,0 0,-5.388 -6.426,0 0,-23.625 6.426,0 0,-5.385 -18.386,0 0,5.385 5.98,0 0,23.625 -5.98,0 L 0,0 Z" /></g><g
       id="g72"><g
         clip-path="url(#clipPath76)"
         id="g74"><g
           transform="translate(454.7852,355.1289)"
           id="g80"><path
             id="path82"
             style="fill:#1a1a18;fill-opacity:1;fill-rule:nonzero;stroke:none"
             d="m 0,0 -6.129,13.839 -4.941,0 0,-13.839 -5.981,0 0,34.398 13.294,0 c 5.982,0 10.28,-4.003 10.28,-10.132 0,-4.399 -2.569,-8.105 -6.869,-9.537 L 6.672,0 0,0 Z m -4.895,29.108 -6.175,0 0,-9.981 6.028,0 c 3.41,0 5.437,1.878 5.437,5.139 0,3.213 -2.274,4.842 -5.29,4.842" /></g><g
           transform="translate(391.2158,320.7813)"
           id="g84"><path
             id="path86"
             style="fill:#1a1a18;fill-opacity:1;fill-rule:nonzero;stroke:none"
             d="m 0,0 c -1.73,-4.992 -5.881,-8.006 -11.861,-8.006 -8.946,0 -12.506,5.733 -12.506,13.096 l 0,8.798 c 0,6.919 3.56,13.047 12.308,13.047 5.882,0 9.834,-3.212 11.564,-8.007 L -5.98,16.705 c -0.841,2.668 -2.769,4.595 -5.98,4.595 -4.499,0 -6.425,-3.557 -6.425,-7.165 l 0,-9.143 c 0,-3.757 1.976,-7.364 6.524,-7.364 3.309,0 5.386,1.976 6.275,4.694 L 0,0 Z" /></g><g
           transform="translate(417.8682,334.917)"
           id="g88"><path
             id="path90"
             style="fill:#1a1a18;fill-opacity:1;fill-rule:nonzero;stroke:none"
             d="m 0,0 0,-9.639 c 0,-7.364 -4.3,-12.504 -12.306,-12.504 -8.847,0 -12.159,5.734 -12.159,12.504 l 0,9.639 c 0,6.918 3.461,12.799 12.159,12.799 C -4.201,12.799 0,7.413 0,0 m -18.485,-0.1 0,-9.094 c 0,-3.756 1.384,-7.412 6.179,-7.412 4.545,0 6.276,3.36 6.276,7.412 l 0,9.094 c 0,3.905 -1.928,7.315 -6.276,7.315 -4.696,0 -6.179,-3.706 -6.179,-7.315" /></g></g></g><g
       transform="translate(402.9517,270.3135)"
       id="g92"><path
         id="path94"
         style="fill:#1a1a18;fill-opacity:1;fill-rule:nonzero;stroke:none"
         d="m 0,0 0,34.398 5.98,0 0,-29.012 15.815,0 L 21.795,0 0,0 Z" /></g><g
       id="g96"><g
         clip-path="url(#clipPath100)"
         id="g98"><g
           transform="translate(444.333,277.7256)"
           id="g104"><path
             id="path106"
             style="fill:#1a1a18;fill-opacity:1;fill-rule:nonzero;stroke:none"
             d="m 0,0 -10.082,0 -2.077,-7.413 -6.227,0 10.231,34.399 6.326,0 10.131,-34.399 -6.227,0 L 0,0 Z M -5.142,18.831 C -5.585,16.904 -6.129,14.679 -6.821,12.109 -8.106,7.415 -8.452,6.228 -8.748,4.992 l 7.412,0 c -0.347,1.484 -0.839,2.966 -1.681,6.129 -0.739,2.817 -1.431,5.387 -1.927,7.71 l -0.198,0 z" /></g><g
           transform="translate(468.8594,270.3135)"
           id="g108"><path
             id="path110"
             style="fill:#1a1a18;fill-opacity:1;fill-rule:nonzero;stroke:none"
             d="m 0,0 -13.838,0 0,34.398 12.404,0 c 7.02,0 10.774,-3.558 10.774,-9.094 0,-2.471 -1.283,-5.634 -4.694,-7.066 l 0,-0.2 C 8.203,17.003 10.082,13.245 10.082,10.131 10.082,4.15 5.633,0 0,0 m -1.977,29.061 -5.88,0 0,-8.65 5.88,0 c 3.41,0 5.092,1.978 5.092,4.448 0,2.472 -1.83,4.202 -5.092,4.202 m 0.543,-13.69 -6.423,0 0,-9.985 6.423,0 c 3.758,0 5.438,2.572 5.438,5.091 0,2.521 -1.68,4.894 -5.438,4.894" /></g><g
           transform="translate(441.4873,312.7764)"
           id="g112"><path
             id="path114"
             style="fill:#1a1a18;fill-opacity:1;fill-rule:nonzero;stroke:none"
             d="m 0,0 0,5.244 c 0,0.59 -0.127,1.021 -0.622,1.021 -0.493,0 -0.717,-0.479 -0.717,-1.308 l 0,-4.957 -1.64,0 0,5.196 c 0,0.655 -0.177,1.052 -0.655,1.052 -0.463,0 -0.749,-0.414 -0.749,-1.291 l 0,-4.957 -1.706,0 0,7.891 1.674,0 0,-0.734 c 0.016,0 0.048,-0.015 0.064,-0.015 0.319,0.525 0.861,0.828 1.418,0.828 0.511,0 1.021,-0.158 1.259,-0.989 0.463,0.67 0.957,0.989 1.642,0.989 1.306,0 1.738,-0.861 1.738,-2.326 L 1.706,0 0,0 Z" /></g><g
           transform="translate(453.959,319.5986)"
           id="g116"><path
             id="path118"
             style="fill:#1a1a18;fill-opacity:1;fill-rule:nonzero;stroke:none"
             d="m 0,0 c 0.478,-0.605 0.717,-1.515 0.717,-2.693 0,-1.211 -0.143,-2.073 -0.494,-2.695 -0.59,-1.019 -1.643,-1.546 -3.012,-1.546 -1.244,0 -2.2,0.43 -2.758,1.291 -0.414,0.655 -0.591,1.531 -0.591,2.695 0,1.194 0.224,2.103 0.718,2.788 0.606,0.829 1.563,1.307 2.758,1.307 C -1.53,1.147 -0.59,0.733 0,0 m -4.049,-1.291 c -0.207,-0.414 -0.271,-0.973 -0.271,-1.626 0,-0.59 0.031,-1.1 0.191,-1.481 0.256,-0.59 0.733,-0.894 1.387,-0.894 0.654,0 1.132,0.287 1.418,0.94 0.16,0.351 0.207,0.813 0.207,1.594 0,0.622 -0.063,1.084 -0.223,1.436 -0.27,0.604 -0.781,0.859 -1.354,0.859 -0.621,0 -1.084,-0.287 -1.355,-0.828" /></g><g
           transform="translate(463.2422,315.2471)"
           id="g120"><path
             id="path122"
             style="fill:#1a1a18;fill-opacity:1;fill-rule:nonzero;stroke:none"
             d="m 0,0 c 0.318,1.036 0.668,2.136 0.957,2.98 l 0.812,2.439 1.928,0 -2.917,-7.89 -1.626,0 -2.932,7.89 1.928,0 1.1,-3.251 C -0.543,1.563 -0.304,0.829 -0.049,0 L 0,0 Z" /></g></g></g><g
       transform="translate(478.5986,312.7764)"
       id="g124"><path
         id="path126"
         style="fill:#1a1a18;fill-opacity:1;fill-rule:nonzero;stroke:none"
         d="m 0,0 -6.201,0 0,1.674 2.296,0 0,4.622 -2.296,0 0,1.578 4.097,0 0,-6.2 L 0,1.674 0,0 Z m -4.049,11.094 1.944,0 0,-1.802 -1.944,0 0,1.802 z" /></g><g
       id="g128"><g
         clip-path="url(#clipPath132)"
         id="g130"><g
           transform="translate(485.666,316.2041)"
           id="g136"><path
             id="path138"
             style="fill:#1a1a18;fill-opacity:1;fill-rule:nonzero;stroke:none"
             d="m 0,0 c 0,-1.133 0.415,-1.897 1.736,-1.897 0.464,0 1.213,0.222 1.803,0.749 L 4.574,-2.407 C 3.697,-3.221 2.662,-3.523 1.673,-3.523 c -1.801,0 -3.523,0.781 -3.523,3.968 0,3.094 1.754,4.114 3.395,4.114 2.248,0 3.284,-1.562 3.284,-4.034 L 4.829,0 0,0 Z m 0.032,1.274 2.933,0 C 2.9,2.406 2.343,2.948 1.529,2.948 0.701,2.948 0.127,2.326 0.032,1.274" /></g><g
           transform="translate(500.5762,312.7764)"
           id="g140"><path
             id="path142"
             style="fill:#1a1a18;fill-opacity:1;fill-rule:nonzero;stroke:none"
             d="m 0,0 0,4.687 c 0,1.004 -0.398,1.594 -1.451,1.594 -0.924,0 -1.53,-0.654 -1.53,-1.707 l 0,-4.574 -1.786,0 0,7.891 1.786,0 0,-0.813 0.047,0 c 0.51,0.557 1.371,0.892 2.088,0.892 1.611,0 2.631,-0.941 2.631,-2.789 L 1.785,0 0,0 Z" /></g><g
           transform="translate(512.5684,312.7764)"
           id="g144"><path
             id="path146"
             style="fill:#1a1a18;fill-opacity:1;fill-rule:nonzero;stroke:none"
             d="m 0,0 0,0.686 -0.048,0.031 c -0.574,-0.59 -1.291,-0.813 -1.975,-0.813 -2.488,0 -2.807,2.12 -2.807,4.081 0,1.817 0.574,4.001 2.997,4.001 0.701,0 1.418,-0.222 1.802,-0.702 L 0,7.301 l 0,4.271 1.785,0 L 1.785,0 0,0 Z m -1.467,6.281 c -1.37,0 -1.53,-1.34 -1.53,-2.408 0,-1.196 0.207,-2.279 1.468,-2.279 C -0.207,1.594 0,2.917 0,3.953 0,5.005 -0.175,6.281 -1.467,6.281" /></g><g
           transform="translate(525.7246,319.5986)"
           id="g148"><path
             id="path150"
             style="fill:#1a1a18;fill-opacity:1;fill-rule:nonzero;stroke:none"
             d="m 0,0 c 0.479,-0.605 0.718,-1.515 0.718,-2.693 0,-1.211 -0.144,-2.073 -0.495,-2.695 -0.59,-1.019 -1.642,-1.546 -3.012,-1.546 -1.244,0 -2.2,0.43 -2.758,1.291 -0.414,0.655 -0.59,1.531 -0.59,2.695 0,1.194 0.224,2.103 0.718,2.788 0.605,0.829 1.562,1.307 2.757,1.307 C -1.53,1.147 -0.589,0.733 0,0 m -4.049,-1.291 c -0.207,-0.414 -0.269,-0.973 -0.269,-1.626 0,-0.59 0.03,-1.1 0.19,-1.481 0.255,-0.59 0.732,-0.894 1.387,-0.894 0.653,0 1.132,0.287 1.418,0.94 0.159,0.351 0.207,0.813 0.207,1.594 0,0.622 -0.064,1.084 -0.223,1.436 -0.27,0.604 -0.781,0.859 -1.354,0.859 -0.621,0 -1.084,-0.287 -1.356,-0.828" /></g></g></g><g
       transform="translate(377.019,254.3496)"
       id="g152"><path
         id="path154"
         style="fill:#1a1a18;fill-opacity:1;fill-rule:nonzero;stroke:none"
         d="m 0,0 -6.201,0 0,1.674 2.295,0 0,4.622 -2.295,0 0,1.579 4.096,0 0,-6.201 L 0,1.674 0,0 Z m -4.049,11.094 1.944,0 0,-1.801 -1.944,0 0,1.801 z" /></g><g
       id="g156"><g
         clip-path="url(#clipPath160)"
         id="g158"><g
           transform="translate(387.0669,254.3496)"
           id="g164"><path
             id="path166"
             style="fill:#1a1a18;fill-opacity:1;fill-rule:nonzero;stroke:none"
             d="m 0,0 0,0.685 -0.048,0.032 c -0.574,-0.589 -1.291,-0.813 -1.976,-0.813 -2.487,0 -2.806,2.119 -2.806,4.08 0,1.818 0.574,4.001 2.997,4.001 0.701,0 1.418,-0.222 1.801,-0.701 L 0,7.301 l 0,4.27 1.785,0 L 1.785,0 0,0 Z m -1.467,6.28 c -1.37,0 -1.53,-1.34 -1.53,-2.406 0,-1.196 0.208,-2.28 1.467,-2.28 C -0.207,1.594 0,2.917 0,3.953 0,5.005 -0.175,6.28 -1.467,6.28" /></g><g
           transform="translate(396.0469,257.7764)"
           id="g168"><path
             id="path170"
             style="fill:#1a1a18;fill-opacity:1;fill-rule:nonzero;stroke:none"
             d="m 0,0 c 0,-1.132 0.415,-1.897 1.737,-1.897 0.463,0 1.212,0.223 1.802,0.749 l 1.035,-1.259 c -0.876,-0.813 -1.912,-1.115 -2.9,-1.115 -1.802,0 -3.523,0.78 -3.523,3.969 0,3.092 1.754,4.112 3.396,4.112 2.247,0 3.283,-1.562 3.283,-4.033 L 4.83,0 0,0 Z m 0.032,1.275 2.933,0 C 2.901,2.407 2.344,2.949 1.53,2.949 0.702,2.949 0.127,2.327 0.032,1.275" /></g><g
           transform="translate(412.4712,259.7051)"
           id="g172"><path
             id="path174"
             style="fill:#1a1a18;fill-opacity:1;fill-rule:nonzero;stroke:none"
             d="m 0,0 0,-5.356 -1.801,0 0,0.702 c 0,0 -0.016,0.015 -0.032,0.015 -0.414,-0.557 -1.26,-0.797 -2.056,-0.797 -1.674,0 -2.726,0.845 -2.726,2.375 0,1.276 0.925,2.376 2.678,2.376 l 2.136,0 0,0.573 c 0,0.606 -0.335,1.132 -1.562,1.132 -0.861,0 -1.435,-0.223 -1.881,-0.653 L -6.2,1.578 c 0.765,0.765 1.832,1.036 2.932,1.036 C -1.498,2.614 0,2.04 0,0 m -3.506,-3.905 c 1.004,0 1.705,0.334 1.705,1.498 l 0,0.35 -1.833,0 c -0.909,0 -1.275,-0.382 -1.275,-0.876 0,-0.478 0.351,-0.972 1.403,-0.972" /></g><g
           transform="translate(421.5313,254.2539)"
           id="g176"><path
             id="path178"
             style="fill:#1a1a18;fill-opacity:1;fill-rule:nonzero;stroke:none"
             d="m 0,0 c -1.164,0 -2.343,0.239 -3.427,1.179 l 0.957,1.307 c 0.764,-0.701 1.593,-0.94 2.55,-0.94 0.733,0 1.37,0.35 1.37,0.908 0,0.909 -1.29,0.877 -2.47,1.148 -1.004,0.224 -1.929,0.669 -1.929,2.072 0,1.499 1.355,2.391 2.949,2.391 1.195,0 2.152,-0.239 3.012,-0.892 L 2.152,5.802 C 1.419,6.296 0.67,6.488 -0.032,6.488 c -0.829,0 -1.211,-0.399 -1.211,-0.765 0,-0.543 0.51,-0.766 1.881,-0.941 C 1.992,4.606 3.22,4.112 3.22,2.502 3.22,0.956 1.77,0 0,0" /></g></g></g></g></svg>