solid INFO POSTER POD
facet normal 4.4026305742812237e-16 -0.1736481776669304 -0.984807753012208
outer loop
vertex 499.9999999999994 306.52921562775543 1573.413567771497
vertex 49.99999999999937 326.2253706879995 1569.9406042181588
vertex 499.9999999999994 326.22537068799977 1569.940604218159
endloop
endfacet
facet normal 4.4026305742812237e-16 -0.1736481776669304 -0.984807753012208
outer loop
vertex 49.99999999999937 326.2253706879995 1569.9406042181588
vertex 499.9999999999994 306.52921562775543 1573.413567771497
vertex 49.99999999999937 306.5292156277551 1573.4135677714967
endloop
endfacet
facet normal 1.0 6.504629047838113e-16 3.3236066467931026e-16
outer loop
vertex 49.99999999999937 306.5292156277551 1573.4135677714967
vertex 50.00000000000018 20.30853223771504 -164.9999999998679
vertex 49.99999999999937 326.2253706879995 1569.9406042181588
endloop
endfacet
facet normal 1.0 6.504629047838113e-16 3.3236066467931026e-16
outer loop
vertex 50.00000000000018 20.30853223771504 -164.9999999998679
vertex 49.99999999999937 306.5292156277551 1573.4135677714967
vertex 50.00000000000018 1.8047785488306544e-13 -164.99999999986719
endloop
endfacet
facet normal -1.0 -6.504629047838113e-16 -3.3236066467931026e-16
outer loop
vertex 1.8047785488306544e-13 20.308532237714996 -164.99999999986827
vertex -6.31672492090729e-13 315.21162451110166 1622.6539554221072
vertex -6.31672492090729e-13 334.9077795713458 1619.1809918687686
endloop
endfacet
facet normal -1.0 -6.504629047838113e-16 -3.3236066467931026e-16
outer loop
vertex -6.31672492090729e-13 315.21162451110166 1622.6539554221072
vertex 1.8047785488306544e-13 20.308532237714996 -164.99999999986827
vertex 1.8047785488306544e-13 -4.511946372076636e-14 -164.99999999986827
endloop
endfacet
facet normal -4.4026305742812237e-16 0.1736481776669304 0.984807753012208
outer loop
vertex -6.31672492090729e-13 315.21162451110166 1622.6539554221072
vertex 549.9999999999993 334.90777957134617 1619.1809918687688
vertex -6.31672492090729e-13 334.9077795713458 1619.1809918687686
endloop
endfacet
facet normal -4.4026305742812237e-16 0.1736481776669304 0.984807753012208
outer loop
vertex 549.9999999999993 334.90777957134617 1619.1809918687688
vertex -6.31672492090729e-13 315.21162451110166 1622.6539554221072
vertex 549.9999999999993 315.211624511102 1622.6539554221074
endloop
endfacet
facet normal -1.0 -6.504629047838113e-16 -3.3236066467931026e-16
outer loop
vertex 500.00000000000017 20.3085322377154 -164.99999999986719
vertex 499.9999999999994 306.52921562775543 1573.413567771497
vertex 499.9999999999994 326.22537068799977 1569.940604218159
endloop
endfacet
facet normal -1.0 -6.504629047838113e-16 -3.3236066467931026e-16
outer loop
vertex 499.9999999999994 306.52921562775543 1573.413567771497
vertex 500.00000000000017 20.3085322377154 -164.99999999986719
vertex 500.00000000000017 4.511946372076636e-13 -164.99999999986719
endloop
endfacet
facet normal -6.250179208073241e-16 0.9848077530122082 -0.1736481776669303
outer loop
vertex 1.8047785488306544e-13 20.308532237714996 -164.99999999986827
vertex 49.99999999999937 326.2253706879995 1569.9406042181588
vertex 50.00000000000018 20.30853223771504 -164.9999999998679
endloop
endfacet
facet normal -6.250179208073241e-16 0.9848077530122082 -0.1736481776669303
outer loop
vertex 500.00000000000017 20.3085322377154 -164.99999999986719
vertex 549.9999999999993 334.90777957134617 1619.1809918687688
vertex 550.0000000000001 20.308532237715536 -164.99999999986755
endloop
endfacet
facet normal -6.250179208073241e-16 0.9848077530122082 -0.1736481776669303
outer loop
vertex 549.9999999999993 334.90777957134617 1619.1809918687688
vertex 500.00000000000017 20.3085322377154 -164.99999999986719
vertex 499.9999999999994 326.22537068799977 1569.940604218159
endloop
endfacet
facet normal -6.250179208073241e-16 0.9848077530122082 -0.1736481776669303
outer loop
vertex 549.9999999999993 334.90777957134617 1619.1809918687688
vertex 499.9999999999994 326.22537068799977 1569.940604218159
vertex -6.31672492090729e-13 334.9077795713458 1619.1809918687686
endloop
endfacet
facet normal -6.250179208073241e-16 0.9848077530122082 -0.1736481776669303
outer loop
vertex -6.31672492090729e-13 334.9077795713458 1619.1809918687686
vertex 499.9999999999994 326.22537068799977 1569.940604218159
vertex 49.99999999999937 326.2253706879995 1569.9406042181588
endloop
endfacet
facet normal -6.250179208073241e-16 0.9848077530122082 -0.1736481776669303
outer loop
vertex -6.31672492090729e-13 334.9077795713458 1619.1809918687686
vertex 49.99999999999937 326.2253706879995 1569.9406042181588
vertex 1.8047785488306544e-13 20.308532237714996 -164.99999999986827
endloop
endfacet
facet normal 1.0 1.1020966733281427e-15 2.578611824234616e-16
outer loop
vertex 550.0000000000001 4.511946372076636e-13 -164.99999999986755
vertex 549.9999999999993 334.90777957134617 1619.1809918687688
vertex 549.9999999999993 315.211624511102 1622.6539554221074
endloop
endfacet
facet normal 1.0 1.1020966733281427e-15 2.578611824234616e-16
outer loop
vertex 549.9999999999993 334.90777957134617 1619.1809918687688
vertex 550.0000000000001 4.511946372076636e-13 -164.99999999986755
vertex 550.0000000000001 20.308532237715536 -164.99999999986755
endloop
endfacet
facet normal -4.179585707397328e-15 2.2482016248659416e-15 -1.0
outer loop
vertex 550.0000000000001 4.511946372076636e-13 -164.99999999986755
vertex 500.00000000000017 20.3085322377154 -164.99999999986719
vertex 550.0000000000001 20.308532237715536 -164.99999999986755
endloop
endfacet
facet normal -4.179585707397328e-15 2.2482016248659416e-15 -1.0
outer loop
vertex 500.00000000000017 20.3085322377154 -164.99999999986719
vertex 550.0000000000001 4.511946372076636e-13 -164.99999999986755
vertex 500.00000000000017 4.511946372076636e-13 -164.99999999986719
endloop
endfacet
facet normal 6.596526812807221e-16 -0.9848077530122082 0.1736481776669303
outer loop
vertex -6.31672492090729e-13 315.21162451110166 1622.6539554221072
vertex 499.9999999999994 306.52921562775543 1573.413567771497
vertex 549.9999999999993 315.211624511102 1622.6539554221074
endloop
endfacet
facet normal 6.596526812807221e-16 -0.9848077530122082 0.1736481776669303
outer loop
vertex 499.9999999999994 306.52921562775543 1573.413567771497
vertex -6.31672492090729e-13 315.21162451110166 1622.6539554221072
vertex 49.99999999999937 306.5292156277551 1573.4135677714967
endloop
endfacet
facet normal 6.596526812807221e-16 -0.9848077530122082 0.1736481776669303
outer loop
vertex 49.99999999999937 306.5292156277551 1573.4135677714967
vertex -6.31672492090729e-13 315.21162451110166 1622.6539554221072
vertex 50.00000000000018 1.8047785488306544e-13 -164.99999999986719
endloop
endfacet
facet normal 6.596526812807221e-16 -0.9848077530122082 0.1736481776669303
outer loop
vertex 50.00000000000018 1.8047785488306544e-13 -164.99999999986719
vertex -6.31672492090729e-13 315.21162451110166 1622.6539554221072
vertex 1.8047785488306544e-13 -4.511946372076636e-14 -164.99999999986827
endloop
endfacet
facet normal 6.596526812807221e-16 -0.9848077530122082 0.1736481776669303
outer loop
vertex 549.9999999999993 315.211624511102 1622.6539554221074
vertex 500.00000000000017 4.511946372076636e-13 -164.99999999986719
vertex 550.0000000000001 4.511946372076636e-13 -164.99999999986755
endloop
endfacet
facet normal 6.596526812807221e-16 -0.9848077530122082 0.1736481776669303
outer loop
vertex 500.00000000000017 4.511946372076636e-13 -164.99999999986719
vertex 549.9999999999993 315.211624511102 1622.6539554221074
vertex 499.9999999999994 306.52921562775543 1573.413567771497
endloop
endfacet
facet normal 7.55147486000197e-15 -1.77635683940025e-14 -1.0
outer loop
vertex 50.00000000000018 1.8047785488306544e-13 -164.99999999986719
vertex 1.8047785488306544e-13 20.308532237714996 -164.99999999986827
vertex 50.00000000000018 20.30853223771504 -164.9999999998679
endloop
endfacet
facet normal 7.55147486000197e-15 -1.77635683940025e-14 -1.0
outer loop
vertex 1.8047785488306544e-13 20.308532237714996 -164.99999999986827
vertex 50.00000000000018 1.8047785488306544e-13 -164.99999999986719
vertex 1.8047785488306544e-13 -4.511946372076636e-14 -164.99999999986827
endloop
endfacet
facet normal 4.4026305742812237e-16 -0.1736481776669304 -0.984807753012208
outer loop
vertex 549.9999999999998 108.54410383154172 565.7596123495215
vertex -1.8047785488306544e-13 128.24025889178552 562.2866487961827
vertex 549.9999999999998 128.24025889178588 562.2866487961829
endloop
endfacet
facet normal 4.4026305742812237e-16 -0.1736481776669304 -0.984807753012208
outer loop
vertex -1.8047785488306544e-13 128.24025889178552 562.2866487961827
vertex 549.9999999999998 108.54410383154172 565.7596123495215
vertex -1.8047785488306544e-13 108.54410383154138 565.7596123495214
endloop
endfacet
facet normal 1.0 6.504629047838113e-16 3.3236066467931026e-16
outer loop
vertex 549.9999999999998 108.54410383154172 565.7596123495215
vertex 549.9999999999998 136.92266777513245 611.5270364467935
vertex 549.9999999999998 117.22651271488829 615.0000000001321
endloop
endfacet
facet normal 1.0 6.504629047838113e-16 3.3236066467931026e-16
outer loop
vertex 549.9999999999998 136.92266777513245 611.5270364467935
vertex 549.9999999999998 108.54410383154172 565.7596123495215
vertex 549.9999999999998 128.24025889178588 562.2866487961829
endloop
endfacet
facet normal -4.4026305742812237e-16 0.1736481776669304 0.984807753012208
outer loop
vertex -1.8047785488306544e-13 117.22651271488793 615.0000000001319
vertex 549.9999999999998 136.92266777513245 611.5270364467935
vertex -1.8047785488306544e-13 136.92266777513208 611.5270364467933
endloop
endfacet
facet normal -4.4026305742812237e-16 0.1736481776669304 0.984807753012208
outer loop
vertex 549.9999999999998 136.92266777513245 611.5270364467935
vertex -1.8047785488306544e-13 117.22651271488793 615.0000000001319
vertex 549.9999999999998 117.22651271488829 615.0000000001321
endloop
endfacet
facet normal -5.828670879282072e-16 0.9848077530122082 -0.17364817766693041
outer loop
vertex -1.8047785488306544e-13 128.24025889178552 562.2866487961827
vertex 549.9999999999998 136.92266777513245 611.5270364467935
vertex 549.9999999999998 128.24025889178588 562.2866487961829
endloop
endfacet
facet normal -5.828670879282072e-16 0.9848077530122082 -0.17364817766693041
outer loop
vertex 549.9999999999998 136.92266777513245 611.5270364467935
vertex -1.8047785488306544e-13 128.24025889178552 562.2866487961827
vertex -1.8047785488306544e-13 136.92266777513208 611.5270364467933
endloop
endfacet
facet normal -1.0 -6.504629047838113e-16 -3.3236066467931026e-16
outer loop
vertex -1.8047785488306544e-13 128.24025889178552 562.2866487961827
vertex -1.8047785488306544e-13 117.22651271488793 615.0000000001319
vertex -1.8047785488306544e-13 136.92266777513208 611.5270364467933
endloop
endfacet
facet normal -1.0 -6.504629047838113e-16 -3.3236066467931026e-16
outer loop
vertex -1.8047785488306544e-13 117.22651271488793 615.0000000001319
vertex -1.8047785488306544e-13 128.24025889178552 562.2866487961827
vertex -1.8047785488306544e-13 108.54410383154138 565.7596123495214
endloop
endfacet
facet normal 5.828670879282072e-16 -0.9848077530122082 0.17364817766693041
outer loop
vertex -1.8047785488306544e-13 117.22651271488793 615.0000000001319
vertex 549.9999999999998 108.54410383154172 565.7596123495215
vertex 549.9999999999998 117.22651271488829 615.0000000001321
endloop
endfacet
facet normal 5.828670879282072e-16 -0.9848077530122082 0.17364817766693041
outer loop
vertex 549.9999999999998 108.54410383154172 565.7596123495215
vertex -1.8047785488306544e-13 117.22651271488793 615.0000000001319
vertex -1.8047785488306544e-13 108.54410383154138 565.7596123495214
endloop
endfacet
facet normal 5.777345217105299e-15 -1.3156142841808102e-14 -1.0
outer loop
vertex 50.00000000000018 1.3535839116229907e-13 -164.99999999986719
vertex 1.8047785488306544e-13 20.30853223771495 -164.99999999986827
vertex 50.00000000000018 20.308532237714996 -164.9999999998679
endloop
endfacet
facet normal 5.777345217105299e-15 -1.3156142841808102e-14 -1.0
outer loop
vertex 1.8047785488306544e-13 20.30853223771495 -164.99999999986827
vertex 50.00000000000018 1.3535839116229907e-13 -164.99999999986719
vertex 1.8047785488306544e-13 -9.023892744153272e-14 -164.99999999986827
endloop
endfacet
facet normal 5.2089759072213546e-17 0.2164396139381028 -0.9762960071199335
outer loop
vertex 499.99999999999835 431.9409586296496 561.8564073653728
vertex 49.99999999999919 451.46687877204783 566.1851996441346
vertex 499.99999999999835 451.4668787720483 566.1851996441349
endloop
endfacet
facet normal 5.2089759072213546e-17 0.2164396139381028 -0.9762960071199335
outer loop
vertex 49.99999999999919 451.46687877204783 566.1851996441346
vertex 499.99999999999835 431.9409586296496 561.8564073653728
vertex 49.99999999999919 431.9409586296491 561.8564073653727
endloop
endfacet
facet normal 1.0 1.045534360961583e-15 2.851438605582265e-16
outer loop
vertex 499.99999999999835 421.1189779327443 610.6712077213699
vertex 499.99999999999835 451.4668787720483 566.1851996441349
vertex 499.99999999999835 440.6448980751431 615.000000000132
endloop
endfacet
facet normal 1.0 1.045534360961583e-15 2.851438605582265e-16
outer loop
vertex 499.99999999999835 451.4668787720483 566.1851996441349
vertex 499.99999999999835 421.1189779327443 610.6712077213699
vertex 499.99999999999835 431.9409586296496 561.8564073653728
endloop
endfacet
facet normal -5.2089759072213546e-17 -0.2164396139381028 0.9762960071199335
outer loop
vertex 49.99999999999919 421.11897793274386 610.6712077213698
vertex 499.99999999999835 440.6448980751431 615.000000000132
vertex 49.99999999999919 440.64489807514263 615.0000000001319
endloop
endfacet
facet normal -5.2089759072213546e-17 -0.2164396139381028 0.9762960071199335
outer loop
vertex 499.99999999999835 440.6448980751431 615.000000000132
vertex 49.99999999999919 421.11897793274386 610.6712077213698
vertex 499.99999999999835 421.1189779327443 610.6712077213699
endloop
endfacet
facet normal -1.0824674490095274e-15 0.9762960071199335 0.2164396139381028
outer loop
vertex 49.99999999999919 451.46687877204783 566.1851996441346
vertex 499.99999999999835 440.6448980751431 615.000000000132
vertex 499.99999999999835 451.4668787720483 566.1851996441349
endloop
endfacet
facet normal -1.0824674490095274e-15 0.9762960071199335 0.2164396139381028
outer loop
vertex 499.99999999999835 440.6448980751431 615.000000000132
vertex 49.99999999999919 451.46687877204783 566.1851996441346
vertex 49.99999999999919 440.64489807514263 615.0000000001319
endloop
endfacet
facet normal -1.0 -1.045534360961583e-15 -2.851438605582265e-16
outer loop
vertex 49.99999999999919 451.46687877204783 566.1851996441346
vertex 49.99999999999919 421.11897793274386 610.6712077213698
vertex 49.99999999999919 440.64489807514263 615.0000000001319
endloop
endfacet
facet normal -1.0 -1.045534360961583e-15 -2.851438605582265e-16
outer loop
vertex 49.99999999999919 421.11897793274386 610.6712077213698
vertex 49.99999999999919 451.46687877204783 566.1851996441346
vertex 49.99999999999919 431.9409586296491 561.8564073653727
endloop
endfacet
facet normal 1.0824674490095274e-15 -0.9762960071199335 -0.2164396139381028
outer loop
vertex 49.99999999999919 421.11897793274386 610.6712077213698
vertex 499.99999999999835 431.9409586296496 561.8564073653728
vertex 499.99999999999835 421.1189779327443 610.6712077213699
endloop
endfacet
facet normal 1.0824674490095274e-15 -0.9762960071199335 -0.2164396139381028
outer loop
vertex 499.99999999999835 431.9409586296496 561.8564073653728
vertex 49.99999999999919 421.11897793274386 610.6712077213698
vertex 49.99999999999919 431.9409586296491 561.8564073653727
endloop
endfacet
facet normal 5.2089759072213534e-17 0.2164396139381028 -0.9762960071199335
outer loop
vertex 499.99999999999864 322.1981517106808 1061.8564073653752
vertex 49.99999999999891 341.724071853079 1066.1851996441371
vertex 499.99999999999864 341.7240718530795 1066.185199644137
endloop
endfacet
facet normal 5.2089759072213534e-17 0.2164396139381028 -0.9762960071199335
outer loop
vertex 49.99999999999891 341.724071853079 1066.1851996441371
vertex 499.99999999999864 322.1981517106808 1061.8564073653752
vertex 49.99999999999891 322.19815171068035 1061.856407365375
endloop
endfacet
facet normal 1.0 1.045534360961583e-15 2.851438605582265e-16
outer loop
vertex 499.99999999999864 311.37617101377543 1110.671207721372
vertex 499.99999999999864 341.7240718530795 1066.185199644137
vertex 499.99999999999864 330.90209115617427 1115.0000000001344
endloop
endfacet
facet normal 1.0 1.045534360961583e-15 2.851438605582265e-16
outer loop
vertex 499.99999999999864 341.7240718530795 1066.185199644137
vertex 499.99999999999864 311.37617101377543 1110.671207721372
vertex 499.99999999999864 322.1981517106808 1061.8564073653752
endloop
endfacet
facet normal -5.2089759072213534e-17 -0.2164396139381028 0.9762960071199335
outer loop
vertex 49.99999999999891 311.376171013775 1110.6712077213722
vertex 499.99999999999864 330.90209115617427 1115.0000000001344
vertex 49.99999999999891 330.90209115617387 1115.0000000001342
endloop
endfacet
facet normal -5.2089759072213534e-17 -0.2164396139381028 0.9762960071199335
outer loop
vertex 499.99999999999864 330.90209115617427 1115.0000000001344
vertex 49.99999999999891 311.376171013775 1110.6712077213722
vertex 499.99999999999864 311.37617101377543 1110.671207721372
endloop
endfacet
facet normal -1.0824674490095274e-15 0.9762960071199335 0.2164396139381028
outer loop
vertex 49.99999999999891 341.724071853079 1066.1851996441371
vertex 499.99999999999864 330.90209115617427 1115.0000000001344
vertex 499.99999999999864 341.7240718530795 1066.185199644137
endloop
endfacet
facet normal -1.0824674490095274e-15 0.9762960071199335 0.2164396139381028
outer loop
vertex 499.99999999999864 330.90209115617427 1115.0000000001344
vertex 49.99999999999891 341.724071853079 1066.1851996441371
vertex 49.99999999999891 330.90209115617387 1115.0000000001342
endloop
endfacet
facet normal -1.0 -1.045534360961583e-15 -2.851438605582265e-16
outer loop
vertex 49.99999999999891 341.724071853079 1066.1851996441371
vertex 49.99999999999891 311.376171013775 1110.6712077213722
vertex 49.99999999999891 330.90209115617387 1115.0000000001342
endloop
endfacet
facet normal -1.0 -1.045534360961583e-15 -2.851438605582265e-16
outer loop
vertex 49.99999999999891 311.376171013775 1110.6712077213722
vertex 49.99999999999891 341.724071853079 1066.1851996441371
vertex 49.99999999999891 322.19815171068035 1061.856407365375
endloop
endfacet
facet normal 1.0824674490095274e-15 -0.9762960071199335 -0.2164396139381028
outer loop
vertex 49.99999999999891 311.376171013775 1110.6712077213722
vertex 499.99999999999864 322.1981517106808 1061.8564073653752
vertex 499.99999999999864 311.37617101377543 1110.671207721372
endloop
endfacet
facet normal 1.0824674490095274e-15 -0.9762960071199335 -0.2164396139381028
outer loop
vertex 499.99999999999864 322.1981517106808 1061.8564073653752
vertex 49.99999999999891 311.376171013775 1110.6712077213722
vertex 49.99999999999891 322.19815171068035 1061.856407365375
endloop
endfacet
facet normal -1.3839336597066007e-16 0.21643961393816366 -0.9762960071199199
outer loop
vertex 29.999999999999094 622.6411688200307 -164.99999999986628
vertex 49.99999999999905 629.6890586741267 -163.4375204363174
vertex 49.99999999999906 622.6411688200267 -164.99999999986719
endloop
endfacet
facet normal -1.3839336597066007e-16 0.21643961393816366 -0.9762960071199199
outer loop
vertex 49.99999999999905 629.6890586741267 -163.4375204363174
vertex 29.999999999999094 622.6411688200307 -164.99999999986628
vertex 29.999999999999083 629.6890586741267 -163.4375204363174
endloop
endfacet
facet normal 1.0 1.5877899893969292e-15 6.445732094628212e-16
outer loop
vertex 49.99999999999876 267.73452719265566 1238.2225468889035
vertex 49.99999999999905 629.6890586741267 -163.4375204363174
vertex 49.999999999998636 290.42275497844435 1366.893880649791
endloop
endfacet
facet normal 1.0 1.5877899893969292e-15 6.445732094628212e-16
outer loop
vertex 49.99999999999905 629.6890586741267 -163.4375204363174
vertex 49.99999999999876 267.73452719265566 1238.2225468889035
vertex 49.99999999999912 578.8214763381284 -164.99999999986673
endloop
endfacet
facet normal 1.0 1.5877899893969292e-15 6.445732094628212e-16
outer loop
vertex 49.99999999999905 629.6890586741267 -163.4375204363174
vertex 49.99999999999912 578.8214763381284 -164.99999999986673
vertex 49.99999999999906 622.6411688200267 -164.99999999986719
endloop
endfacet
facet normal -4.5599586320483904e-15 0.9762960071199335 0.21643961393810288
outer loop
vertex 49.999999999998636 290.42275497844435 1366.893880649791
vertex 29.999999999999083 629.6890586741267 -163.4375204363174
vertex 29.999999999998128 290.4227549784443 1366.8938806497904
endloop
endfacet
facet normal -4.5599586320483904e-15 0.9762960071199335 0.21643961393810288
outer loop
vertex 29.999999999999083 629.6890586741267 -163.4375204363174
vertex 49.999999999998636 290.42275497844435 1366.893880649791
vertex 49.99999999999905 629.6890586741267 -163.4375204363174
endloop
endfacet
facet normal -1.0 -3.69943410297113e-15 -1.4013507955699919e-15
outer loop
vertex 29.999999999999083 629.6890586741267 -163.4375204363174
vertex 29.999999999998522 267.73452719265566 1238.2225468889058
vertex 29.999999999998128 290.4227549784443 1366.8938806497904
endloop
endfacet
facet normal -1.0 -3.69943410297113e-15 -1.4013507955699919e-15
outer loop
vertex 29.999999999998522 267.73452719265566 1238.2225468889058
vertex 29.999999999999083 629.6890586741267 -163.4375204363174
vertex 29.999999999999154 578.8214763381283 -164.99999999986636
endloop
endfacet
facet normal -1.0 -3.69943410297113e-15 -1.4013507955699919e-15
outer loop
vertex 29.999999999999154 578.8214763381283 -164.99999999986636
vertex 29.999999999999083 629.6890586741267 -163.4375204363174
vertex 29.999999999999094 622.6411688200307 -164.99999999986628
endloop
endfacet
facet normal -1.206779267144323e-14 -0.9762960071199335 -0.21643961393810265
outer loop
vertex 29.999999999999154 578.8214763381283 -164.99999999986636
vertex 49.99999999999876 267.73452719265566 1238.2225468889035
vertex 29.999999999998522 267.73452719265566 1238.2225468889058
endloop
endfacet
facet normal -1.206779267144323e-14 -0.9762960071199335 -0.21643961393810265
outer loop
vertex 49.99999999999876 267.73452719265566 1238.2225468889035
vertex 29.999999999999154 578.8214763381283 -164.99999999986636
vertex 49.99999999999912 578.8214763381284 -164.99999999986673
endloop
endfacet
facet normal 1.4085323692834444e-14 -0.9848077530122078 0.1736481776669325
outer loop
vertex 29.999999999998522 267.73452719265566 1238.2225468889058
vertex 49.999999999998636 290.42275497844435 1366.893880649791
vertex 29.999999999998128 290.4227549784443 1366.8938806497904
endloop
endfacet
facet normal 1.4085323692834444e-14 -0.9848077530122078 0.1736481776669325
outer loop
vertex 49.999999999998636 290.42275497844435 1366.893880649791
vertex 29.999999999998522 267.73452719265566 1238.2225468889058
vertex 49.99999999999876 267.73452719265566 1238.2225468889035
endloop
endfacet
facet normal -3.283366656399981e-14 -5.329070518200797e-15 -1.0
outer loop
vertex 29.999999999999154 578.8214763381283 -164.99999999986636
vertex 49.99999999999906 622.6411688200267 -164.99999999986719
vertex 49.99999999999912 578.8214763381284 -164.99999999986673
endloop
endfacet
facet normal -3.283366656399981e-14 -5.329070518200797e-15 -1.0
outer loop
vertex 49.99999999999906 622.6411688200267 -164.99999999986719
vertex 29.999999999999154 578.8214763381283 -164.99999999986636
vertex 29.999999999999094 622.6411688200307 -164.99999999986628
endloop
endfacet
facet normal 2.7068360752177393e-16 -0.9848077530122012 0.17364817766696905
outer loop
vertex 29.999999999998508 267.7345271926513 1238.2225468889073
vertex 9.999999999998211 290.42275497844406 1366.8938806497922
vertex 9.999999999999085 267.73452719265117 1238.2225468889062
endloop
endfacet
facet normal 2.7068360752177393e-16 -0.9848077530122012 0.17364817766696905
outer loop
vertex 9.999999999998211 290.42275497844406 1366.8938806497922
vertex 29.999999999998508 267.7345271926513 1238.2225468889073
vertex 29.999999999998174 290.4227549784441 1366.8938806497922
endloop
endfacet
facet normal -1.0 -1.3050049646969918e-14 -3.091535108632346e-15
outer loop
vertex 9.999999999998126 310.7239465267669 1275.3211232982812
vertex 9.999999999998211 290.42275497844406 1366.8938806497922
vertex 9.999999999997925 318.1311346778671 1317.3293747940932
endloop
endfacet
facet normal -1.0 -1.3050049646969918e-14 -3.091535108632346e-15
outer loop
vertex 9.999999999998211 290.42275497844406 1366.8938806497922
vertex 9.999999999998126 310.7239465267669 1275.3211232982812
vertex 9.999999999999085 267.73452719265117 1238.2225468889062
endloop
endfacet
facet normal 1.8164954590773574e-14 0.6533308347158511 -0.7570725331231409
outer loop
vertex 9.999999999998126 310.7239465267669 1275.3211232982812
vertex 29.999999999998508 267.7345271926513 1238.2225468889073
vertex 9.999999999999085 267.73452719265117 1238.2225468889062
endloop
endfacet
facet normal 1.8164954590773574e-14 0.6533308347158511 -0.7570725331231409
outer loop
vertex 29.999999999998508 267.7345271926513 1238.2225468889073
vertex 9.999999999998126 310.7239465267669 1275.3211232982812
vertex 29.99999999999809 310.7239465267669 1275.3211232982812
endloop
endfacet
facet normal -1.7131247095096506e-15 0.8728642206011424 0.4879631670468178
outer loop
vertex 9.999999999998211 290.42275497844406 1366.8938806497922
vertex 29.999999999997435 318.1311346778672 1317.3293747940932
vertex 9.999999999997925 318.1311346778671 1317.3293747940932
endloop
endfacet
facet normal -1.7131247095096506e-15 0.8728642206011424 0.4879631670468178
outer loop
vertex 29.999999999997435 318.1311346778672 1317.3293747940932
vertex 9.999999999998211 290.42275497844406 1366.8938806497922
vertex 29.999999999998174 290.4227549784441 1366.8938806497922
endloop
endfacet
facet normal -1.7295688282080206e-15 0.9848077530122007 -0.1736481776669722
outer loop
vertex 9.999999999997925 318.1311346778671 1317.3293747940932
vertex 29.99999999999809 310.7239465267669 1275.3211232982812
vertex 9.999999999998126 310.7239465267669 1275.3211232982812
endloop
endfacet
facet normal -1.7295688282080206e-15 0.9848077530122007 -0.1736481776669722
outer loop
vertex 29.99999999999809 310.7239465267669 1275.3211232982812
vertex 9.999999999997925 318.1311346778671 1317.3293747940932
vertex 29.999999999997435 318.1311346778672 1317.3293747940932
endloop
endfacet
facet normal 1.0 1.293554950806616e-14 9.799334124804448e-16
outer loop
vertex 29.999999999998174 290.4227549784441 1366.8938806497922
vertex 29.99999999999809 310.7239465267669 1275.3211232982812
vertex 29.999999999997435 318.1311346778672 1317.3293747940932
endloop
endfacet
facet normal 1.0 1.293554950806616e-14 9.799334124804448e-16
outer loop
vertex 29.99999999999809 310.7239465267669 1275.3211232982812
vertex 29.999999999998174 290.4227549784441 1366.8938806497922
vertex 29.999999999998508 267.7345271926513 1238.2225468889073
endloop
endfacet
facet normal 2.6872868872575576e-16 0.030702127081537023 -0.9995285785772557
outer loop
vertex 499.99999999999955 578.8214763381283 -164.9999999998661
vertex 519.9999999999994 629.6890586741267 -163.43752043631687
vertex 519.9999999999995 578.8214763381283 -164.9999999998661
endloop
endfacet
facet normal 2.6872868872575576e-16 0.030702127081537023 -0.9995285785772557
outer loop
vertex 519.9999999999994 629.6890586741267 -163.43752043631687
vertex 499.99999999999955 578.8214763381283 -164.9999999998661
vertex 499.99999999999943 629.6890586741268 -163.43752043631687
endloop
endfacet
facet normal 1.0 1.6063621307455145e-15 6.246542366991946e-16
outer loop
vertex 519.9999999999991 267.7345271926558 1238.222546888904
vertex 519.9999999999994 629.6890586741267 -163.43752043631687
vertex 519.9999999999991 290.42275497844446 1366.8938806497918
endloop
endfacet
facet normal 1.0 1.6063621307455145e-15 6.246542366991946e-16
outer loop
vertex 519.9999999999994 629.6890586741267 -163.43752043631687
vertex 519.9999999999991 267.7345271926558 1238.222546888904
vertex 519.9999999999995 578.8214763381283 -164.9999999998661
endloop
endfacet
facet normal -4.559958632048391e-15 0.9762960071199335 0.21643961393810288
outer loop
vertex 519.9999999999991 290.42275497844446 1366.8938806497918
vertex 499.99999999999943 629.6890586741268 -163.43752043631687
vertex 499.9999999999985 290.42275497844435 1366.893880649791
endloop
endfacet
facet normal -4.559958632048391e-15 0.9762960071199335 0.21643961393810288
outer loop
vertex 499.99999999999943 629.6890586741268 -163.43752043631687
vertex 519.9999999999991 290.42275497844446 1366.8938806497918
vertex 519.9999999999994 629.6890586741267 -163.43752043631687
endloop
endfacet
facet normal -1.0 -3.892940366837053e-15 -1.4118973124020207e-15
outer loop
vertex 499.99999999999943 629.6890586741268 -163.43752043631687
vertex 499.9999999999989 267.73452719265566 1238.2225468889064
vertex 499.9999999999985 290.42275497844435 1366.893880649791
endloop
endfacet
facet normal -1.0 -3.892940366837053e-15 -1.4118973124020207e-15
outer loop
vertex 499.9999999999989 267.73452719265566 1238.2225468889064
vertex 499.99999999999943 629.6890586741268 -163.43752043631687
vertex 499.99999999999955 578.8214763381283 -164.9999999998661
endloop
endfacet
facet normal 1.4085323692834443e-14 -0.9848077530122078 0.1736481776669325
outer loop
vertex 499.9999999999989 267.73452719265566 1238.2225468889064
vertex 519.9999999999991 290.42275497844446 1366.8938806497918
vertex 499.9999999999985 290.42275497844435 1366.893880649791
endloop
endfacet
facet normal 1.4085323692834443e-14 -0.9848077530122078 0.1736481776669325
outer loop
vertex 519.9999999999991 290.42275497844446 1366.8938806497918
vertex 499.9999999999989 267.73452719265566 1238.2225468889064
vertex 519.9999999999991 267.7345271926558 1238.222546888904
endloop
endfacet
facet normal -1.0840837553029592e-14 -0.9762960071199335 -0.2164396139381026
outer loop
vertex 499.99999999999955 578.8214763381283 -164.9999999998661
vertex 519.9999999999991 267.7345271926558 1238.222546888904
vertex 499.9999999999989 267.73452719265566 1238.2225468889064
endloop
endfacet
facet normal -1.0840837553029592e-14 -0.9762960071199335 -0.2164396139381026
outer loop
vertex 519.9999999999991 267.7345271926558 1238.222546888904
vertex 499.99999999999955 578.8214763381283 -164.9999999998661
vertex 519.9999999999995 578.8214763381283 -164.9999999998661
endloop
endfacet
facet normal 2.7068360752177373e-16 -0.9848077530122014 0.17364817766696908
outer loop
vertex 539.9999999999993 267.73452719265146 1238.2225468889071
vertex 519.9999999999991 290.42275497844423 1366.893880649792
vertex 520.0 267.73452719265134 1238.222546888906
endloop
endfacet
facet normal 2.7068360752177373e-16 -0.9848077530122014 0.17364817766696908
outer loop
vertex 519.9999999999991 290.42275497844423 1366.893880649792
vertex 539.9999999999993 267.73452719265146 1238.2225468889071
vertex 539.999999999999 290.42275497844423 1366.893880649792
endloop
endfacet
facet normal -1.0 -1.3050049646969915e-14 -3.0915351086323458e-15
outer loop
vertex 519.999999999999 310.72394652676707 1275.321123298281
vertex 519.9999999999991 290.42275497844423 1366.893880649792
vertex 519.9999999999987 318.1311346778673 1317.329374794093
endloop
endfacet
facet normal -1.0 -1.3050049646969915e-14 -3.0915351086323458e-15
outer loop
vertex 519.9999999999991 290.42275497844423 1366.893880649792
vertex 519.999999999999 310.72394652676707 1275.321123298281
vertex 520.0 267.73452719265134 1238.222546888906
endloop
endfacet
facet normal 1.816495459077358e-14 0.6533308347158512 -0.7570725331231409
outer loop
vertex 519.999999999999 310.72394652676707 1275.321123298281
vertex 539.9999999999993 267.73452719265146 1238.2225468889071
vertex 520.0 267.73452719265134 1238.222546888906
endloop
endfacet
facet normal 1.816495459077358e-14 0.6533308347158512 -0.7570725331231409
outer loop
vertex 539.9999999999993 267.73452719265146 1238.2225468889071
vertex 519.999999999999 310.72394652676707 1275.321123298281
vertex 539.999999999999 310.72394652676707 1275.321123298281
endloop
endfacet
facet normal -1.7131247095096506e-15 0.8728642206011422 0.48796316704681775
outer loop
vertex 519.9999999999991 290.42275497844423 1366.893880649792
vertex 539.9999999999983 318.13113467786735 1317.329374794093
vertex 519.9999999999987 318.1311346778673 1317.329374794093
endloop
endfacet
facet normal -1.7131247095096506e-15 0.8728642206011422 0.48796316704681775
outer loop
vertex 539.9999999999983 318.13113467786735 1317.329374794093
vertex 519.9999999999991 290.42275497844423 1366.893880649792
vertex 539.999999999999 290.42275497844423 1366.893880649792
endloop
endfacet
facet normal -1.7295688282080206e-15 0.9848077530122006 -0.17364817766697216
outer loop
vertex 519.9999999999987 318.1311346778673 1317.329374794093
vertex 539.999999999999 310.72394652676707 1275.321123298281
vertex 519.999999999999 310.72394652676707 1275.321123298281
endloop
endfacet
facet normal -1.7295688282080206e-15 0.9848077530122006 -0.17364817766697216
outer loop
vertex 539.999999999999 310.72394652676707 1275.321123298281
vertex 519.9999999999987 318.1311346778673 1317.329374794093
vertex 539.9999999999983 318.13113467786735 1317.329374794093
endloop
endfacet
facet normal 1.0 1.2935549508066157e-14 9.799334124804452e-16
outer loop
vertex 539.999999999999 290.42275497844423 1366.893880649792
vertex 539.999999999999 310.72394652676707 1275.321123298281
vertex 539.9999999999983 318.13113467786735 1317.329374794093
endloop
endfacet
facet normal 1.0 1.2935549508066157e-14 9.799334124804452e-16
outer loop
vertex 539.999999999999 310.72394652676707 1275.321123298281
vertex 539.999999999999 290.42275497844423 1366.893880649792
vertex 539.9999999999993 267.73452719265146 1238.2225468889071
endloop
endfacet
facet normal -1.0712523469724984e-15 0.9848077530122081 -0.1736481776669302
outer loop
vertex 0.0 315.2116245111042 1622.653955422108
vertex 550.0000000000001 136.92266777513524 611.5270364467947
vertex 1.8047785488306544e-13 136.92266777513464 611.5270364467947
endloop
endfacet
facet normal -1.0712523469724984e-15 0.9848077530122081 -0.1736481776669302
outer loop
vertex 550.0000000000001 136.92266777513524 611.5270364467947
vertex 0.0 315.2116245111042 1622.653955422108
vertex 549.9999999999999 315.2116245111048 1622.653955422108
endloop
endfacet
facet normal 1.0712523469724984e-15 -0.9848077530122081 0.1736481776669302
outer loop
vertex 549.9999999999999 300.43950821592165 1625.2586780871122
vertex 1.8047785488306544e-13 122.15055147995152 614.1317591117986
vertex 550.0000000000001 122.1505514799521 614.1317591117986
endloop
endfacet
facet normal 1.0712523469724984e-15 -0.9848077530122081 0.1736481776669302
outer loop
vertex 1.8047785488306544e-13 122.15055147995152 614.1317591117986
vertex 549.9999999999999 300.43950821592165 1625.2586780871122
vertex 0.0 300.4395082159211 1625.2586780871122
endloop
endfacet
facet normal -1.0 -1.087618004198204e-15 9.08181845391675e-19
outer loop
vertex 1.8047785488306544e-13 136.92266777513464 611.5270364467947
vertex 0.0 300.4395082159211 1625.2586780871122
vertex 0.0 315.2116245111042 1622.653955422108
endloop
endfacet
facet normal -1.0 -1.087618004198204e-15 9.08181845391675e-19
outer loop
vertex 0.0 300.4395082159211 1625.2586780871122
vertex 1.8047785488306544e-13 136.92266777513464 611.5270364467947
vertex 1.8047785488306544e-13 122.15055147995152 614.1317591117986
endloop
endfacet
facet normal 1.879684999042751e-16 -0.1736481776669302 -0.9848077530122082
outer loop
vertex 1.8047785488306544e-13 122.15055147995152 614.1317591117986
vertex 550.0000000000001 136.92266777513524 611.5270364467947
vertex 550.0000000000001 122.1505514799521 614.1317591117986
endloop
endfacet
facet normal 1.879684999042751e-16 -0.1736481776669302 -0.9848077530122082
outer loop
vertex 550.0000000000001 136.92266777513524 611.5270364467947
vertex 1.8047785488306544e-13 122.15055147995152 614.1317591117986
vertex 1.8047785488306544e-13 136.92266777513464 611.5270364467947
endloop
endfacet
facet normal 1.0 1.087618004198204e-15 -9.08181845391675e-19
outer loop
vertex 549.9999999999999 300.43950821592165 1625.2586780871122
vertex 550.0000000000001 136.92266777513524 611.5270364467947
vertex 549.9999999999999 315.2116245111048 1622.653955422108
endloop
endfacet
facet normal 1.0 1.087618004198204e-15 -9.08181845391675e-19
outer loop
vertex 550.0000000000001 136.92266777513524 611.5270364467947
vertex 549.9999999999999 300.43950821592165 1625.2586780871122
vertex 550.0000000000001 122.1505514799521 614.1317591117986
endloop
endfacet
facet normal -1.8699759500741889e-16 0.1736481776669302 0.9848077530122082
outer loop
vertex 0.0 315.2116245111042 1622.653955422108
vertex 549.9999999999999 300.43950821592165 1625.2586780871122
vertex 549.9999999999999 315.2116245111048 1622.653955422108
endloop
endfacet
facet normal -1.8699759500741889e-16 0.1736481776669302 0.9848077530122082
outer loop
vertex 549.9999999999999 300.43950821592165 1625.2586780871122
vertex 0.0 315.2116245111042 1622.653955422108
vertex 0.0 300.4395082159211 1625.2586780871122
endloop
endfacet
endsolid INFO POSTER POD
