solid INFO TABLE POD
facet normal -2.701427600085043e-16 0.21643961393810296 -0.9762960071199334
outer loop
vertex 499.99999999999983 431.9409586296484 561.8564073653715
vertex 50.00000000000063 451.46687877204675 566.1851996441335
vertex 499.9999999999997 451.4668787720472 566.1851996441335
endloop
endfacet
facet normal -2.701427600085043e-16 0.21643961393810296 -0.9762960071199334
outer loop
vertex 50.00000000000063 451.46687877204675 566.1851996441335
vertex 499.99999999999983 431.9409586296484 561.8564073653715
vertex 50.00000000000063 431.94095862964804 561.8564073653715
endloop
endfacet
facet normal 1.0 8.984969817988847e-16 -7.750970975148828e-17
outer loop
vertex 499.99999999999983 421.1189779327432 610.6712077213685
vertex 499.9999999999997 451.4668787720472 566.1851996441335
vertex 499.99999999999983 440.6448980751419 615.0000000001306
endloop
endfacet
facet normal 1.0 8.984969817988847e-16 -7.750970975148828e-17
outer loop
vertex 499.9999999999997 451.4668787720472 566.1851996441335
vertex 499.99999999999983 421.1189779327432 610.6712077213685
vertex 499.99999999999983 431.9409586296484 561.8564073653715
endloop
endfacet
facet normal 2.701427600085043e-16 -0.21643961393810296 0.9762960071199334
outer loop
vertex 50.00000000000063 421.1189779327427 610.6712077213685
vertex 499.99999999999983 440.6448980751419 615.0000000001306
vertex 50.00000000000063 440.64489807514144 615.0000000001306
endloop
endfacet
facet normal 2.701427600085043e-16 -0.21643961393810296 0.9762960071199334
outer loop
vertex 499.99999999999983 440.6448980751419 615.0000000001306
vertex 50.00000000000063 421.1189779327427 610.6712077213685
vertex 499.99999999999983 421.1189779327432 610.6712077213685
endloop
endfacet
facet normal -8.60422844084496e-16 0.9762960071199334 0.21643961393810296
outer loop
vertex 50.00000000000063 451.46687877204675 566.1851996441335
vertex 499.99999999999983 440.6448980751419 615.0000000001306
vertex 499.9999999999997 451.4668787720472 566.1851996441335
endloop
endfacet
facet normal -8.60422844084496e-16 0.9762960071199334 0.21643961393810296
outer loop
vertex 499.99999999999983 440.6448980751419 615.0000000001306
vertex 50.00000000000063 451.46687877204675 566.1851996441335
vertex 50.00000000000063 440.64489807514144 615.0000000001306
endloop
endfacet
facet normal -1.0 -8.984969817988847e-16 7.750970975148828e-17
outer loop
vertex 50.00000000000063 451.46687877204675 566.1851996441335
vertex 50.00000000000063 421.1189779327427 610.6712077213685
vertex 50.00000000000063 440.64489807514144 615.0000000001306
endloop
endfacet
facet normal -1.0 -8.984969817988847e-16 7.750970975148828e-17
outer loop
vertex 50.00000000000063 421.1189779327427 610.6712077213685
vertex 50.00000000000063 451.46687877204675 566.1851996441335
vertex 50.00000000000063 431.94095862964804 561.8564073653715
endloop
endfacet
facet normal 8.60422844084496e-16 -0.9762960071199334 -0.21643961393810296
outer loop
vertex 50.00000000000063 421.1189779327427 610.6712077213685
vertex 499.99999999999983 431.9409586296484 561.8564073653715
vertex 499.99999999999983 421.1189779327432 610.6712077213685
endloop
endfacet
facet normal 8.60422844084496e-16 -0.9762960071199334 -0.21643961393810296
outer loop
vertex 499.99999999999983 431.9409586296484 561.8564073653715
vertex 50.00000000000063 421.1189779327427 610.6712077213685
vertex 50.00000000000063 431.94095862964804 561.8564073653715
endloop
endfacet
facet normal -2.701427600085043e-16 0.21643961393810296 -0.9762960071199334
outer loop
vertex 500.0000000000003 322.19815171067955 1061.8564073653736
vertex 50.00000000000054 341.7240718530779 1066.1851996441355
vertex 500.0000000000003 341.7240718530783 1066.1851996441355
endloop
endfacet
facet normal -2.701427600085043e-16 0.21643961393810296 -0.9762960071199334
outer loop
vertex 50.00000000000054 341.7240718530779 1066.1851996441355
vertex 500.0000000000003 322.19815171067955 1061.8564073653736
vertex 50.00000000000054 322.19815171067916 1061.8564073653736
endloop
endfacet
facet normal 1.0 8.984969817988847e-16 -7.750970975148828e-17
outer loop
vertex 500.0000000000003 311.3761710137742 1110.6712077213704
vertex 500.0000000000003 341.7240718530783 1066.1851996441355
vertex 500.0000000000003 330.902091156173 1115.000000000133
endloop
endfacet
facet normal 1.0 8.984969817988847e-16 -7.750970975148828e-17
outer loop
vertex 500.0000000000003 341.7240718530783 1066.1851996441355
vertex 500.0000000000003 311.3761710137742 1110.6712077213704
vertex 500.0000000000003 322.19815171067955 1061.8564073653736
endloop
endfacet
facet normal 2.701427600085043e-16 -0.21643961393810296 0.9762960071199334
outer loop
vertex 50.00000000000054 311.37617101377384 1110.671207721371
vertex 500.0000000000003 330.902091156173 1115.000000000133
vertex 50.00000000000054 330.9020911561726 1115.000000000133
endloop
endfacet
facet normal 2.701427600085043e-16 -0.21643961393810296 0.9762960071199334
outer loop
vertex 500.0000000000003 330.902091156173 1115.000000000133
vertex 50.00000000000054 311.37617101377384 1110.671207721371
vertex 500.0000000000003 311.3761710137742 1110.6712077213704
endloop
endfacet
facet normal -8.60422844084496e-16 0.9762960071199334 0.21643961393810296
outer loop
vertex 50.00000000000054 341.7240718530779 1066.1851996441355
vertex 500.0000000000003 330.902091156173 1115.000000000133
vertex 500.0000000000003 341.7240718530783 1066.1851996441355
endloop
endfacet
facet normal -8.60422844084496e-16 0.9762960071199334 0.21643961393810296
outer loop
vertex 500.0000000000003 330.902091156173 1115.000000000133
vertex 50.00000000000054 341.7240718530779 1066.1851996441355
vertex 50.00000000000054 330.9020911561726 1115.000000000133
endloop
endfacet
facet normal -1.0 -8.984969817988847e-16 7.750970975148828e-17
outer loop
vertex 50.00000000000054 341.7240718530779 1066.1851996441355
vertex 50.00000000000054 311.37617101377384 1110.671207721371
vertex 50.00000000000054 330.9020911561726 1115.000000000133
endloop
endfacet
facet normal -1.0 -8.984969817988847e-16 7.750970975148828e-17
outer loop
vertex 50.00000000000054 311.37617101377384 1110.671207721371
vertex 50.00000000000054 341.7240718530779 1066.1851996441355
vertex 50.00000000000054 322.19815171067916 1061.8564073653736
endloop
endfacet
facet normal 8.60422844084496e-16 -0.9762960071199334 -0.21643961393810296
outer loop
vertex 50.00000000000054 311.37617101377384 1110.671207721371
vertex 500.0000000000003 322.19815171067955 1061.8564073653736
vertex 500.0000000000003 311.3761710137742 1110.6712077213704
endloop
endfacet
facet normal 8.60422844084496e-16 -0.9762960071199334 -0.21643961393810296
outer loop
vertex 500.0000000000003 322.19815171067955 1061.8564073653736
vertex 50.00000000000054 311.37617101377384 1110.671207721371
vertex 50.00000000000054 322.19815171067916 1061.8564073653736
endloop
endfacet
facet normal -4.606258850513642e-16 0.21643961393816388 -0.97629600711992
outer loop
vertex 30.000000000000192 622.6411688200297 -164.99999999986744
vertex 50.00000000000014 629.6890586741257 -163.43752043631858
vertex 50.000000000000156 622.6411688200258 -164.99999999986835
endloop
endfacet
facet normal -4.606258850513642e-16 0.21643961393816388 -0.97629600711992
outer loop
vertex 50.00000000000014 629.6890586741257 -163.43752043631858
vertex 30.000000000000192 622.6411688200297 -164.99999999986744
vertex 30.00000000000018 629.6890586741257 -163.43752043631858
endloop
endfacet
facet normal 1.0 1.4407526102342305e-15 2.819196391531065e-16
outer loop
vertex 50.000000000000306 267.73452719265447 1238.2225468889023
vertex 50.00000000000014 629.6890586741257 -163.43752043631858
vertex 50.000000000000234 290.4227549784431 1366.8938806497897
endloop
endfacet
facet normal 1.0 1.4407526102342305e-15 2.819196391531065e-16
outer loop
vertex 50.00000000000014 629.6890586741257 -163.43752043631858
vertex 50.000000000000306 267.73452719265447 1238.2225468889023
vertex 50.00000000000021 578.8214763381274 -164.9999999998679
endloop
endfacet
facet normal 1.0 1.4407526102342305e-15 2.819196391531065e-16
outer loop
vertex 50.00000000000014 629.6890586741257 -163.43752043631858
vertex 50.00000000000021 578.8214763381274 -164.9999999998679
vertex 50.000000000000156 622.6411688200258 -164.99999999986835
endloop
endfacet
facet normal -4.337914027123359e-15 0.9762960071199334 0.21643961393810304
outer loop
vertex 50.000000000000234 290.4227549784431 1366.8938806497897
vertex 30.00000000000018 629.6890586741257 -163.43752043631858
vertex 29.99999999999973 290.42275497844304 1366.893880649789
endloop
endfacet
facet normal -4.337914027123359e-15 0.9762960071199334 0.21643961393810304
outer loop
vertex 30.00000000000018 629.6890586741257 -163.43752043631858
vertex 50.000000000000234 290.4227549784431 1366.8938806497897
vertex 50.00000000000014 629.6890586741257 -163.43752043631858
endloop
endfacet
facet normal -1.0 -3.552396723808431e-15 -1.0386972252602776e-15
outer loop
vertex 30.00000000000018 629.6890586741257 -163.43752043631858
vertex 30.000000000000075 267.73452719265447 1238.2225468889046
vertex 29.99999999999973 290.42275497844304 1366.893880649789
endloop
endfacet
facet normal -1.0 -3.552396723808431e-15 -1.0386972252602776e-15
outer loop
vertex 30.000000000000075 267.73452719265447 1238.2225468889046
vertex 30.00000000000018 629.6890586741257 -163.43752043631858
vertex 30.00000000000025 578.8214763381274 -164.99999999986744
endloop
endfacet
facet normal -1.0 -3.552396723808431e-15 -1.0386972252602776e-15
outer loop
vertex 30.00000000000025 578.8214763381274 -164.99999999986744
vertex 30.00000000000018 629.6890586741257 -163.43752043631858
vertex 30.000000000000192 622.6411688200297 -164.99999999986744
endloop
endfacet
facet normal -1.2289837276368261e-14 -0.9762960071199334 -0.21643961393810282
outer loop
vertex 30.00000000000025 578.8214763381274 -164.99999999986744
vertex 50.000000000000306 267.73452719265447 1238.2225468889023
vertex 30.000000000000075 267.73452719265447 1238.2225468889046
endloop
endfacet
facet normal -1.2289837276368261e-14 -0.9762960071199334 -0.21643961393810282
outer loop
vertex 50.000000000000306 267.73452719265447 1238.2225468889023
vertex 30.00000000000025 578.8214763381274 -164.99999999986744
vertex 50.00000000000021 578.8214763381274 -164.9999999998679
endloop
endfacet
facet normal 1.4003494273461112e-14 -0.9848077530122078 0.17364817766693227
outer loop
vertex 30.000000000000075 267.73452719265447 1238.2225468889046
vertex 50.000000000000234 290.4227549784431 1366.8938806497897
vertex 29.99999999999973 290.42275497844304 1366.893880649789
endloop
endfacet
facet normal 1.4003494273461112e-14 -0.9848077530122078 0.17364817766693227
outer loop
vertex 50.000000000000234 290.4227549784431 1366.8938806497897
vertex 30.000000000000075 267.73452719265447 1238.2225468889046
vertex 50.000000000000306 267.73452719265447 1238.2225468889023
endloop
endfacet
facet normal -3.319632013430952e-14 -5.134781488891391e-15 -1.0
outer loop
vertex 30.00000000000025 578.8214763381274 -164.99999999986744
vertex 50.000000000000156 622.6411688200258 -164.99999999986835
vertex 50.00000000000021 578.8214763381274 -164.9999999998679
endloop
endfacet
facet normal -3.319632013430952e-14 -5.134781488891391e-15 -1.0
outer loop
vertex 50.000000000000156 622.6411688200258 -164.99999999986835
vertex 30.00000000000025 578.8214763381274 -164.99999999986744
vertex 30.000000000000192 622.6411688200297 -164.99999999986744
endloop
endfacet
facet normal 1.8885418814845603e-16 -0.9848077530122012 0.17364817766696888
outer loop
vertex 30.00000000000011 267.73452719265003 1238.222546888906
vertex 9.999999999999863 290.4227549784428 1366.893880649791
vertex 10.000000000000687 267.73452719264986 1238.2225468889048
endloop
endfacet
facet normal 1.8885418814845603e-16 -0.9848077530122012 0.17364817766696888
outer loop
vertex 9.999999999999863 290.4227549784428 1366.893880649791
vertex 30.00000000000011 267.73452719265003 1238.222546888906
vertex 29.999999999999826 290.4227549784428 1366.893880649791
endloop
endfacet
facet normal -1.0 -1.290301226780722e-14 -2.7288815383226336e-15
outer loop
vertex 9.999999999999748 310.72394652676564 1275.3211232982799
vertex 9.999999999999863 290.4227549784428 1366.893880649791
vertex 9.999999999999565 318.1311346778659 1317.3293747940918
endloop
endfacet
facet normal -1.0 -1.290301226780722e-14 -2.7288815383226336e-15
outer loop
vertex 9.999999999999863 290.4227549784428 1366.893880649791
vertex 9.999999999999748 310.72394652676564 1275.3211232982799
vertex 10.000000000000687 267.73452719264986 1238.2225468889048
endloop
endfacet
facet normal 1.798646358731584e-14 0.6533308347158512 -0.7570725331231408
outer loop
vertex 9.999999999999748 310.72394652676564 1275.3211232982799
vertex 30.00000000000011 267.73452719265003 1238.222546888906
vertex 10.000000000000687 267.73452719264986 1238.2225468889048
endloop
endfacet
facet normal 1.798646358731584e-14 0.6533308347158512 -0.7570725331231408
outer loop
vertex 30.00000000000011 267.73452719265003 1238.222546888906
vertex 9.999999999999748 310.72394652676564 1275.3211232982799
vertex 29.999999999999712 310.72394652676564 1275.3211232982799
endloop
endfacet
facet normal -1.407819457438403e-15 0.8728642206011423 0.4879631670468179
outer loop
vertex 9.999999999999863 290.4227549784428 1366.893880649791
vertex 29.999999999999076 318.13113467786593 1317.3293747940918
vertex 9.999999999999565 318.1311346778659 1317.3293747940918
endloop
endfacet
facet normal -1.407819457438403e-15 0.8728642206011423 0.4879631670468179
outer loop
vertex 29.999999999999076 318.13113467786593 1317.3293747940918
vertex 9.999999999999863 290.4227549784428 1366.893880649791
vertex 29.999999999999826 290.4227549784428 1366.893880649791
endloop
endfacet
facet normal -1.647739408834704e-15 0.9848077530122007 -0.17364817766697202
outer loop
vertex 9.999999999999565 318.1311346778659 1317.3293747940918
vertex 29.999999999999712 310.72394652676564 1275.3211232982799
vertex 9.999999999999748 310.72394652676564 1275.3211232982799
endloop
endfacet
facet normal -1.647739408834704e-15 0.9848077530122007 -0.17364817766697202
outer loop
vertex 29.999999999999712 310.72394652676564 1275.3211232982799
vertex 9.999999999999565 318.1311346778659 1317.3293747940918
vertex 29.999999999999076 318.13113467786593 1317.3293747940918
endloop
endfacet
facet normal 1.0 1.2788512128903462e-14 6.172798421707322e-16
outer loop
vertex 29.999999999999826 290.4227549784428 1366.893880649791
vertex 29.999999999999712 310.72394652676564 1275.3211232982799
vertex 29.999999999999076 318.13113467786593 1317.3293747940918
endloop
endfacet
facet normal 1.0 1.2788512128903462e-14 6.172798421707322e-16
outer loop
vertex 29.999999999999712 310.72394652676564 1275.3211232982799
vertex 29.999999999999826 290.4227549784428 1366.893880649791
vertex 30.00000000000011 267.73452719265003 1238.222546888906
endloop
endfacet
facet normal -8.923955862109123e-17 0.03070212708153719 -0.9995285785772556
outer loop
vertex 500.0000000000007 578.8214763381272 -164.99999999986744
vertex 520.0000000000007 629.6890586741256 -163.4375204363182
vertex 520.0000000000007 578.8214763381272 -164.99999999986744
endloop
endfacet
facet normal -8.923955862109123e-17 0.03070212708153719 -0.9995285785772556
outer loop
vertex 520.0000000000007 629.6890586741256 -163.4375204363182
vertex 500.0000000000007 578.8214763381272 -164.99999999986744
vertex 500.0000000000007 629.6890586741257 -163.4375204363182
endloop
endfacet
facet normal 1.0 1.459324751582816e-15 2.6200066638947987e-16
outer loop
vertex 520.0000000000008 267.73452719265447 1238.2225468889023
vertex 520.0000000000007 629.6890586741256 -163.4375204363182
vertex 520.0000000000008 290.42275497844304 1366.8938806497902
endloop
endfacet
facet normal 1.0 1.459324751582816e-15 2.6200066638947987e-16
outer loop
vertex 520.0000000000007 629.6890586741256 -163.4375204363182
vertex 520.0000000000008 267.73452719265447 1238.2225468889023
vertex 520.0000000000007 578.8214763381272 -164.99999999986744
endloop
endfacet
facet normal -4.337914027123359e-15 0.9762960071199334 0.21643961393810304
outer loop
vertex 520.0000000000008 290.42275497844304 1366.8938806497902
vertex 500.0000000000007 629.6890586741257 -163.4375204363182
vertex 500.0000000000003 290.42275497844304 1366.8938806497893
endloop
endfacet
facet normal -4.337914027123359e-15 0.9762960071199334 0.21643961393810304
outer loop
vertex 500.0000000000007 629.6890586741257 -163.4375204363182
vertex 520.0000000000008 290.42275497844304 1366.8938806497902
vertex 520.0000000000007 629.6890586741256 -163.4375204363182
endloop
endfacet
facet normal -1.0 -3.7459029876743535e-15 -1.0492437420923064e-15
outer loop
vertex 500.0000000000007 629.6890586741257 -163.4375204363182
vertex 500.0000000000005 267.7345271926543 1238.2225468889048
vertex 500.0000000000003 290.42275497844304 1366.8938806497893
endloop
endfacet
facet normal -1.0 -3.7459029876743535e-15 -1.0492437420923064e-15
outer loop
vertex 500.0000000000005 267.7345271926543 1238.2225468889048
vertex 500.0000000000007 629.6890586741257 -163.4375204363182
vertex 500.0000000000007 578.8214763381272 -164.99999999986744
endloop
endfacet
facet normal 1.400349427346111e-14 -0.9848077530122078 0.17364817766693227
outer loop
vertex 500.0000000000005 267.7345271926543 1238.2225468889048
vertex 520.0000000000008 290.42275497844304 1366.8938806497902
vertex 500.0000000000003 290.42275497844304 1366.8938806497893
endloop
endfacet
facet normal 1.400349427346111e-14 -0.9848077530122078 0.17364817766693227
outer loop
vertex 520.0000000000008 290.42275497844304 1366.8938806497902
vertex 500.0000000000005 267.7345271926543 1238.2225468889048
vertex 520.0000000000008 267.73452719265447 1238.2225468889023
endloop
endfacet
facet normal -1.1062882157954623e-14 -0.9762960071199334 -0.21643961393810277
outer loop
vertex 500.0000000000007 578.8214763381272 -164.99999999986744
vertex 520.0000000000008 267.73452719265447 1238.2225468889023
vertex 500.0000000000005 267.7345271926543 1238.2225468889048
endloop
endfacet
facet normal -1.1062882157954623e-14 -0.9762960071199334 -0.21643961393810277
outer loop
vertex 520.0000000000008 267.73452719265447 1238.2225468889023
vertex 500.0000000000007 578.8214763381272 -164.99999999986744
vertex 520.0000000000007 578.8214763381272 -164.99999999986744
endloop
endfacet
facet normal 1.8885418814845585e-16 -0.9848077530122014 0.17364817766696894
outer loop
vertex 540.000000000001 267.7345271926501 1238.2225468889058
vertex 520.0000000000008 290.4227549784428 1366.8938806497906
vertex 520.0000000000016 267.73452719265 1238.2225468889046
endloop
endfacet
facet normal 1.8885418814845585e-16 -0.9848077530122014 0.17364817766696894
outer loop
vertex 520.0000000000008 290.4227549784428 1366.8938806497906
vertex 540.000000000001 267.7345271926501 1238.2225468889058
vertex 540.0000000000007 290.42275497844287 1366.8938806497906
endloop
endfacet
facet normal -1.0 -1.2903012267807215e-14 -2.728881538322633e-15
outer loop
vertex 520.0000000000006 310.72394652676576 1275.3211232982796
vertex 520.0000000000008 290.4227549784428 1366.8938806497906
vertex 520.0000000000005 318.13113467786593 1317.3293747940916
endloop
endfacet
facet normal -1.0 -1.2903012267807215e-14 -2.728881538322633e-15
outer loop
vertex 520.0000000000008 290.4227549784428 1366.8938806497906
vertex 520.0000000000006 310.72394652676576 1275.3211232982796
vertex 520.0000000000016 267.73452719265 1238.2225468889046
endloop
endfacet
facet normal 1.798646358731585e-14 0.6533308347158513 -0.7570725331231409
outer loop
vertex 520.0000000000006 310.72394652676576 1275.3211232982796
vertex 540.000000000001 267.7345271926501 1238.2225468889058
vertex 520.0000000000016 267.73452719265 1238.2225468889046
endloop
endfacet
facet normal 1.798646358731585e-14 0.6533308347158513 -0.7570725331231409
outer loop
vertex 540.000000000001 267.7345271926501 1238.2225468889058
vertex 520.0000000000006 310.72394652676576 1275.3211232982796
vertex 540.0000000000006 310.72394652676576 1275.3211232982796
endloop
endfacet
facet normal -1.4078194574384031e-15 0.8728642206011421 0.48796316704681786
outer loop
vertex 520.0000000000008 290.4227549784428 1366.8938806497906
vertex 539.9999999999999 318.131134677866 1317.3293747940916
vertex 520.0000000000005 318.13113467786593 1317.3293747940916
endloop
endfacet
facet normal -1.4078194574384031e-15 0.8728642206011421 0.48796316704681786
outer loop
vertex 539.9999999999999 318.131134677866 1317.3293747940916
vertex 520.0000000000008 290.4227549784428 1366.8938806497906
vertex 540.0000000000007 290.42275497844287 1366.8938806497906
endloop
endfacet
facet normal -1.6477394088347045e-15 0.9848077530122008 -0.17364817766697208
outer loop
vertex 520.0000000000005 318.13113467786593 1317.3293747940916
vertex 540.0000000000006 310.72394652676576 1275.3211232982796
vertex 520.0000000000006 310.72394652676576 1275.3211232982796
endloop
endfacet
facet normal -1.6477394088347045e-15 0.9848077530122008 -0.17364817766697208
outer loop
vertex 540.0000000000006 310.72394652676576 1275.3211232982796
vertex 520.0000000000005 318.13113467786593 1317.3293747940916
vertex 539.9999999999999 318.131134677866 1317.3293747940916
endloop
endfacet
facet normal 1.0 1.2788512128903458e-14 6.172798421707321e-16
outer loop
vertex 540.0000000000007 290.42275497844287 1366.8938806497906
vertex 540.0000000000006 310.72394652676576 1275.3211232982796
vertex 539.9999999999999 318.131134677866 1317.3293747940916
endloop
endfacet
facet normal 1.0 1.2788512128903458e-14 6.172798421707321e-16
outer loop
vertex 540.0000000000006 310.72394652676576 1275.3211232982796
vertex 540.0000000000007 290.42275497844287 1366.8938806497906
vertex 540.000000000001 267.7345271926501 1238.2225468889058
endloop
endfacet
facet normal 9.434696561236523e-17 -0.17364817766693041 -0.9848077530122082
outer loop
vertex 500.0 306.5292156277555 1573.413567771497
vertex 50.0 326.2253706879995 1569.940604218159
vertex 500.0 326.2253706879998 1569.940604218159
endloop
endfacet
facet normal 9.434696561236523e-17 -0.17364817766693041 -0.9848077530122082
outer loop
vertex 50.0 326.2253706879995 1569.940604218159
vertex 500.0 306.5292156277555 1573.413567771497
vertex 50.0 306.52921562775515 1573.413567771497
endloop
endfacet
facet normal 1.0 8.090664542590421e-16 -4.6857825438535415e-17
outer loop
vertex 50.0 306.52921562775515 1573.413567771497
vertex 50.00000000000018 20.30853223771513 -164.99999999986755
vertex 50.0 326.2253706879995 1569.940604218159
endloop
endfacet
facet normal 1.0 8.090664542590421e-16 -4.6857825438535415e-17
outer loop
vertex 50.00000000000018 20.30853223771513 -164.99999999986755
vertex 50.0 306.52921562775515 1573.413567771497
vertex 50.00000000000018 2.255973186038318e-13 -164.99999999986682
endloop
endfacet
facet normal -1.0 -8.090664542590421e-16 4.6857825438535415e-17
outer loop
vertex 1.8047785488306544e-13 20.308532237715085 -164.99999999986755
vertex 0.0 315.21162451110166 1622.6539554221074
vertex 0.0 334.9077795713458 1619.1809918687688
endloop
endfacet
facet normal -1.0 -8.090664542590421e-16 4.6857825438535415e-17
outer loop
vertex 0.0 315.21162451110166 1622.6539554221074
vertex 1.8047785488306544e-13 20.308532237715085 -164.99999999986755
vertex 1.8047785488306544e-13 0.0 -164.99999999986755
endloop
endfacet
facet normal -9.434696561236523e-17 0.17364817766693041 0.9848077530122082
outer loop
vertex 0.0 315.21162451110166 1622.6539554221074
vertex 550.0 334.9077795713463 1619.1809918687688
vertex 0.0 334.9077795713458 1619.1809918687688
endloop
endfacet
facet normal -9.434696561236523e-17 0.17364817766693041 0.9848077530122082
outer loop
vertex 550.0 334.9077795713463 1619.1809918687688
vertex 0.0 315.21162451110166 1622.6539554221074
vertex 550.0 315.2116245111021 1622.6539554221074
endloop
endfacet
facet normal -1.0 -8.090664542590421e-16 4.6857825438535415e-17
outer loop
vertex 500.00000000000017 20.308532237715536 -164.99999999986682
vertex 500.0 306.5292156277555 1573.413567771497
vertex 500.0 326.2253706879998 1569.940604218159
endloop
endfacet
facet normal -1.0 -8.090664542590421e-16 4.6857825438535415e-17
outer loop
vertex 500.0 306.5292156277555 1573.413567771497
vertex 500.00000000000017 20.308532237715536 -164.99999999986682
vertex 500.00000000000017 5.865530283699627e-13 -164.99999999986682
endloop
endfacet
facet normal -8.470625257323554e-16 0.984807753012208 -0.17364817766693028
outer loop
vertex 1.8047785488306544e-13 20.308532237715085 -164.99999999986755
vertex 50.0 326.2253706879995 1569.940604218159
vertex 50.00000000000018 20.30853223771513 -164.99999999986755
endloop
endfacet
facet normal -8.470625257323554e-16 0.984807753012208 -0.17364817766693028
outer loop
vertex 500.00000000000017 20.308532237715536 -164.99999999986682
vertex 550.0 334.9077795713463 1619.1809918687688
vertex 550.0000000000001 20.30853223771567 -164.99999999986719
endloop
endfacet
facet normal -8.470625257323554e-16 0.984807753012208 -0.17364817766693028
outer loop
vertex 550.0 334.9077795713463 1619.1809918687688
vertex 500.00000000000017 20.308532237715536 -164.99999999986682
vertex 500.0 326.2253706879998 1569.940604218159
endloop
endfacet
facet normal -8.470625257323554e-16 0.984807753012208 -0.17364817766693028
outer loop
vertex 550.0 334.9077795713463 1619.1809918687688
vertex 500.0 326.2253706879998 1569.940604218159
vertex 0.0 334.9077795713458 1619.1809918687688
endloop
endfacet
facet normal -8.470625257323554e-16 0.984807753012208 -0.17364817766693028
outer loop
vertex 0.0 334.9077795713458 1619.1809918687688
vertex 500.0 326.2253706879998 1569.940604218159
vertex 50.0 326.2253706879995 1569.940604218159
endloop
endfacet
facet normal -8.470625257323554e-16 0.984807753012208 -0.17364817766693028
outer loop
vertex 0.0 334.9077795713458 1619.1809918687688
vertex 50.0 326.2253706879995 1569.940604218159
vertex 1.8047785488306544e-13 20.308532237715085 -164.99999999986755
endloop
endfacet
facet normal 1.0 1.2607002228033737e-15 -1.2135730769438408e-16
outer loop
vertex 550.0000000000001 5.865530283699627e-13 -164.99999999986719
vertex 550.0 334.9077795713463 1619.1809918687688
vertex 550.0 315.2116245111021 1622.6539554221074
endloop
endfacet
facet normal 1.0 1.2607002228033737e-15 -1.2135730769438408e-16
outer loop
vertex 550.0 334.9077795713463 1619.1809918687688
vertex 550.0000000000001 5.865530283699627e-13 -164.99999999986719
vertex 550.0000000000001 20.30853223771567 -164.99999999986719
endloop
endfacet
facet normal -4.558804197515175e-15 2.3314683517128287e-15 -1.0
outer loop
vertex 550.0000000000001 5.865530283699627e-13 -164.99999999986719
vertex 500.00000000000017 20.308532237715536 -164.99999999986682
vertex 550.0000000000001 20.30853223771567 -164.99999999986719
endloop
endfacet
facet normal -4.558804197515175e-15 2.3314683517128287e-15 -1.0
outer loop
vertex 500.00000000000017 20.308532237715536 -164.99999999986682
vertex 550.0000000000001 5.865530283699627e-13 -164.99999999986719
vertex 500.00000000000017 5.865530283699627e-13 -164.99999999986682
endloop
endfacet
facet normal 8.816972862057533e-16 -0.984807753012208 0.17364817766693028
outer loop
vertex 0.0 315.21162451110166 1622.6539554221074
vertex 500.0 306.5292156277555 1573.413567771497
vertex 550.0 315.2116245111021 1622.6539554221074
endloop
endfacet
facet normal 8.816972862057533e-16 -0.984807753012208 0.17364817766693028
outer loop
vertex 500.0 306.5292156277555 1573.413567771497
vertex 0.0 315.21162451110166 1622.6539554221074
vertex 50.0 306.52921562775515 1573.413567771497
endloop
endfacet
facet normal 8.816972862057533e-16 -0.984807753012208 0.17364817766693028
outer loop
vertex 50.0 306.52921562775515 1573.413567771497
vertex 0.0 315.21162451110166 1622.6539554221074
vertex 50.00000000000018 2.255973186038318e-13 -164.99999999986682
endloop
endfacet
facet normal 8.816972862057533e-16 -0.984807753012208 0.17364817766693028
outer loop
vertex 50.00000000000018 2.255973186038318e-13 -164.99999999986682
vertex 0.0 315.21162451110166 1622.6539554221074
vertex 1.8047785488306544e-13 0.0 -164.99999999986755
endloop
endfacet
facet normal 8.816972862057533e-16 -0.984807753012208 0.17364817766693028
outer loop
vertex 550.0 315.2116245111021 1622.6539554221074
vertex 500.00000000000017 5.865530283699627e-13 -164.99999999986682
vertex 550.0000000000001 5.865530283699627e-13 -164.99999999986719
endloop
endfacet
facet normal 8.816972862057533e-16 -0.984807753012208 0.17364817766693028
outer loop
vertex 500.00000000000017 5.865530283699627e-13 -164.99999999986682
vertex 550.0 315.2116245111021 1622.6539554221074
vertex 500.0 306.5292156277555 1573.413567771497
endloop
endfacet
facet normal 7.172256369884129e-15 -1.7708057242771247e-14 -1.0
outer loop
vertex 50.00000000000018 2.255973186038318e-13 -164.99999999986682
vertex 1.8047785488306544e-13 20.308532237715085 -164.99999999986755
vertex 50.00000000000018 20.30853223771513 -164.99999999986755
endloop
endfacet
facet normal 7.172256369884129e-15 -1.7708057242771247e-14 -1.0
outer loop
vertex 1.8047785488306544e-13 20.308532237715085 -164.99999999986755
vertex 50.00000000000018 2.255973186038318e-13 -164.99999999986682
vertex 1.8047785488306544e-13 0.0 -164.99999999986755
endloop
endfacet
facet normal 9.434696561236523e-17 -0.17364817766693041 -0.9848077530122082
outer loop
vertex 550.0000000000001 108.54410383154185 565.759612349522
vertex 9.023892744153272e-14 128.24025889178557 562.2866487961833
vertex 550.0000000000001 128.24025889178603 562.2866487961833
endloop
endfacet
facet normal 9.434696561236523e-17 -0.17364817766693041 -0.9848077530122082
outer loop
vertex 9.023892744153272e-14 128.24025889178557 562.2866487961833
vertex 550.0000000000001 108.54410383154185 565.759612349522
vertex 9.023892744153272e-14 108.54410383154142 565.759612349522
endloop
endfacet
facet normal 1.0 8.090664542590421e-16 -4.6857825438535415e-17
outer loop
vertex 550.0000000000001 108.54410383154185 565.759612349522
vertex 550.0000000000001 136.92266777513257 611.5270364467939
vertex 550.0000000000001 117.2265127148884 615.0000000001324
endloop
endfacet
facet normal 1.0 8.090664542590421e-16 -4.6857825438535415e-17
outer loop
vertex 550.0000000000001 136.92266777513257 611.5270364467939
vertex 550.0000000000001 108.54410383154185 565.759612349522
vertex 550.0000000000001 128.24025889178603 562.2866487961833
endloop
endfacet
facet normal -9.434696561236523e-17 0.17364817766693041 0.9848077530122082
outer loop
vertex 9.023892744153272e-14 117.22651271488797 615.0000000001324
vertex 550.0000000000001 136.92266777513257 611.5270364467939
vertex 9.023892744153272e-14 136.9226677751321 611.5270364467939
endloop
endfacet
facet normal -9.434696561236523e-17 0.17364817766693041 0.9848077530122082
outer loop
vertex 550.0000000000001 136.92266777513257 611.5270364467939
vertex 9.023892744153272e-14 117.22651271488797 615.0000000001324
vertex 550.0000000000001 117.2265127148884 615.0000000001324
endloop
endfacet
facet normal -8.049116928532385e-16 0.984807753012208 -0.1736481776669304
outer loop
vertex 9.023892744153272e-14 128.24025889178557 562.2866487961833
vertex 550.0000000000001 136.92266777513257 611.5270364467939
vertex 550.0000000000001 128.24025889178603 562.2866487961833
endloop
endfacet
facet normal -8.049116928532385e-16 0.984807753012208 -0.1736481776669304
outer loop
vertex 550.0000000000001 136.92266777513257 611.5270364467939
vertex 9.023892744153272e-14 128.24025889178557 562.2866487961833
vertex 9.023892744153272e-14 136.9226677751321 611.5270364467939
endloop
endfacet
facet normal -1.0 -8.090664542590421e-16 4.6857825438535415e-17
outer loop
vertex 9.023892744153272e-14 128.24025889178557 562.2866487961833
vertex 9.023892744153272e-14 117.22651271488797 615.0000000001324
vertex 9.023892744153272e-14 136.9226677751321 611.5270364467939
endloop
endfacet
facet normal -1.0 -8.090664542590421e-16 4.6857825438535415e-17
outer loop
vertex 9.023892744153272e-14 117.22651271488797 615.0000000001324
vertex 9.023892744153272e-14 128.24025889178557 562.2866487961833
vertex 9.023892744153272e-14 108.54410383154142 565.759612349522
endloop
endfacet
facet normal 8.049116928532385e-16 -0.984807753012208 0.1736481776669304
outer loop
vertex 9.023892744153272e-14 117.22651271488797 615.0000000001324
vertex 550.0000000000001 108.54410383154185 565.759612349522
vertex 550.0000000000001 117.2265127148884 615.0000000001324
endloop
endfacet
facet normal 8.049116928532385e-16 -0.984807753012208 0.1736481776669304
outer loop
vertex 550.0000000000001 108.54410383154185 565.759612349522
vertex 9.023892744153272e-14 117.22651271488797 615.0000000001324
vertex 9.023892744153272e-14 108.54410383154142 565.759612349522
endloop
endfacet
facet normal 5.398126726987457e-15 -1.3100631690576847e-14 -1.0
outer loop
vertex 50.00000000000018 1.8047785488306544e-13 -164.99999999986682
vertex 1.8047785488306544e-13 20.30853223771504 -164.99999999986755
vertex 50.00000000000018 20.308532237715085 -164.99999999986755
endloop
endfacet
facet normal 5.398126726987457e-15 -1.3100631690576847e-14 -1.0
outer loop
vertex 1.8047785488306544e-13 20.30853223771504 -164.99999999986755
vertex 50.00000000000018 1.8047785488306544e-13 -164.99999999986682
vertex 1.8047785488306544e-13 -4.511946372076636e-14 -164.99999999986755
endloop
endfacet
facet normal -7.632783294297951e-16 1.0 0.0
outer loop
vertex 49.99999999999973 567.2265127148875 630.0000000001357
vertex 499.9999999999999 567.226512714888 615.0000000001357
vertex 49.99999999999973 567.2265127148877 615.0000000001357
endloop
endfacet
facet normal -7.632783294297951e-16 1.0 0.0
outer loop
vertex 499.9999999999999 567.226512714888 615.0000000001357
vertex 49.99999999999973 567.2265127148875 630.0000000001357
vertex 499.9999999999999 567.2265127148878 630.0000000001357
endloop
endfacet
facet normal -1.0 -7.632783294297951e-16 0.0
outer loop
vertex 50.00000000000009 117.22651271488748 615.0000000001357
vertex 49.99999999999973 567.2265127148875 630.0000000001357
vertex 49.99999999999973 567.2265127148877 615.0000000001357
endloop
endfacet
facet normal -1.0 -7.632783294297951e-16 0.0
outer loop
vertex 49.99999999999973 567.2265127148875 630.0000000001357
vertex 50.00000000000009 117.22651271488748 615.0000000001357
vertex 50.00000000000009 117.22651271488748 630.0000000001357
endloop
endfacet
facet normal 7.632783294297951e-16 -1.0 0.0
outer loop
vertex 500.0000000000003 117.22651271488785 630.0000000001357
vertex 50.00000000000009 117.22651271488748 615.0000000001357
vertex 500.0000000000003 117.22651271488785 615.0000000001357
endloop
endfacet
facet normal 7.632783294297951e-16 -1.0 0.0
outer loop
vertex 50.00000000000009 117.22651271488748 615.0000000001357
vertex 500.0000000000003 117.22651271488785 630.0000000001357
vertex 50.00000000000009 117.22651271488748 630.0000000001357
endloop
endfacet
facet normal 1.0 7.632783294297951e-16 0.0
outer loop
vertex 499.9999999999999 567.2265127148878 630.0000000001357
vertex 500.0000000000003 117.22651271488785 615.0000000001357
vertex 499.9999999999999 567.226512714888 615.0000000001357
endloop
endfacet
facet normal 1.0 7.632783294297951e-16 0.0
outer loop
vertex 500.0000000000003 117.22651271488785 615.0000000001357
vertex 499.9999999999999 567.2265127148878 630.0000000001357
vertex 500.0000000000003 117.22651271488785 630.0000000001357
endloop
endfacet
facet normal 0.0 0.0 1.0
outer loop
vertex 49.99999999999973 567.2265127148875 630.0000000001357
vertex 500.0000000000003 117.22651271488785 630.0000000001357
vertex 499.9999999999999 567.2265127148878 630.0000000001357
endloop
endfacet
facet normal 0.0 0.0 1.0
outer loop
vertex 500.0000000000003 117.22651271488785 630.0000000001357
vertex 49.99999999999973 567.2265127148875 630.0000000001357
vertex 50.00000000000009 117.22651271488748 630.0000000001357
endloop
endfacet
facet normal 0.0 -0.0 -1.0
outer loop
vertex 50.00000000000009 117.22651271488748 615.0000000001357
vertex 499.9999999999999 567.226512714888 615.0000000001357
vertex 500.0000000000003 117.22651271488785 615.0000000001357
endloop
endfacet
facet normal 0.0 -0.0 -1.0
outer loop
vertex 499.9999999999999 567.226512714888 615.0000000001357
vertex 50.00000000000009 117.22651271488748 615.0000000001357
vertex 49.99999999999973 567.2265127148877 615.0000000001357
endloop
endfacet
endsolid INFO TABLE POD
